<?xml version="1.0" standalone="no"?>
<!DOCTYPE svg PUBLIC "-//W3C//DTD SVG 20010904//EN"
 "http://www.w3.org/TR/2001/REC-SVG-20010904/DTD/svg10.dtd">
<svg version="1.0" xmlns="http://www.w3.org/2000/svg"
 width="1923.000000pt" height="1923.000000pt" viewBox="0 0 1923.000000 1923.000000"
 preserveAspectRatio="xMidYMid meet">
<metadata>
Created by potrace 1.14, written by Peter Selinger 2001-2017
</metadata>
<g transform="translate(0.000000,1923.000000) scale(0.100000,-0.100000)"
fill="#000000" stroke="none">
<path d="M9727 18824 c-1 -1 -67 -4 -147 -8 -80 -4 -158 -8 -175 -10 -16 -2
-57 -7 -90 -10 -55 -6 -188 -24 -225 -31 -8 -1 -35 -6 -60 -10 -25 -4 -54 -9
-65 -12 -11 -2 -29 -5 -40 -7 -58 -9 -328 -81 -441 -118 -71 -23 -133 -43
-139 -44 -5 -1 -68 -25 -140 -54 -186 -74 -487 -225 -649 -325 -124 -76 -347
-229 -379 -258 -6 -7 -30 -25 -52 -42 -43 -32 -53 -40 -190 -162 -136 -120
-277 -265 -385 -393 -30 -36 -57 -67 -60 -70 -27 -24 -180 -233 -255 -345
-281 -424 -503 -928 -601 -1367 -2 -10 -6 -26 -8 -35 -11 -44 -35 -162 -40
-197 -4 -21 -8 -41 -10 -45 -2 -3 -7 -31 -10 -61 -3 -30 -8 -64 -10 -75 -2
-11 -7 -49 -11 -85 -4 -36 -9 -76 -10 -90 -30 -239 -23 -664 16 -955 6 -44 13
-93 15 -109 2 -15 5 -35 8 -45 3 -9 8 -36 11 -61 11 -80 56 -271 100 -425 80
-277 179 -523 331 -820 107 -210 160 -339 214 -522 27 -94 59 -243 66 -313 3
-30 7 -57 9 -60 5 -8 18 -225 18 -305 0 -72 -10 -233 -19 -295 -16 -113 -38
-222 -60 -303 -13 -50 -26 -99 -28 -107 -10 -37 -41 -123 -79 -215 -294 -725
-950 -1276 -1723 -1449 -60 -14 -129 -27 -154 -31 -25 -3 -56 -8 -70 -10 -36
-6 -120 -13 -235 -21 -55 -3 -107 -8 -115 -9 -8 -2 -44 -6 -80 -10 -36 -4 -74
-9 -85 -11 -11 -2 -38 -7 -60 -9 -34 -5 -94 -15 -234 -41 -59 -11 -337 -86
-427 -115 -345 -110 -727 -293 -1027 -491 -96 -63 -210 -143 -242 -169 -11 -9
-59 -48 -106 -86 -252 -200 -517 -474 -714 -738 -32 -44 -76 -103 -97 -131
-21 -28 -38 -54 -38 -58 0 -5 -13 -25 -28 -45 -82 -104 -246 -411 -367 -686
-19 -43 -77 -188 -80 -200 -1 -5 -5 -17 -8 -25 -24 -58 -109 -345 -122 -408
-1 -9 -8 -35 -13 -57 -6 -22 -13 -51 -16 -65 -2 -14 -11 -59 -19 -100 -17 -81
-33 -182 -42 -270 -4 -30 -8 -66 -11 -80 -18 -112 -25 -556 -11 -745 11 -152
22 -254 43 -380 22 -132 22 -134 28 -153 3 -9 7 -33 10 -52 9 -60 73 -300 111
-420 116 -359 280 -706 483 -1020 88 -136 231 -330 307 -417 5 -6 37 -43 70
-82 68 -79 319 -329 410 -407 498 -427 1098 -742 1718 -903 145 -38 307 -71
417 -86 25 -3 52 -8 60 -10 18 -5 102 -15 168 -21 26 -2 83 -7 127 -10 167
-15 581 -8 735 11 19 3 58 7 85 10 467 55 927 193 1370 410 257 127 427 230
664 402 246 179 549 469 749 717 104 128 241 314 262 356 7 14 16 27 20 30 20
15 164 271 250 445 186 379 288 690 375 1145 8 44 19 120 40 285 25 195 25
663 -1 875 -20 173 -32 253 -39 280 -2 8 -6 33 -10 55 -27 182 -145 605 -216
770 -7 17 -13 32 -14 35 -1 3 -5 14 -10 25 -4 11 -14 36 -22 55 -31 77 -62
144 -158 335 -118 236 -132 267 -180 404 -52 153 -93 321 -111 461 -3 25 -8
56 -11 70 -3 14 -6 120 -8 235 -3 201 8 349 35 480 6 28 12 59 14 70 2 11 12
49 21 85 143 560 484 1057 950 1386 151 107 363 223 490 269 28 10 55 22 60
26 9 7 220 73 268 85 39 9 64 14 92 20 17 2 46 9 65 14 19 5 62 12 94 16 33 3
67 7 76 9 10 2 57 6 106 9 106 8 196 15 244 21 76 9 198 26 220 30 13 3 42 7
64 11 22 3 43 7 46 9 3 2 26 6 50 10 142 21 498 125 700 205 58 23 115 44 128
47 12 3 22 9 22 14 0 5 7 9 15 9 8 0 23 4 33 9 9 5 80 41 158 78 117 58 223
116 339 186 175 106 396 269 585 432 57 49 351 346 401 405 204 241 339 435
513 740 87 151 228 471 294 665 35 101 99 313 106 347 2 13 18 86 35 163 65
303 85 508 86 870 0 307 -11 457 -50 700 -110 667 -387 1320 -792 1863 -239
320 -562 644 -863 863 -30 22 -62 46 -70 52 -55 44 -288 191 -415 262 -365
203 -811 369 -1205 449 -114 23 -123 24 -295 51 -22 3 -65 8 -95 11 -30 2 -65
6 -77 8 -36 7 -449 25 -456 20z"/>
<path d="M14777 8854 c-1 -1 -47 -4 -102 -8 -150 -9 -296 -23 -325 -31 -8 -2
-35 -6 -60 -9 -25 -3 -56 -8 -70 -11 -14 -3 -41 -8 -60 -11 -50 -8 -239 -52
-280 -64 -19 -6 -46 -13 -59 -16 -13 -3 -82 -24 -155 -48 -747 -247 -1412
-702 -1919 -1316 -94 -114 -96 -116 -127 -160 -13 -19 -30 -41 -38 -49 -29
-30 -223 -333 -289 -451 -182 -328 -335 -709 -419 -1040 -20 -79 -52 -224 -59
-265 -3 -16 -8 -37 -10 -45 -4 -14 -8 -41 -20 -127 -3 -21 -8 -49 -10 -63 -2
-14 -7 -52 -10 -85 -4 -33 -8 -71 -10 -85 -24 -166 -24 -750 0 -879 1 -9 6
-45 10 -81 14 -138 19 -168 56 -354 159 -794 525 -1488 1080 -2047 306 -307
648 -553 1046 -752 140 -70 401 -181 488 -206 22 -7 49 -16 60 -21 68 -30 405
-117 560 -145 117 -22 248 -41 330 -50 33 -4 71 -8 84 -10 60 -10 314 -20 491
-19 202 0 372 10 505 29 17 2 53 7 80 11 28 3 57 7 65 9 8 1 35 6 60 10 153
25 341 68 490 112 30 9 60 18 65 19 14 3 166 54 190 64 11 4 70 27 130 51 158
61 361 156 495 233 25 14 52 29 60 33 34 15 262 160 352 225 414 293 780 663
1063 1076 87 126 220 352 289 489 195 390 337 857 391 1283 4 30 9 63 11 74
25 133 24 666 -1 871 -6 48 -24 182 -29 210 -11 65 -19 108 -33 172 -8 40 -14
74 -13 75 1 2 -3 16 -9 31 -6 15 -13 41 -16 56 -11 61 -78 280 -127 410 -150
403 -341 755 -600 1103 -130 174 -230 291 -383 448 -132 136 -208 207 -325
305 -52 44 -97 83 -100 86 -3 3 -57 44 -120 91 -491 363 -983 600 -1553 747
-119 31 -341 75 -432 85 -27 4 -66 8 -85 11 -130 18 -286 27 -463 29 -76 0
-139 0 -140 0z"/>
</g>
</svg>
