<?xml version="1.0" encoding="UTF-8" standalone="no"?>
<svg
   width="514pt"
   height="770pt"
   viewBox="0 0 514 770"
   version="1.1"
   id="svg382"
   sodipodi:docname="feature1.svg"
   inkscape:version="1.1.2 (0a00cf5339, 2022-02-04)"
   xmlns:inkscape="http://www.inkscape.org/namespaces/inkscape"
   xmlns:sodipodi="http://sodipodi.sourceforge.net/DTD/sodipodi-0.dtd"
   xmlns="http://www.w3.org/2000/svg"
   xmlns:svg="http://www.w3.org/2000/svg">
  <defs
     id="defs386" />
  <sodipodi:namedview
     id="namedview384"
     pagecolor="#ffffff"
     bordercolor="#666666"
     borderopacity="1.0"
     inkscape:pageshadow="2"
     inkscape:pageopacity="0.0"
     inkscape:pagecheckerboard="0"
     inkscape:document-units="pt"
     showgrid="false"
     inkscape:zoom="0.5613234"
     inkscape:cx="-179.04117"
     inkscape:cy="476.55237"
     inkscape:window-width="1920"
     inkscape:window-height="1019"
     inkscape:window-x="0"
     inkscape:window-y="0"
     inkscape:window-maximized="1"
     inkscape:current-layer="svg382" />
  <g
     id="g3307">
    <rect
       style="fill:#ffffff;fill-opacity:1;stroke:#ffffff;stroke-width:0.720705;stroke-miterlimit:4;stroke-dasharray:none;stroke-opacity:1"
       id="rect2508"
       width="479.43649"
       height="634.64099"
       x="5.8908272"
       y="5.8380351" />
    <g
       id="#1e81ceff"
       transform="matrix(0.6679718,0,0,0.6679718,81.017852,65.611525)">
      <path
         fill="#1e81ce"
         opacity="1"
         d="m 237.65,12.44 c 2.63,-3.21 5.98,-6.14 10.29,-6.58 5.02,-0.33 10.08,-0.21 15.11,-0.07 9.47,0.62 17.69,8.77 18.3,18.25 0.27,8.87 -0.02,17.74 0.13,26.61 3.6,3.93 4.01,10.46 0.92,14.79 -2.19,2.99 -6.09,3.35 -9.49,3.26 -0.15,6.33 -2.46,12.67 -6.88,17.27 -2.85,2.15 -1.42,5.97 -1.72,9.01 7.64,1.98 15.34,3.78 22.98,5.81 6.93,1.93 12.95,6.45 17.16,12.24 6.87,-3.43 14.71,-5.36 22.39,-3.95 11.86,1.77 22.38,10.28 26.63,21.49 4.77,12.03 1.96,26.6 -7.02,35.94 -6.49,6.93 -15.94,10.92 -25.44,10.81 -44.34,-0.02 -88.68,0 -133.02,-0.01 -1.95,0.31 -4.05,-1.12 -3.7,-3.25 -0.05,-14.71 -0.04,-29.43 0,-44.14 0.13,-13.28 9.86,-25.72 22.68,-29.13 7.62,-1.97 15.26,-3.87 22.92,-5.72 0.01,-2.4 0.03,-4.8 0.04,-7.2 -5.26,-4.96 -8.52,-11.92 -8.61,-19.18 -3.72,0.25 -7.98,-0.54 -10.01,-4.04 -2.35,-4.3 -2.01,-10.23 1.42,-13.87 0.15,-8.61 -0.08,-17.23 0.1,-25.83 0.26,-6.21 5.05,-11.79 11.08,-13.16 4.56,-0.69 9.27,-0.56 13.74,0.65 m 6.3,1.51 c -2.55,2.14 -2,5.86 -3.66,8.47 -3.4,1.85 -4.54,-1.98 -5.45,-4.42 -2.28,-1.46 -5.31,-0.68 -7.89,-0.77 -4.65,-0.15 -8.67,4.23 -8.41,8.82 -0.07,7.52 0.03,15.04 -0.02,22.56 0.72,0 2.17,0 2.9,0 0.01,-3.18 -0.15,-6.36 0.07,-9.54 0.3,-4.23 4.3,-7.73 8.52,-7.59 11.36,-0.04 22.73,-0.04 34.09,0 3.69,-0.15 7.24,2.43 8.35,5.93 0.7,3.59 0.3,7.29 0.3,10.93 0.97,0.15 1.95,0.27 2.94,0.37 -0.02,-7.56 0.04,-15.13 -0.01,-22.69 0.21,-5.34 -2.92,-10.6 -7.71,-12.99 -3.97,-2.19 -8.65,-1.46 -12.99,-1.61 -3.76,0.05 -8.21,-0.57 -11.03,2.53 m -14.83,23.42 c -1.72,0.22 -2.05,2.19 -1.96,3.6 0.03,9.68 -0.08,19.35 0.06,29.03 0.34,9.81 9.08,18.34 18.87,18.6 8.14,0.56 16.26,-4.5 19.4,-12.02 2.34,-5.2 1.61,-11.02 1.71,-16.55 -0.08,-6.78 0.14,-13.57 -0.08,-20.34 -0.26,-2.67 -3.18,-2.54 -5.18,-2.5 -10.94,0.16 -21.9,-0.2 -32.82,0.18 m 43.62,17.11 c 0.06,2.83 0.08,5.65 0.1,8.48 1.84,-0.34 4.53,0.42 5.51,-1.69 0.39,-1.79 0.43,-3.71 -0.1,-5.48 -1.14,-2 -3.64,-1.28 -5.51,-1.31 m -56.89,1.59 c -0.34,1.6 -0.35,3.28 -0.05,4.89 0.76,2.41 3.68,1.68 5.58,2.08 0.03,-2.95 0.04,-5.9 0.03,-8.85 -1.92,0.4 -4.58,-0.34 -5.56,1.88 m 19.81,35.62 c -0.02,0.95 -0.04,2.85 -0.05,3.8 3.79,2.39 7.69,4.6 11.47,7.01 3.81,-2.31 7.64,-4.6 11.47,-6.88 0.01,-1.3 0.02,-2.6 0.04,-3.9 -7.18,3.48 -15.77,3.49 -22.93,-0.03 m -9.63,10.17 c 2.49,3.75 4.88,7.57 7.61,11.16 2.8,-2.34 5.64,-4.62 8.47,-6.92 -3.38,-1.8 -6.42,-4.26 -10,-5.65 -2.07,0.28 -4.07,0.89 -6.08,1.41 m 26.09,4.25 c 2.86,2.34 5.74,4.66 8.67,6.91 2.45,-3.73 5.07,-7.34 7.3,-11.2 -2.06,-0.51 -4.12,-1.03 -6.17,-1.54 -3.27,1.95 -6.53,3.9 -9.8,5.83 m -31.59,-1.96 c 3.3,14.97 6.25,30.02 9.41,45.03 1.12,5.68 2.52,11.32 3.23,17.09 1.31,-6.16 1.25,-12.48 2.01,-18.71 0.76,-10.19 1.8,-20.35 2.54,-30.53 -1.84,1.3 -4.52,4.4 -6.82,2.18 -3.73,-4.83 -6.67,-10.21 -10.37,-15.06 m 42.72,15.22 c -2.48,1.9 -4.91,-1.08 -6.78,-2.41 1.48,16.37 2.7,32.77 4.35,49.13 4.26,-20.65 8.6,-41.29 12.78,-61.96 -3.53,5.03 -6.64,10.35 -10.35,15.24 m -63.47,-8.63 c -6.5,4.95 -10.06,13.15 -9.89,21.26 0.03,13.19 -0.12,26.38 0.09,39.57 6.64,-0.02 13.28,-0.01 19.93,-0.01 -0.03,-9.86 -0.02,-19.72 -0.03,-29.58 0.04,-1.67 0.07,-4.34 2.24,-4.6 1.73,-0.56 3.7,0.91 3.47,2.76 0.15,10.45 0.03,20.91 0.03,31.36 4.38,0.09 8.75,0.08 13.12,0.04 -4.64,-22.2 -9.27,-44.41 -13.76,-66.64 -5.42,0.76 -10.88,2.35 -15.2,5.84 m 79.54,-5.85 c -4.61,22.21 -9.1,44.45 -13.84,66.63 4.37,0.05 8.73,0.05 13.1,0.03 0.05,-10.52 -0.14,-21.05 0.07,-31.57 -0.22,-3.54 5.74,-3.51 5.59,-0.02 0.21,10.53 0.02,21.07 0.07,31.59 6.03,0 12.06,0.06 18.09,-0.05 -9.62,-6.42 -15.71,-17.87 -15.18,-29.49 0.04,-9.98 5.17,-19.37 12.6,-25.83 -4.88,-6.48 -12.47,-10.47 -20.5,-11.29 m -35.45,7.17 c -0.08,1.39 -0.15,2.77 -0.23,4.16 2.3,0.64 4.67,0.61 6.96,-0.01 -0.09,-1.39 -0.18,-2.77 -0.26,-4.16 -1.09,-0.87 -2.17,-1.75 -3.25,-2.63 -1.07,0.88 -2.15,1.76 -3.22,2.64 m 71.27,3.01 c -9.95,2.2 -18.4,10.08 -21.13,19.92 -3.95,12.54 2.28,27.21 13.97,33.19 11.69,6.6 27.69,3.22 35.84,-7.4 7.44,-9.07 8.33,-22.83 2.04,-32.75 -6.1,-10.3 -19.09,-15.75 -30.72,-12.96 M 243,122.15 c -1.34,16.47 -2.74,32.93 -4.24,49.38 5.58,0.05 11.15,0.04 16.73,0.02 -1.53,-16.49 -2.83,-33 -4.33,-49.5 -2.68,0.83 -5.47,0.78 -8.16,0.1 z"
         id="path283" />
      <path
         fill="#1e81ce"
         opacity="1"
         d="m 237.17,72.05 c 1.57,-1.38 3.22,0.43 4.57,1.18 3.04,2.36 7.56,2.46 10.62,0.09 1.19,-0.59 2.12,-1.97 3.59,-1.78 2.02,-0.06 3.6,2.89 2.08,4.39 -5.33,6.42 -16.56,6.4 -21.82,-0.08 -1.08,-1.23 -0.22,-3.03 0.96,-3.8 z"
         id="path285" />
      <path
         fill="#1e81ce"
         opacity="1"
         d="m 316.06,121.05 c 1.37,-4.63 8.53,-5.12 10.5,-0.71 1.76,2.77 -0.07,5.85 -2.2,7.74 0,1.32 0.01,2.65 0.02,3.98 1.09,0.31 2.17,0.63 3.26,0.94 2.08,-1.67 2.45,-4.19 2.91,-6.65 1.76,-4.62 9.4,-4.1 10.59,0.72 1.59,4.31 -2.93,8.31 -7.11,7.46 -0.93,0.88 -1.86,1.77 -2.77,2.66 0.48,1 0.96,2 1.44,3.01 0.86,-0.02 2.58,-0.05 3.44,-0.07 2,-2.12 5.09,-3.88 7.96,-2.24 3.84,1.75 4.24,7.62 0.59,9.8 -2.86,2.19 -6.39,0.43 -8.52,-1.86 -0.87,-0.02 -2.63,-0.06 -3.5,-0.08 -0.48,1.05 -0.95,2.11 -1.43,3.16 1.38,1.22 2.71,2.8 4.75,2.66 3.94,-0.09 6.8,4.78 4.72,8.16 -1.46,3.37 -6.45,4.13 -8.98,1.55 -1.81,-1.45 -1.6,-3.96 -2.01,-6.01 -0.72,-0.75 -1.43,-1.5 -2.14,-2.25 -1.09,0.28 -2.16,0.59 -3.24,0.89 0.01,1.34 0.04,2.69 0.08,4.04 2.16,1.84 3.87,4.98 2.11,7.7 -1.86,4.03 -8.27,4.03 -10.13,-0.01 -1.56,-2.37 -0.35,-5.15 1.39,-7 1.33,-1.26 0.64,-3.21 0.78,-4.82 -1.09,-0.26 -2.17,-0.53 -3.24,-0.81 -0.8,0.9 -1.59,1.81 -2.38,2.72 0.43,3.18 -1.46,6.75 -4.89,7.04 -4.45,0.92 -8.27,-4.65 -5.73,-8.43 1.23,-2.49 4.15,-2.99 6.65,-2.96 0.88,-0.84 1.77,-1.67 2.66,-2.5 -0.46,-1.04 -0.91,-2.08 -1.35,-3.12 -0.87,0.01 -2.63,0.04 -3.51,0.06 -1.67,1.38 -3.42,3.23 -5.81,2.83 -4.51,-0.13 -7.1,-6.26 -3.82,-9.47 2.66,-3.17 7.33,-1.91 9.66,0.96 0.87,0.01 2.6,0.04 3.47,0.06 0.47,-1.08 0.94,-2.15 1.43,-3.21 -1.68,-2.04 -4.03,-2.77 -6.57,-2.92 -5.1,-1.72 -4.4,-9.98 0.91,-10.79 4.14,-1.09 7.64,2.95 6.91,6.94 0.8,0.93 1.61,1.85 2.44,2.77 1.08,-0.34 2.17,-0.68 3.27,-1.03 1.42,-4.33 -4.56,-6.67 -2.61,-10.91 m 3.36,16.57 c -3.61,1.26 -5.04,6.36 -2.23,9.12 2.64,3.32 8.4,2.11 9.68,-1.87 1.87,-4.29 -3.2,-9.13 -7.45,-7.25 z"
         id="path287" />
    </g>
    <g
       id="#9bc9ffff"
       transform="matrix(0.6679718,0,0,0.6679718,81.017852,65.611525)">
      <path
         fill="#9bc9ff"
         opacity="1"
         d="m 243.95,13.95 c 2.82,-3.1 7.27,-2.48 11.03,-2.53 4.34,0.15 9.02,-0.58 12.99,1.61 4.79,2.39 7.92,7.65 7.71,12.99 0.05,7.56 -0.01,15.13 0.01,22.69 -0.99,-0.1 -1.97,-0.22 -2.94,-0.37 0,-3.64 0.4,-7.34 -0.3,-10.93 -1.11,-3.5 -4.66,-6.08 -8.35,-5.93 -11.36,-0.04 -22.73,-0.04 -34.09,0 -4.22,-0.14 -8.22,3.36 -8.52,7.59 -0.22,3.18 -0.06,6.36 -0.07,9.54 -0.73,0 -2.18,0 -2.9,0 0.05,-7.52 -0.05,-15.04 0.02,-22.56 -0.26,-4.59 3.76,-8.97 8.41,-8.82 2.58,0.09 5.61,-0.69 7.89,0.77 0.91,2.44 2.05,6.27 5.45,4.42 1.66,-2.61 1.11,-6.33 3.66,-8.47 z"
         id="path290" />
      <path
         fill="#9bc9ff"
         opacity="1"
         d="m 215.85,56.07 c 0.98,-2.22 3.64,-1.48 5.56,-1.88 0.01,2.95 0,5.9 -0.03,8.85 -1.9,-0.4 -4.82,0.33 -5.58,-2.08 -0.3,-1.61 -0.29,-3.29 0.05,-4.89 z"
         id="path292" />
      <path
         fill="#9bc9ff"
         opacity="1"
         d="m 226.03,101.86 c 2.01,-0.52 4.01,-1.13 6.08,-1.41 3.58,1.39 6.62,3.85 10,5.65 -2.83,2.3 -5.67,4.58 -8.47,6.92 -2.73,-3.59 -5.12,-7.41 -7.61,-11.16 z"
         id="path294" />
      <path
         fill="#9bc9ff"
         opacity="1"
         d="m 252.12,106.11 c 3.27,-1.93 6.53,-3.88 9.8,-5.83 2.05,0.51 4.11,1.03 6.17,1.54 -2.23,3.86 -4.85,7.47 -7.3,11.2 -2.93,-2.25 -5.81,-4.57 -8.67,-6.91 z"
         id="path296" />
      <path
         fill="#9bc9ff"
         opacity="1"
         d="m 199.78,110.74 c 4.32,-3.49 9.78,-5.08 15.2,-5.84 4.49,22.23 9.12,44.44 13.76,66.64 -4.37,0.04 -8.74,0.05 -13.12,-0.04 0,-10.45 0.12,-20.91 -0.03,-31.36 0.23,-1.85 -1.74,-3.32 -3.47,-2.76 -2.17,0.26 -2.2,2.93 -2.24,4.6 0.01,9.86 0,19.72 0.03,29.58 -6.65,0 -13.29,-0.01 -19.93,0.01 -0.21,-13.19 -0.06,-26.38 -0.09,-39.57 -0.17,-8.11 3.39,-16.31 9.89,-21.26 z"
         id="path298" />
      <path
         fill="#9bc9ff"
         opacity="1"
         d="m 279.32,104.89 c 8.03,0.82 15.62,4.81 20.5,11.29 -7.43,6.46 -12.56,15.85 -12.6,25.83 -0.53,11.62 5.56,23.07 15.18,29.49 -6.03,0.11 -12.06,0.05 -18.09,0.05 -0.05,-10.52 0.14,-21.06 -0.07,-31.59 0.15,-3.49 -5.81,-3.52 -5.59,0.02 -0.21,10.52 -0.02,21.05 -0.07,31.57 -4.37,0.02 -8.73,0.02 -13.1,-0.03 4.74,-22.18 9.23,-44.42 13.84,-66.63 z"
         id="path300" />
      <path
         fill="#9bc9ff"
         opacity="1"
         d="m 243.87,112.06 c 1.07,-0.88 2.15,-1.76 3.22,-2.64 1.08,0.88 2.16,1.76 3.25,2.63 0.08,1.39 0.17,2.77 0.26,4.16 -2.29,0.62 -4.66,0.65 -6.96,0.01 0.08,-1.39 0.15,-2.77 0.23,-4.16 z"
         id="path302" />
      <path
         fill="#9bc9ff"
         opacity="1"
         d="m 243,122.15 c 2.69,0.68 5.48,0.73 8.16,-0.1 1.5,16.5 2.8,33.01 4.33,49.5 -5.58,0.02 -11.15,0.03 -16.73,-0.02 1.5,-16.45 2.9,-32.91 4.24,-49.38 z"
         id="path304" />
      <path
         fill="#9bc9ff"
         opacity="1"
         d="m 319.42,137.62 c 4.25,-1.88 9.32,2.96 7.45,7.25 -1.28,3.98 -7.04,5.19 -9.68,1.87 -2.81,-2.76 -1.38,-7.86 2.23,-9.12 z"
         id="path306" />
    </g>
    <g
       id="#1e82cfff"
       transform="matrix(0.6679718,0,0,0.6679718,81.017852,65.611525)">
      <path
         fill="#1e82cf"
         opacity="1"
         d="m 236.44,49.54 c 1.41,-1.84 4.51,-0.87 4.91,1.31 0.28,2.32 0.55,5.6 -2.29,6.43 -3.99,0.18 -4.27,-5.28 -2.62,-7.74 z"
         id="path309" />
      <path
         fill="#1e82cf"
         opacity="1"
         d="m 256.08,57.66 c -4.04,-0.87 -4.72,-7.26 -1.17,-9.05 4.92,-0.53 4.89,7.41 1.17,9.05 z"
         id="path311" />
    </g>
    <g
       id="#9ccaffff"
       transform="matrix(0.6679718,0,0,0.6679718,81.017852,65.611525)">
      <path
         fill="#9ccaff"
         opacity="1"
         d="m 272.74,54.48 c 1.87,0.03 4.37,-0.69 5.51,1.31 0.53,1.77 0.49,3.69 0.1,5.48 -0.98,2.11 -3.67,1.35 -5.51,1.69 -0.02,-2.83 -0.04,-5.65 -0.1,-8.48 z"
         id="path314" />
    </g>
    <g
       id="#eb008bff"
       transform="matrix(0.6679718,0,0,0.6679718,81.017852,65.611525)">
      <path
         fill="#eb008b"
         opacity="1"
         d="m 391.11,197.43 c 30.34,-0.03 60.68,0.01 91.02,-0.02 0.05,56.46 0,112.92 0.02,169.38 -30.34,-0.01 -60.68,0.01 -91.02,0 0.03,-56.46 0.07,-112.91 -0.02,-169.36 m 6.53,6.43 c -0.03,6.54 0.01,13.07 -0.03,19.61 26.02,0.01 52.04,0.02 78.06,0 -0.1,-6.55 0.06,-13.09 -0.1,-19.63 -25.98,0.07 -51.96,0.01 -77.93,0.02 m 0.01,26.03 c -0.05,6.55 0,13.09 -0.04,19.64 26.02,0.01 52.04,0.01 78.05,0 -0.06,-6.53 0,-13.06 -0.04,-19.59 -25.99,-0.1 -51.98,0.01 -77.97,-0.05 m -0.02,26.24 c -0.01,6.49 0.01,12.98 -0.02,19.46 26.02,0 52.03,0.01 78.05,0 -0.04,-6.48 -0.03,-12.97 -0.01,-19.45 -26.01,-0.01 -52.02,0 -78.02,-0.01 m -0.01,26.05 c 0.01,26.05 0.02,52.1 0,78.16 26.01,-0.02 52.02,-0.02 78.03,0 -0.02,-26.05 -0.03,-52.1 0,-78.15 -26.01,-0.02 -52.02,0 -78.03,-0.01 z"
         id="path317" />
      <path
         fill="#eb008b"
         opacity="1"
         d="m 182,220.98 c -0.42,-7.44 6.47,-14.43 13.96,-13.98 40.32,-0.01 80.65,0.03 120.98,-0.02 3.85,-0.12 8.11,0.24 11.09,2.97 2.4,2.77 4.01,6.35 3.96,10.07 0.03,29.66 -0.01,59.32 0.02,88.98 0.19,3.99 -1.36,7.95 -3.98,10.92 -2.49,2.12 -5.82,2.95 -9.04,2.82 -41.35,-0.03 -82.71,0.02 -124.06,-0.02 -4.81,0.28 -8.59,-3.03 -11.5,-6.45 -2.06,-4.5 -1.31,-9.52 -1.44,-14.3 0.12,-3.11 -0.52,-6.41 0.93,-9.3 45.36,-0.24 90.72,-0.04 136.08,-0.1 2.93,-0.84 5.03,3.34 2.14,4.81 -2.37,0.39 -4.78,0.17 -7.16,0.22 -42.16,-0.03 -84.33,0 -126.49,-0.02 0.07,4.45 -0.11,8.9 0.06,13.35 0.12,3.78 3.63,6.94 7.4,6.76 41.68,0.04 83.36,0.03 125.04,0 4.15,0.25 7.81,-3.55 7.51,-7.68 0.01,-30.03 0,-60.05 0,-90.08 0.28,-4.07 -3.27,-8.05 -7.44,-7.8 -41.7,-0.05 -83.41,-0.05 -125.12,0 -4.15,-0.19 -7.4,3.84 -7.42,7.77 -0.1,21.71 0.07,43.43 -0.07,65.14 0.28,3.32 -5.59,3.34 -5.39,0.02 -0.14,-21.35 -0.02,-42.72 -0.06,-64.08 z"
         id="path319" />
      <path
         fill="#eb008b"
         opacity="1"
         d="m 46.24,210.3 c 19.57,-0.18 39.16,-0.08 58.73,-0.06 6.98,0.02 12.67,6.9 11.88,13.75 -0.04,39.35 0.01,78.71 -0.02,118.06 0.38,6.5 -5.29,12.65 -11.81,12.71 -19.02,0.09 -38.05,0.02 -57.08,0.04 -6.87,0.41 -13.21,-5.9 -12.77,-12.78 -0.01,-39.69 -0.01,-79.38 0,-119.06 -0.37,-6.25 4.85,-12.2 11.07,-12.66 m -4.81,12.58 c -0.1,4.16 0.01,8.31 -0.03,12.47 23.07,-0.01 46.13,-0.01 69.2,0 -0.07,-4.47 0.14,-8.94 -0.09,-13.4 -0.21,-3.17 -3.36,-5.74 -6.49,-5.49 -18.69,-0.02 -37.38,-0.02 -56.07,0 -3.49,-0.27 -6.79,2.91 -6.52,6.42 m -0.04,100.54 c 23.07,0 46.15,-0.01 69.22,0 -0.03,-27.28 -0.03,-54.56 0,-81.83 -23.07,0.01 -46.15,0 -69.22,0 0.03,27.27 0.03,54.55 0,81.83 m 0.04,18.71 c -0.26,3.53 3.08,6.72 6.59,6.42 18.66,0.02 37.34,0.02 56.01,0 3.5,0.28 6.82,-2.93 6.54,-6.46 0.1,-4.15 -0.01,-8.29 0.03,-12.43 -23.07,0.01 -46.13,0.01 -69.2,0 0.04,4.15 -0.07,8.31 0.03,12.47 z"
         id="path321" />
      <path
         fill="#eb008b"
         opacity="1"
         d="m 65.09,223.12 c 6.17,-0.97 12.63,-0.15 18.92,-0.43 2.57,-0.57 5.47,1.63 4.44,4.4 -1.21,2.42 -4.26,1.95 -6.5,2.05 -5.32,-0.18 -10.67,0.29 -15.96,-0.25 -2.9,-0.21 -3.57,-4.64 -0.9,-5.77 z"
         id="path323" />
      <path
         fill="#eb008b"
         opacity="1"
         d="m 52.38,251.5 c 3,-0.67 6.22,-0.53 9.27,-0.1 2.21,0.89 1.71,3.66 1.83,5.58 -0.13,2.2 0.55,5.32 -1.99,6.41 -2.94,0.37 -6,0.46 -8.92,-0.07 -2.31,-1.19 -1.72,-4.21 -1.83,-6.35 0.09,-1.84 -0.28,-4.44 1.64,-5.47 z"
         id="path325" />
      <path
         fill="#eb008b"
         opacity="1"
         d="m 71.32,251.45 c 2.8,-0.6 5.73,-0.4 8.57,-0.19 2.28,0.2 2.58,2.93 2.46,4.75 -0.18,2.44 0.81,5.93 -1.86,7.34 -2.96,0.45 -6.06,0.47 -9.01,-0.02 -2.36,-1.19 -1.75,-4.2 -1.85,-6.36 0.1,-1.9 -0.34,-4.46 1.69,-5.52 z"
         id="path327" />
      <path
         fill="#eb008b"
         opacity="1"
         d="m 90.35,251.4 c 3.05,-0.42 6.3,-0.59 9.31,0.11 2.57,1.92 1.31,5.78 1.53,8.55 0.22,2.31 -1.92,3.96 -4.11,3.56 -2.78,-0.25 -7.55,1.21 -8.4,-2.56 0.19,-3.11 -1.4,-7.67 1.67,-9.66 z"
         id="path329" />
      <path
         fill="#eb008b"
         opacity="1"
         d="m 52.37,273.52 c 2.99,-0.72 6.22,-0.56 9.25,-0.12 2.25,0.91 1.75,3.69 1.86,5.64 -0.12,2.2 0.55,5.4 -2.09,6.39 -2.93,0.33 -5.99,0.46 -8.9,-0.12 -2.22,-1.23 -1.64,-4.19 -1.75,-6.3 0.08,-1.86 -0.29,-4.43 1.63,-5.49 z"
         id="path331" />
      <path
         fill="#eb008b"
         opacity="1"
         d="m 71.38,273.45 c 2.98,-0.57 6.14,-0.53 9.14,-0.04 2.95,1.72 1.51,5.84 1.79,8.66 0.29,2.39 -2.07,3.98 -4.26,3.57 -2.75,-0.26 -7.15,1.16 -8.26,-2.37 0.21,-3.18 -1.41,-7.64 1.59,-9.82 z"
         id="path333" />
      <path
         fill="#eb008b"
         opacity="1"
         d="m 90.4,273.39 c 3.19,-0.3 6.82,-0.91 9.79,0.48 1.83,2.67 0.89,6.23 0.9,9.27 -0.88,3.66 -5.42,2.24 -8.13,2.51 -2.23,0.4 -4.74,-1.13 -4.37,-3.63 0.27,-2.81 -1.18,-6.97 1.81,-8.63 z"
         id="path335" />
      <path
         fill="#eb008b"
         opacity="1"
         d="m 404.13,288.63 c 21.68,-0.01 43.35,-0.01 65.02,0 0,15.21 0,30.43 0,45.64 -21.67,0.01 -43.34,0 -65.01,0.01 0.02,-15.22 0.04,-30.44 -0.01,-45.65 m 6.51,6.56 c -0.02,4.35 -0.02,8.7 0,13.05 17.32,-0.01 34.65,-0.01 51.98,0.01 0.02,-4.35 0.01,-8.69 0.03,-13.03 -17.34,-0.03 -34.67,0.02 -52.01,-0.03 m -0.02,19.49 c 0.01,4.33 0.02,8.67 -0.02,13.01 17.35,0.05 34.7,0.01 52.05,0.02 -0.02,-4.35 -0.02,-8.69 -0.01,-13.04 -17.34,0.01 -34.68,0.01 -52.02,0.01 z"
         id="path337" />
      <path
         fill="#eb008b"
         opacity="1"
         d="m 53.23,295.29 c 2.78,-0.23 5.64,-0.34 8.4,0.14 2.23,0.9 1.74,3.67 1.85,5.61 -0.14,2.21 0.56,5.4 -2.07,6.4 -2.93,0.34 -5.98,0.46 -8.89,-0.11 -2.26,-1.18 -1.66,-4.22 -1.78,-6.33 0,-2.02 -0.2,-5.38 2.49,-5.71 z"
         id="path339" />
      <path
         fill="#eb008b"
         opacity="1"
         d="m 71.36,295.47 c 3.15,-0.43 6.61,-0.74 9.69,0.2 2.3,2.55 1.03,6.45 1.17,9.58 -1.31,3.83 -6.25,2.06 -9.27,2.36 -2.51,0.25 -3.66,-2.56 -3.3,-4.66 0.23,-2.48 -0.86,-5.92 1.71,-7.48 z"
         id="path341" />
      <path
         fill="#eb008b"
         opacity="1"
         d="m 255.25,303.19 c 3.2,-1.95 7.72,1.13 7.26,4.8 -0.04,3.86 -5.3,6.3 -8.16,3.55 -2.86,-2.05 -2.31,-6.94 0.9,-8.35 z"
         id="path343" />
      <path
         fill="#eb008b"
         opacity="1"
         d="m 242.54,330.95 c -0.27,-1.8 1.36,-2.75 2.45,-3.83 0.54,0.51 1.61,1.53 2.14,2.04 0.84,4.5 0.19,9.14 0.35,13.7 4.23,0.06 8.48,-0.24 12.7,0.14 1.86,-0.03 3.17,2.35 1.9,3.79 -0.74,1.45 -2.74,0.87 -4.04,1.11 -7.73,0.09 -15.47,-0.23 -23.19,0.09 -3.13,0.04 -5.2,2.61 -7.11,4.72 19.78,0.46 39.59,0.05 59.38,0.22 -1.43,-1.85 -2.86,-4.03 -5.28,-4.63 -3.21,-0.81 -6.56,-0.28 -9.83,-0.41 -1.45,-0.19 -4.33,0.38 -4.34,-1.84 -0.38,-5.02 -0.18,-10.08 -0.12,-15.11 -0.28,-1.8 1.36,-2.75 2.45,-3.81 0.54,0.51 1.6,1.53 2.13,2.04 0.84,4.49 0.19,9.12 0.36,13.67 3.93,0.08 8.04,-0.43 11.81,0.96 4.74,2 8.47,6.96 8.14,12.22 -0.14,1.62 -2.08,2.01 -3.39,1.96 -9.68,0.08 -19.37,-0.02 -29.05,0.02 -0.08,16.04 0.12,32.08 0.13,48.12 1.99,-1.33 3.99,-2.66 5.99,-3.99 -2.51,4.99 -4.96,10 -7.52,14.97 -0.45,0.87 -0.91,1.76 -1.36,2.64 -0.36,-0.64 -1.08,-1.94 -1.44,-2.58 -2.58,-4.97 -5,-10.02 -7.53,-15.01 1.95,1.29 3.9,2.59 5.85,3.88 0,-16.01 -0.21,-32.02 -0.12,-48.03 -9.96,-0.16 -19.95,0.32 -29.89,-0.22 -3.45,-2.12 -0.74,-7.07 1.02,-9.62 3.85,-5.73 11.26,-5.6 17.39,-5.32 0.02,-3.96 -0.16,-7.93 0.02,-11.89 z"
         id="path345" />
      <path
         fill="#eb008b"
         opacity="1"
         d="m 73.3,333.44 c 3.87,-2.11 9.05,1.16 9.04,5.5 0.31,4.86 -5.85,8.4 -9.81,5.43 -4.07,-2.42 -3.61,-9.12 0.77,-10.93 z"
         id="path347" />
      <path
         fill="#eb008b"
         opacity="1"
         d="m 460.25,341.24 c 4.69,-2.3 10.43,3.1 8.58,7.93 -1.09,4.28 -6.9,6.09 -10.24,3.2 -3.91,-2.81 -2.9,-9.58 1.66,-11.13 z"
         id="path349" />
      <path
         fill="#eb008b"
         opacity="1"
         d="m 72,358 c 2,0 4,0 6,0 0,23.58 0,47.17 0,70.75 50.99,-0.01 101.97,0.01 152.96,-0.01 -1.29,-1.94 -2.59,-3.87 -3.87,-5.81 5.01,2.5 10.03,4.96 15.02,7.51 0.64,0.36 1.94,1.07 2.58,1.42 -0.63,0.35 -1.9,1.05 -2.54,1.41 -4.99,2.58 -10.06,5.02 -15.07,7.56 1.34,-2.03 2.69,-4.05 4.04,-6.08 -52.05,-0.05 -104.11,0.07 -156.15,-0.06 -2.57,0.26 -3.11,-2.67 -2.97,-4.6 0,-24.03 0,-48.06 0,-72.09 z"
         id="path351" />
      <path
         fill="#eb008b"
         opacity="1"
         d="m 436,369 c 2,0 3.99,0 6,0 -0.08,21.01 0.15,42.03 -0.11,63.03 0.02,2.53 -2.9,2.78 -4.78,2.72 -51.34,-0.02 -102.68,0.01 -154.02,-0.01 1.31,1.99 2.63,3.98 3.95,5.97 -4.95,-2.51 -9.95,-4.92 -14.87,-7.48 -1,-0.54 -2.01,-1.07 -3,-1.6 0.76,-0.38 2.28,-1.15 3.04,-1.54 4.93,-2.47 9.86,-4.95 14.81,-7.38 -1.34,2.01 -2.68,4.02 -4.02,6.04 51,0.01 102,-0.01 153,0 0,-19.91 0,-39.83 0,-59.75 z"
         id="path353" />
      <path
         fill="#eb008b"
         opacity="1"
         d="m 184.39,504.59 c 4.78,-1.74 10.68,0.65 12.41,5.54 2.53,5.59 -1.69,12.73 -7.8,13.22 -3.39,0.06 -6.74,3.17 -5.67,6.73 1.4,3.57 2.55,7.87 0.18,11.32 -2.92,5.15 -10.72,6.09 -14.91,2.01 -4.12,-3.73 -4.08,-10.95 0.29,-14.48 2.68,-3.03 7.81,-1.32 10.08,-4.83 1.77,-2.28 0.48,-5.12 -0.37,-7.47 -1.75,-4.76 1.1,-10.36 5.79,-12.04 z"
         id="path355" />
    </g>
    <g
       id="#90278eff"
       transform="matrix(0.6679718,0,0,0.6679718,81.017852,65.611525)">
      <path
         fill="#90278e"
         opacity="1"
         d="m 257.24,419.74 c 0.45,-0.88 0.91,-1.77 1.36,-2.64 3.23,0.85 6.61,1.82 9.03,4.27 2.56,2.24 3.55,5.6 4.58,8.72 -0.76,0.39 -2.28,1.16 -3.04,1.54 0.99,0.53 2,1.06 3,1.6 -1.07,6.33 -5.92,11.36 -12.15,12.82 -0.04,11.07 -0.01,22.13 -0.02,33.2 29.67,0 59.33,0.02 89,-0.01 9.74,-0.7 18.58,7.99 18,17.75 0.02,18.34 -0.03,36.67 0.02,55 1.08,9.73 -7.01,19.36 -16.99,19.01 -29.97,0.01 -59.94,-0.01 -89.91,0 0,16 0.01,32 0,47.99 2.91,0 5.81,0.01 8.72,0.03 8.05,8.01 15.99,16.12 24.05,24.12 0.96,1.07 2.28,2.14 2.12,3.76 -0.11,12.78 -0.05,25.56 -0.07,38.33 16.39,1.95 31.9,14.07 35.4,30.57 3.04,10.27 1.52,21.35 -2.51,31.12 -6.33,12.85 -19.58,21.47 -33.71,23.08 H 182 c 0,-50.33 0,-100.67 0,-151 24.04,0 48.08,0 72.13,0 0,-16 0,-32 0,-48 -29.72,-0.01 -59.44,0.02 -89.16,-0.01 -9.05,0.23 -16.93,-7.95 -16.8,-16.92 -0.1,-19.04 -0.03,-38.09 -0.03,-57.14 -0.19,-6.42 3.39,-12.78 9.13,-15.72 4.19,-2.37 9.15,-1.96 13.77,-1.97 27.65,0.03 55.3,0 82.96,0.01 -0.01,-11.08 0.02,-22.16 -0.02,-33.24 -5.97,-1.61 -11.09,-6.41 -11.83,-12.74 0.64,-0.36 1.91,-1.06 2.54,-1.41 -0.64,-0.35 -1.94,-1.06 -2.58,-1.42 0.69,-7.07 6.71,-12.6 13.69,-13.28 0.36,0.64 1.08,1.94 1.44,2.58 m -2.85,3.84 c -5.31,1.35 -8.27,8.31 -4.74,12.77 3.82,5.95 14.28,4.51 16.09,-2.44 2.13,-6.47 -5.26,-12.55 -11.35,-10.33 m -91.91,62.05 c -5.05,1.17 -8.45,6.2 -8.42,11.26 -0.15,18.04 0,36.09 -0.07,54.14 -0.1,3.78 0.49,7.9 3.34,10.66 2.68,2.97 6.87,3.59 10.68,3.57 60.33,-0.05 120.66,0.05 180.99,-0.05 6.2,0.33 12.14,-4.88 12.04,-11.2 0.21,-18.67 0.03,-37.35 0.09,-56.02 0.13,-3.98 -1.3,-8.21 -4.65,-10.58 -3.85,-2.91 -8.92,-2.36 -13.45,-2.42 -56.32,0.02 -112.63,0.01 -168.95,0.01 -3.87,0.04 -7.81,-0.28 -11.6,0.63 m 29.33,142.84 c 0.01,44.02 0.03,88.03 -0.01,132.05 23.99,0.08 47.99,0.02 71.98,0.03 -11.11,-8.96 -16.99,-23.62 -15.42,-37.78 -15.69,0 -31.39,-0.01 -47.09,0 0.02,-3.13 0.02,-6.25 -0.01,-9.36 16.4,-0.02 32.8,-0.02 49.2,0 1.36,-3.27 2.94,-6.44 4.65,-9.54 -17.94,0.01 -35.88,0 -53.83,0.01 0.01,-3.12 0.01,-6.24 -0.04,-9.35 20.77,-0.13 41.55,0.14 62.31,-0.13 6.56,-4.59 13.94,-8.28 22.03,-9.07 0.07,-9.54 0.02,-19.08 0.02,-28.62 -9.38,0.01 -18.75,0.03 -28.13,-0.02 0.08,-9.41 -0.02,-18.82 0.06,-28.23 -21.91,0 -43.82,-0.04 -65.72,0.01 m 75,1.91 c 0,5.65 0.01,11.3 0,16.95 5.65,0.02 11.29,0.02 16.94,0.01 -5.7,-5.6 -11.24,-11.36 -16.94,-16.96 m 16.68,65.39 c -9.05,1.98 -17.13,8.02 -21.5,16.21 -5.83,10.52 -5.1,24.31 1.87,34.13 6.75,9.97 19.38,15.44 31.28,13.51 12.24,-1.68 22.8,-11.18 26.15,-23.02 3.64,-11.96 -0.52,-25.76 -10.1,-33.78 -7.44,-6.59 -18.02,-9.09 -27.7,-7.05 z"
         id="path358" />
      <path
         fill="#90278e"
         opacity="1"
         d="m 317.76,510.5 c 1.78,0 3.57,0 5.36,0 0.01,9.52 0,19.04 0,28.57 -1.96,-0.25 -4.68,0.67 -5.6,-1.71 -2.57,2.67 -7.3,2.62 -9.72,-0.2 -2.71,-3.04 -3.02,-7.45 -2.4,-11.29 0.58,-3.31 2.9,-6.84 6.55,-7.05 2.19,-0.54 4.13,0.72 5.86,1.88 -0.09,-3.4 -0.06,-6.8 -0.05,-10.2 m -6.22,13.85 c -1.44,2.96 -1.67,7 0.36,9.76 1.77,1.82 4.42,0.58 5.93,-0.94 -0.11,-2.76 -0.11,-5.52 0.01,-8.27 -1.48,-1.87 -4.78,-2.88 -6.3,-0.55 z"
         id="path360" />
      <path
         fill="#90278e"
         opacity="1"
         d="m 223,512 c 1.72,-0.01 3.45,-0.01 5.18,0 3.39,8.99 6.74,17.99 10.09,27 -1.99,-0.01 -3.98,-0.01 -5.97,-0.01 -0.58,-1.8 -1.14,-3.61 -1.7,-5.41 -3.28,-0.1 -6.56,-0.1 -9.85,-0.08 -0.61,1.83 -1.23,3.66 -1.84,5.5 -1.98,0 -3.96,-0.01 -5.93,0 3.31,-9.01 6.68,-18 10.02,-27 m 2.62,6.86 c -1.12,3.38 -2.25,6.76 -3.38,10.14 2.26,-0.01 4.51,-0.01 6.77,0 -1.14,-3.38 -2.26,-6.77 -3.39,-10.14 z"
         id="path362" />
      <path
         fill="#90278e"
         opacity="1"
         d="m 241.25,512.01 c 5.15,0.21 10.6,-0.75 15.51,1.21 4.84,1.95 5.19,9.56 0.48,11.93 2.58,1.21 4.5,3.87 3.93,6.83 0,3.79 -3.57,6.41 -7.07,6.78 -4.27,0.49 -8.57,0.16 -12.85,0.23 0.01,-8.99 0.01,-17.99 0,-26.98 m 5.5,4.43 c -0.01,2.27 0,4.55 0,6.84 2.03,-0.03 4.08,0.08 6.11,-0.18 2.57,-0.64 3.09,-4.62 0.88,-5.95 -2.23,-0.85 -4.67,-0.59 -6.99,-0.71 m 0,10.79 c -0.01,2.42 -0.01,4.85 0,7.29 2.37,-0.13 4.87,0.35 7.15,-0.5 2.92,-1.13 2.24,-6.43 -0.97,-6.62 -2.05,-0.26 -4.13,-0.16 -6.18,-0.17 z"
         id="path364" />
      <path
         fill="#90278e"
         opacity="1"
         d="m 269.4,519.43 c 3.2,-1.09 7.24,-1.14 9.82,1.37 1.68,1.41 2.01,3.68 2.54,5.69 -1.59,0 -3.19,-0.01 -4.77,-0.02 -0.78,-1.61 -1.71,-3.87 -3.93,-3.48 -3.1,-0.08 -3.72,3.62 -3.61,6.01 -0.07,2.36 0.44,6.03 3.53,6.01 2.14,0.58 3.08,-1.52 4,-2.99 1.61,-0.01 3.23,0 4.85,0.03 -0.45,7.75 -11.46,9.78 -15.68,3.96 -3.37,-5.06 -2.8,-13.78 3.25,-16.58 z"
         id="path366" />
      <path
         fill="#90278e"
         opacity="1"
         d="m 289.34,519.51 c 4.28,-1.81 10.27,-0.61 12.41,3.85 1.91,3.94 1.73,9.1 -0.9,12.68 -3.81,4.95 -12.82,4.27 -15.51,-1.51 -2.38,-5 -1.49,-12.47 4,-15.02 m 2.83,3.73 c -3.18,1.39 -2.89,5.74 -2.41,8.6 0.46,3.91 6.68,4.25 7.51,0.42 1.43,-3.59 0.1,-10.67 -5.1,-9.02 z"
         id="path368" />
      <path
         fill="#90278e"
         opacity="1"
         d="m 326.36,524.94 c 1.08,-7.48 13.36,-8.63 16.28,-1.99 1.11,5.28 -0.18,10.79 1.2,16.06 -1.69,-0.01 -3.37,-0.02 -5.05,-0.01 -0.29,-0.36 -0.86,-1.08 -1.15,-1.44 -4.14,4.21 -12.88,0.61 -11.28,-5.58 1.06,-5.22 7.54,-5.07 11.69,-5.42 -0.5,-1.31 -0.33,-3.36 -2.03,-3.77 -0.8,0.02 -2.4,0.05 -3.2,0.07 -0.23,0.54 -0.68,1.62 -0.91,2.16 -1.85,-0.02 -3.71,-0.04 -5.55,-0.08 m 6.23,5.74 c -1.6,0.87 -0.71,2.82 -0.73,4.23 1.57,0.01 3.37,0.71 4.75,-0.4 1.68,-0.89 0.92,-3.08 1.27,-4.59 -1.77,0.14 -3.67,-0.12 -5.29,0.76 z"
         id="path370" />
      <path
         fill="#90278e"
         opacity="1"
         d="m 195.44,527.65 c 7.27,-4.01 16.61,4.75 13.17,12.27 -2.39,6.8 -12.77,8.23 -16.88,2.34 -3.61,-4.67 -1.6,-12.17 3.71,-14.61 z"
         id="path372" />
      <path
         fill="#90278e"
         opacity="1"
         d="m 201.31,685.12 c -0.03,-3.18 -0.03,-6.36 0,-9.54 24.99,0.08 49.99,0 74.98,0.04 -0.01,3.16 -0.01,6.33 -0.02,9.5 -24.99,0.01 -49.97,0 -74.96,0 z"
         id="path374" />
      <path
         fill="#90278e"
         opacity="1"
         d="m 304.24,708.73 c 3.38,2.91 6.35,6.25 9.57,9.33 -9.1,9.13 -18.14,18.32 -27.29,27.39 -1.29,1.43 -2.5,-0.88 -3.46,-1.56 -5.33,-5.56 -10.98,-10.81 -16.15,-16.51 3.16,-3.03 6.22,-6.16 9.27,-9.28 3.18,3.11 6.29,6.3 9.44,9.43 6.17,-6.3 12.47,-12.47 18.62,-18.8 z"
         id="path376" />
    </g>
    <g
       id="#ead1dcff"
       transform="matrix(0.6679718,0,0,0.6679718,81.017852,65.611525)">
      <path
         fill="#ead1dc"
         opacity="1"
         d="m 254.39,423.58 c 6.09,-2.22 13.48,3.86 11.35,10.33 -1.81,6.95 -12.27,8.39 -16.09,2.44 -3.53,-4.46 -0.57,-11.42 4.74,-12.77 z"
         id="path379" />
    </g>
    <path
       fill="#116fff"
       opacity="1"
       d="m 4.2006475,1.3420398 h 4.4426069 c 9.0614036,1.535404 18.2486606,1.535404 27.3981616,1.2836995 145.573974,-0.012585 291.135364,-0.012585 436.709344,0 8.70902,0.2642904 17.45579,0.2139494 26.07671,-1.2836995 h 4.30417 c 0.79287,1.6864277 2.08915,3.2470029 2.18983,5.1725512 0.0503,210.967109 -0.0503,421.934219 0.0503,632.901319 0.10069,2.29053 -1.15784,4.26641 -2.01364,6.29265 h -4.48037 c -12.79923,-2.25277 -25.79982,-1.032 -38.71232,-1.27111 -135.92107,-0.0252 -271.84213,0.0126 -407.763196,-0.0126 -14.561173,0.45307 -29.235614,-1.19561 -43.6835221,1.28369 H 4.4271433 C 3.6468588,644.00957 2.3254035,642.449 2.2373047,640.52344 2.3128189,432.9292 2.2624872,225.32236 2.2624872,17.715522 2.4890232,12.228338 1.0668845,6.2754985 4.2006207,1.3420672 M 12.355882,11.649414 c -0.03774,207.921466 -0.02518,415.855516 -0.01256,623.789586 1.623505,-0.0252 3.247005,-0.0503 4.857922,-0.0503 157.693606,-0.0377 315.374626,-0.0377 473.068226,0 1.64868,0.0503 3.30994,0.10068 4.97119,0.1636 0.25171,-31.85335 0.0252,-63.7067 0.11327,-95.56005 -0.0755,-176.15622 0.12586,-352.31243 -0.10069,-528.468641 -1.64867,0.03775 -3.28475,0.07551 -4.92085,0.125853 -45.93628,-0.05034 -91.85997,0.289461 -137.78367,-0.176194 0.61667,2.517057 2.52964,5.31099 0.95647,7.802876 -3.247,5.902498 -7.70219,11.087635 -10.62198,17.191497 -5.29839,4.719482 -6.94707,12.899916 -13.86898,15.958139 -6.99741,-1.044579 -14.08293,-0.641849 -21.13068,-0.66702 -35.2388,0 -70.4776,0 -105.71639,-0.01258 -7.87838,0.06293 -15.80712,-0.415315 -23.63516,0.679604 -6.31781,-3.234417 -9.03624,-10.206664 -12.81182,-15.794529 l -1.05716,-0.01258 c -2.6555,-6.292642 -7.2743,-11.427438 -10.54647,-17.367692 -1.59834,-2.479301 0.26429,-5.273234 0.85579,-7.777705 -45.91111,0.45307 -91.847397,0.125853 -137.771096,0.176193 -1.623502,0 -3.234417,0 -4.845338,0 m 147.348514,0.176194 c 0.49082,0.05034 1.47247,0.138438 1.96331,0.176194 5.78922,10.307348 12.98801,19.746311 19.30582,29.72644 2.94495,0.05035 5.90249,0.06293 8.84745,0.03775 42.29914,-0.125852 84.58569,0 126.88483,-0.06293 3.29734,-0.03775 6.5821,-0.302048 9.86686,-0.515997 6.74571,-9.74101 12.87474,-19.897333 19.98543,-29.374053 -57.36372,-0.339802 -114.71486,-0.01258 -172.07858,-0.163608 -4.92085,-0.163608 -9.85428,-0.251706 -14.77512,0.176194 z"
       id="path468"
       style="stroke-width:0.667972;stroke-miterlimit:4;stroke-dasharray:none" />
    <path
       fill="#116fff"
       opacity="1"
       d="m 33.687968,32.968857 c 2.567398,-1.535404 5.675963,-1.33404 8.545407,-1.459893 34.471093,0.327218 68.954765,0.02517 103.425865,0.138439 3.71265,-0.377559 6.35556,2.340862 8.64609,4.832748 -1.96331,2.391204 -3.80076,5.814401 -7.45049,5.285819 -34.77314,0.07551 -69.558864,0.01258 -104.332003,0.01258 0,187.83535 0.01258,375.67071 0,563.50607 123.725923,-0.0503 247.464433,-0.0252 371.190363,-0.0126 2.69325,0.25171 5.17254,-0.84321 6.9219,-2.88203 13.79347,-13.89414 27.6247,-27.73797 41.51885,-41.51885 2.01365,-1.76195 3.28476,-4.1909 2.98272,-6.90932 -0.0126,-170.73195 -0.0126,-341.46392 0,-512.195868 -33.56496,0.07551 -67.1425,-0.05035 -100.70745,0.07551 -2.3031,-0.05035 -4.64396,0.02517 -6.88415,-0.578923 -1.72418,-1.30887 -2.91978,-3.171492 -4.29158,-4.807579 1.95072,-1.699013 3.5994,-4.26641 6.38074,-4.581042 6.21712,-0.704777 12.4846,-0.151023 18.7269,-0.226535 29.39923,-0.05035 58.79845,0.125853 88.19767,-0.138438 2.76876,0.302046 7.14844,-0.327218 8.11751,3.14632 1.35921,6.83381 0.36497,13.881569 0.52858,20.803473 0,161.934842 -0.0126,323.869682 0,485.791942 -0.21395,6.88415 0.95648,13.95708 -0.69219,20.70279 -2.61774,4.35451 -6.7583,7.47566 -10.25701,11.08764 -12.61045,12.56011 -25.25866,25.09505 -37.69293,37.83136 -2.40378,2.51705 -5.39907,4.82017 -9.08656,4.56846 -125.91577,-0.0503 -251.84412,-0.0881 -377.759881,0.0252 -2.038816,-0.15102 -4.253826,-0.21395 -6.00318,-1.42214 -1.485064,-2.08916 -1.271114,-4.82016 -1.447308,-7.24912 0.21395,-28.55601 0.06293,-57.11201 0.113268,-85.68061 -0.05034,-160.70149 0.07551,-321.41556 -0.06293,-482.117038 0.125853,-2.051401 0.226535,-4.24124 1.371796,-6.02835 z"
       id="path470"
       style="stroke-width:0.667972;stroke-miterlimit:4;stroke-dasharray:none" />
    <g
       id="#0d58cbcc"
       transform="matrix(1.2585283,0,0,1.2585283,-13.041188,1.3420398)">
      <path
         fill="#0d58cb"
         opacity="0.8"
         d="M 17.23,0 H 406.72 C 399.87,1.19 392.92,1.23 386,1.02 270.33,1.01 154.67,1.01 39,1.02 31.73,1.22 24.43,1.22 17.23,0 Z"
         id="path481" />
      <path
         fill="#0d58cb"
         opacity="0.8"
         d="m 17.29,512 c 11.48,-1.97 23.14,-0.66 34.71,-1.02 108,0.02 216,-0.01 324,0.01 10.26,0.19 20.59,-0.78 30.76,1.01 z"
         id="path483" />
    </g>
    <g
       id="#94c1ffff"
       transform="matrix(1.2585283,0,0,1.2585283,-13.041188,1.3420398)">
      <path
         fill="#94c1ff"
         opacity="1"
         d="M 24.03,8.19 C 60.52,8.15 97.02,8.41 133.5,8.05 c -0.47,1.99 -1.95,4.21 -0.68,6.18 2.6,4.72 6.27,8.8 8.38,13.8 -2.74,-0.01 -5.49,-0.03 -8.23,-0.11 -1.82,-1.98 -3.92,-4.14 -6.87,-3.84 -27.39,-0.09 -54.79,0.15 -82.18,-0.11 -2.28,0.1 -4.75,-0.06 -6.79,1.16 -0.91,1.42 -0.99,3.16 -1.09,4.79 0.11,127.69 0.01,255.39 0.05,383.08 -0.04,22.7 0.08,45.39 -0.09,68.08 0.14,1.93 -0.03,4.1 1.15,5.76 1.39,0.96 3.15,1.01 4.77,1.13 100.05,-0.09 200.11,-0.06 300.16,-0.02 2.93,0.2 5.31,-1.63 7.22,-3.63 9.88,-10.12 19.93,-20.08 29.95,-30.06 2.78,-2.87 6.07,-5.35 8.15,-8.81 1.31,-5.36 0.38,-10.98 0.55,-16.45 -0.01,-128.66 0,-257.33 0,-386 -0.13,-5.5 0.66,-11.1 -0.42,-16.53 -0.77,-2.76 -4.25,-2.26 -6.45,-2.5 -23.36,0.21 -46.72,0.07 -70.08,0.11 -4.96,0.06 -9.94,-0.38 -14.88,0.18 -2.21,0.25 -3.52,2.29 -5.07,3.64 -2.75,0.02 -5.5,-0.04 -8.24,0.01 2.32,-4.85 5.86,-8.97 8.44,-13.66 1.25,-1.98 -0.27,-4.2 -0.76,-6.2 36.49,0.37 72.98,0.1 109.48,0.14 -0.08,165.2 0.02,330.41 -0.05,495.61 -125.3,-0.03 -250.59,-0.03 -375.89,0 0.07,-165.21 0.08,-330.41 0,-495.61 z"
         id="path509" />
    </g>
    <g
       id="#5a9dffff"
       transform="matrix(1.2585283,0,0,1.2585283,-13.041188,1.3420398)">
      <path
         fill="#5a9dff"
         opacity="1"
         d="m 399.97,8.19 c 1.3,-0.04 2.6,-0.07 3.91,-0.1 0.18,139.97 0.02,279.94 0.08,419.91 -0.07,25.31 0.11,50.62 -0.09,75.93 -1.32,-0.05 -2.64,-0.09 -3.95,-0.13 0.07,-165.2 -0.03,-330.41 0.05,-495.61 z"
         id="path512" />
    </g>
    <g
       id="#fefefeff"
       transform="matrix(1.2585283,0,0,1.2585283,-13.041188,1.3420398)">
      <path
         fill="#fefefe"
         opacity="1"
         d="m 138.82,8.47 c 2.4,0.3 5.01,0.35 7.16,1.58 1.99,1.7 3.38,3.96 4.83,6.11 3.43,5.34 7,10.6 10.38,15.96 -2.34,0.02 -4.69,0.01 -7.03,-0.03 -5.02,-7.93 -10.74,-15.43 -15.34,-23.62 z"
         id="path515" />
    </g>
    <g
       id="#90beffff"
       transform="matrix(1.2585283,0,0,1.2585283,-13.041188,1.3420398)">
      <path
         fill="#90beff"
         opacity="1"
         d="m 152.22,40.59 c 6.22,-0.87 12.52,-0.49 18.78,-0.54 28,0.01 56,0.01 84,0.01 5.6,0.02 11.23,-0.3 16.79,0.53 -2.89,1.95 -6.09,3.76 -9.7,3.56 -33.39,-0.11 -66.79,-0.11 -100.17,0 -3.63,0.24 -6.84,-1.57 -9.7,-3.56 z"
         id="path540" />
    </g>
  </g>
</svg>
