<svg xmlns="http://www.w3.org/2000/svg" viewBox="0 0 562.23 1085.37"><defs><style>.cls-1{fill:#706865;}.cls-2{fill:#bdafaa;}.cls-3{fill:#fff;}.cls-4{fill:#1e81ce;}.cls-5{fill:#9bc9ff;}.cls-6{fill:#1e82cf;}.cls-7{fill:#9ccaff;}.cls-8{fill:#eb008b;}.cls-9{fill:#90278e;}.cls-10{fill:#ead1dc;}</style></defs><g id="Layer_2" data-name="Layer 2"><g id="_Layer_" data-name="&lt;Layer&gt;"><rect class="cls-1" x="412.59" y="404.19" width="14.98" height="681.18"/><rect class="cls-1" x="65.53" y="404.19" width="14.99" height="681.18"/><rect class="cls-2" width="562.23" height="972.95" rx="51.29"/><rect class="cls-3" x="15.43" y="15.67" width="531.37" height="919.26" rx="50.67"/><g id="_1e81ceff" data-name="#1e81ceff"><path class="cls-4" d="M257.5,76c2.81-3.43,6.39-6.56,11-7,5.36-.35,10.77-.22,16.15-.07,10.12.66,18.9,9.37,19.55,19.5.29,9.48,0,19,.14,28.44a13,13,0,0,1,1,15.8c-2.34,3.2-6.5,3.58-10.14,3.49a27.66,27.66,0,0,1-7.35,18.45c-3.05,2.3-1.52,6.38-1.84,9.63,8.17,2.11,16.39,4,24.56,6.21a34.46,34.46,0,0,1,18.34,13.08c7.34-3.67,15.72-5.73,23.92-4.22a36.69,36.69,0,0,1-6.23,72.92q-71.07,0-142.15,0c-2.08.33-4.32-1.2-4-3.47q-.07-23.58,0-47.17c.14-14.19,10.54-27.49,24.24-31.13q12.21-3.16,24.49-6.12c0-2.56,0-5.12,0-7.69a29,29,0,0,1-9.2-20.5c-4,.27-8.53-.57-10.69-4.31-2.52-4.6-2.15-10.93,1.51-14.82.16-9.21-.08-18.42.11-27.61a15.51,15.51,0,0,1,11.84-14.06A35.8,35.8,0,0,1,257.5,76m6.73,1.62c-2.72,2.28-2.13,6.26-3.91,9-3.63,2-4.85-2.12-5.82-4.72-2.44-1.56-5.67-.73-8.43-.83-5-.16-9.27,4.52-9,9.43-.07,8,0,16.07,0,24.11h3.1c0-3.4-.16-6.8.07-10.2a9.08,9.08,0,0,1,9.11-8.11q18.21-.06,36.43,0a9.26,9.26,0,0,1,8.92,6.34c.75,3.83.32,7.79.32,11.68,1,.16,2.09.29,3.14.39,0-8.08.05-16.16,0-24.24A15.17,15.17,0,0,0,289.9,76.6c-4.24-2.34-9.24-1.56-13.88-1.72-4,.06-8.77-.6-11.79,2.71m-15.84,25c-1.84.23-2.19,2.34-2.1,3.84,0,10.35-.08,20.68.07,31,.36,10.49,9.7,19.6,20.16,19.88a21.42,21.42,0,0,0,20.73-12.84c2.5-5.56,1.72-11.78,1.83-17.69-.09-7.25.15-14.5-.09-21.74-.27-2.85-3.39-2.71-5.53-2.67-11.69.17-23.4-.21-35.07.2M295,120.9c.06,3,.09,6,.11,9.06,2-.36,4.84.45,5.89-1.8a11.86,11.86,0,0,0-.11-5.86c-1.22-2.14-3.89-1.37-5.89-1.4m-60.79,1.7a13.29,13.29,0,0,0-.06,5.22c.82,2.58,3.94,1.8,6,2.23q0-4.74,0-9.46c-2.05.43-4.9-.36-5.94,2m21.17,38.06c0,1,0,3.05-.06,4.06,4.05,2.56,8.22,4.92,12.26,7.49q6.1-3.69,12.26-7.35c0-1.39,0-2.78,0-4.17a28.15,28.15,0,0,1-24.5,0m-10.29,10.87c2.66,4,5.21,8.09,8.13,11.93,3-2.5,6-4.94,9-7.4-3.61-1.92-6.86-4.55-10.69-6a57.11,57.11,0,0,0-6.49,1.51M273,176.07c3,2.5,6.13,5,9.26,7.39,2.62-4,5.42-7.85,7.8-12l-6.59-1.65c-3.5,2.09-7,4.17-10.47,6.23M239.21,174c3.52,16,6.68,32.08,10,48.12,1.2,6.07,2.7,12.09,3.46,18.26,1.4-6.58,1.33-13.34,2.14-20,.82-10.89,1.93-21.75,2.72-32.63-2,1.39-4.83,4.7-7.29,2.33-4-5.16-7.13-10.91-11.08-16.09m45.65,16.26c-2.65,2-5.25-1.15-7.25-2.57,1.59,17.49,2.89,35,4.65,52.5,4.55-22.07,9.19-44.13,13.66-66.21-3.77,5.37-7.1,11.06-11.06,16.28M217,181a28,28,0,0,0-10.56,22.72c0,14.09-.13,28.19.09,42.28,7.1,0,14.19,0,21.3,0,0-10.53,0-21.07,0-31.61,0-1.78.07-4.63,2.39-4.91a2.88,2.88,0,0,1,3.71,2.95c.16,11.16,0,22.34,0,33.51,4.68.1,9.35.09,14,0-5-23.72-9.91-47.46-14.7-71.21-5.8.81-11.63,2.51-16.25,6.24m85-6.25c-4.92,23.73-9.72,47.5-14.79,71.2,4.67.05,9.33.05,14,0,.05-11.24-.15-22.49.08-33.73-.24-3.79,6.13-3.75,6,0,.22,11.25,0,22.51.07,33.75,6.45,0,12.89.07,19.34-.05a36.67,36.67,0,0,1-16.23-31.51c0-10.67,5.53-20.7,13.47-27.61A31.43,31.43,0,0,0,302,174.77m-37.88,7.66c-.09,1.49-.16,3-.25,4.45a14,14,0,0,0,7.44,0c-.09-1.49-.19-3-.28-4.45l-3.47-2.81-3.44,2.82m76.16,3.22a30.69,30.69,0,0,0-22.58,21.28c-4.22,13.4,2.44,29.08,14.93,35.47,12.49,7,29.59,3.44,38.3-7.91a30.55,30.55,0,0,0-30.65-48.84m-77.09,7.56q-2.14,26.4-4.53,52.77c6,.06,11.91,0,17.88,0-1.64-17.62-3-35.26-4.63-52.89A16,16,0,0,1,263.22,193.21Z"/><path class="cls-4" d="M257,139.68c1.68-1.48,3.44.45,4.88,1.26a9.45,9.45,0,0,0,11.35.09c1.27-.63,2.27-2.1,3.84-1.9,2.16-.06,3.85,3.09,2.22,4.69-5.69,6.86-17.7,6.84-23.32-.08C254.81,142.42,255.73,140.5,257,139.68Z"/><path class="cls-4" d="M341.29,192c1.47-4.95,9.12-5.47,11.22-.76,1.88,3-.07,6.25-2.35,8.27,0,1.41,0,2.83,0,4.25l3.49,1c2.22-1.79,2.62-4.48,3.11-7.11,1.88-4.94,10-4.38,11.31.77,1.7,4.61-3.13,8.88-7.59,8-1,.94-2,1.89-3,2.85l1.54,3.21,3.67-.07c2.14-2.27,5.44-4.15,8.51-2.4,4.1,1.87,4.53,8.15.63,10.48-3.06,2.34-6.83.46-9.11-2l-3.74-.09c-.51,1.12-1,2.26-1.53,3.38,1.48,1.3,2.9,3,5.08,2.84,4.21-.09,7.27,5.11,5,8.72-1.56,3.6-6.89,4.42-9.59,1.66-1.94-1.55-1.71-4.23-2.15-6.42l-2.29-2.41c-1.16.3-2.3.63-3.46,1,0,1.43,0,2.88.09,4.32,2.31,2,4.13,5.32,2.25,8.23-2,4.3-8.84,4.3-10.82,0-1.67-2.54-.38-5.51,1.48-7.48,1.42-1.35.69-3.43.84-5.15-1.17-.28-2.32-.57-3.47-.87-.85,1-1.7,1.94-2.54,2.91.46,3.4-1.56,7.21-5.23,7.52-4.75,1-8.83-5-6.12-9,1.32-2.66,4.44-3.19,7.11-3.16.94-.9,1.89-1.79,2.84-2.67-.49-1.11-1-2.23-1.44-3.34l-3.75.07c-1.79,1.47-3.66,3.45-6.21,3-4.82-.14-7.59-6.69-4.08-10.12,2.84-3.39,7.83-2,10.32,1l3.71.06c.5-1.15,1-2.3,1.52-3.43-1.79-2.18-4.3-3-7-3.12-5.45-1.84-4.7-10.66,1-11.53,4.42-1.16,8.16,3.15,7.38,7.42.86,1,1.72,2,2.61,3l3.49-1.1c1.52-4.63-4.87-7.13-2.79-11.66m3.59,17.7c-3.85,1.35-5.38,6.8-2.38,9.75,2.82,3.55,9,2.26,10.35-2C354.84,212.91,349.43,207.74,344.88,209.74Z"/></g><g id="_9bc9ffff" data-name="#9bc9ffff"><path class="cls-5" d="M264.23,77.59c3-3.31,7.77-2.65,11.79-2.71,4.64.16,9.64-.62,13.88,1.72a15.17,15.17,0,0,1,8.24,13.89c.06,8.08,0,16.16,0,24.24-1-.1-2.1-.23-3.14-.39,0-3.89.43-7.85-.32-11.68a9.26,9.26,0,0,0-8.92-6.34q-18.21-.06-36.43,0a9.08,9.08,0,0,0-9.11,8.11c-.23,3.4-.06,6.8-.07,10.2h-3.1c.05-8-.05-16.08,0-24.11-.28-4.91,4-9.59,9-9.43,2.76.1,6-.73,8.43.83,1,2.6,2.19,6.7,5.82,4.72C262.1,83.85,261.51,79.87,264.23,77.59Z"/><path class="cls-5" d="M234.21,122.6c1-2.37,3.89-1.58,5.94-2q0,4.72,0,9.46c-2-.43-5.15.35-6-2.23A13.29,13.29,0,0,1,234.21,122.6Z"/><path class="cls-5" d="M245.09,171.53a57.11,57.11,0,0,1,6.49-1.51c3.83,1.49,7.08,4.12,10.69,6-3,2.46-6.06,4.9-9,7.4C250.3,179.62,247.75,175.54,245.09,171.53Z"/><path class="cls-5" d="M273,176.07c3.49-2.06,7-4.14,10.47-6.23l6.59,1.65c-2.38,4.12-5.18,8-7.8,12C279.1,181.05,276,178.57,273,176.07Z"/><path class="cls-5" d="M217,181c4.62-3.73,10.45-5.43,16.25-6.24C238.07,198.53,243,222.27,248,246c-4.67,0-9.34.06-14,0,0-11.17.13-22.35,0-33.51a2.88,2.88,0,0,0-3.71-2.95c-2.32.28-2.35,3.13-2.39,4.91,0,10.54,0,21.08,0,31.61-7.11,0-14.2,0-21.3,0-.22-14.09-.06-28.19-.09-42.28A28,28,0,0,1,217,181Z"/><path class="cls-5" d="M302,174.77a31.43,31.43,0,0,1,21.91,12.06c-7.94,6.91-13.42,16.94-13.47,27.61A36.67,36.67,0,0,0,326.7,246c-6.45.12-12.89.05-19.34.05-.05-11.24.15-22.5-.07-33.75.16-3.73-6.21-3.77-6,0-.23,11.24,0,22.49-.08,33.73-4.67,0-9.33,0-14,0C292.31,222.27,297.11,198.5,302,174.77Z"/><path class="cls-5" d="M264.15,182.43l3.44-2.82,3.47,2.81c.09,1.49.19,3,.28,4.45a14,14,0,0,1-7.44,0C264,185.39,264.06,183.92,264.15,182.43Z"/><path class="cls-5" d="M263.22,193.21a16,16,0,0,0,8.72-.1c1.6,17.63,3,35.27,4.63,52.89-6,0-11.92,0-17.88,0Q261.09,219.61,263.22,193.21Z"/><path class="cls-5" d="M344.88,209.74c4.55-2,10,3.17,8,7.75-1.37,4.26-7.53,5.55-10.35,2C339.5,216.54,341,211.09,344.88,209.74Z"/></g><g id="_1e82cfff" data-name="#1e82cfff"><path class="cls-6" d="M256.21,115.62c1.51-2,4.82-.93,5.25,1.4.3,2.48.58,6-2.45,6.87C254.75,124.08,254.45,118.25,256.21,115.62Z"/><path class="cls-6" d="M277.2,124.3c-4.32-.93-5.05-7.76-1.25-9.67C281.2,114.06,281.17,122.55,277.2,124.3Z"/></g><g id="_9ccaffff" data-name="#9ccaffff"><path class="cls-7" d="M295,120.9c2,0,4.67-.74,5.89,1.4a11.86,11.86,0,0,1,.11,5.86c-1.05,2.25-3.93,1.44-5.89,1.8C295.09,126.94,295.06,123.92,295,120.9Z"/></g><g id="_eb008bff" data-name="#eb008bff"><path class="cls-8" d="M421.49,273.66q48.64,0,97.27,0,.07,90.5,0,181H421.51q.06-90.49,0-181m7,6.87c0,7,0,14,0,21q41.71,0,83.42,0c-.11-7,.06-14-.11-21-27.76.07-55.53,0-83.28,0m0,27.82c-.05,7,0,14,0,21q41.71,0,83.41,0c-.07-7,0-13.95-.05-20.93-27.77-.11-55.54,0-83.32,0m0,28c0,6.93,0,13.87,0,20.79h83.41c-.05-6.92,0-13.86,0-20.78H428.46m0,27.83q0,41.76,0,83.53,41.7,0,83.38,0,0-41.76,0-83.51Q470.15,364.19,428.45,364.22Z"/><path class="cls-8" d="M198,298.83c-.45-8,6.92-15.43,14.92-14.94q64.64,0,129.28,0c4.12-.12,8.67.26,11.85,3.18a16.39,16.39,0,0,1,4.24,10.76q0,47.54,0,95.09a16.69,16.69,0,0,1-4.26,11.66,13.94,13.94,0,0,1-9.66,3q-66.27,0-132.57,0c-5.14.3-9.18-3.24-12.29-6.9-2.2-4.8-1.4-10.17-1.54-15.28.13-3.32-.55-6.85,1-9.94,48.47-.25,96.94,0,145.42-.1,3.13-.9,5.37,3.57,2.28,5.14a54.28,54.28,0,0,1-7.65.23q-67.57,0-135.17,0c.08,4.76-.12,9.51.06,14.27a7.72,7.72,0,0,0,7.91,7.22q66.81.06,133.62,0a7.83,7.83,0,0,0,8-8.21q0-48.13,0-96.26c.3-4.35-3.5-8.6-7.95-8.33q-66.84-.09-133.71,0c-4.43-.21-7.91,4.1-7.93,8.3-.1,23.2.08,46.41-.07,69.61.3,3.55-6,3.57-5.76,0C198,344.49,198.08,321.65,198,298.83Z"/><path class="cls-8" d="M53,287.41c20.91-.19,41.84-.08,62.76-.06,7.46,0,13.54,7.37,12.69,14.69q-.06,63.07,0,126.16c.41,6.95-5.65,13.52-12.62,13.59-20.32.09-40.66,0-61,0-7.34.44-14.11-6.31-13.64-13.66q0-63.62,0-127.23A13.24,13.24,0,0,1,53,287.41m-5.14,13.45c-.11,4.44,0,8.88,0,13.32h73.94c-.07-4.78.15-9.55-.09-14.32A6.64,6.64,0,0,0,114.7,294q-30,0-59.92,0a6.67,6.67,0,0,0-7,6.87m0,107.43q37,0,74,0,0-43.73,0-87.44h-74q.06,43.71,0,87.44m0,20a6.69,6.69,0,0,0,7,6.86q29.91,0,59.85,0a6.68,6.68,0,0,0,7-6.9c.11-4.44,0-8.86,0-13.29q-37,0-73.94,0C47.83,419.4,47.71,423.84,47.82,428.29Z"/><path class="cls-8" d="M73.1,301.11c6.59-1,13.5-.16,20.22-.46,2.75-.61,5.84,1.74,4.74,4.7-1.29,2.59-4.55,2.09-6.94,2.2-5.69-.2-11.4.3-17.06-.27C71,307.05,70.25,302.32,73.1,301.11Z"/><path class="cls-8" d="M59.52,331.44a27.9,27.9,0,0,1,9.9-.11c2.37.95,1.83,3.91,2,6-.14,2.35.59,5.68-2.13,6.85a31.71,31.71,0,0,1-9.53-.08c-2.47-1.27-1.84-4.5-1.95-6.79C57.86,335.32,57.47,332.54,59.52,331.44Z"/><path class="cls-8" d="M79.76,331.39a32.29,32.29,0,0,1,9.16-.21c2.43.22,2.75,3.13,2.63,5.08-.2,2.61.86,6.34-2,7.84a31.1,31.1,0,0,1-9.63,0c-2.52-1.27-1.87-4.49-2-6.8C78.06,335.25,77.59,332.52,79.76,331.39Z"/><path class="cls-8" d="M100.09,331.33a27.72,27.72,0,0,1,10,.12c2.75,2.05,1.4,6.18,1.64,9.14a3.63,3.63,0,0,1-4.39,3.8c-3-.27-8.07,1.29-9-2.73C98.51,338.33,96.81,333.46,100.09,331.33Z"/><path class="cls-8" d="M59.51,355a26.47,26.47,0,0,1,9.88-.13c2.41,1,1.87,4,2,6-.13,2.35.59,5.77-2.23,6.83a31.26,31.26,0,0,1-9.51-.13c-2.38-1.31-1.76-4.48-1.87-6.73C57.85,358.85,57.46,356.1,59.51,355Z"/><path class="cls-8" d="M79.82,354.9a28.37,28.37,0,0,1,9.77,0c3.15,1.84,1.61,6.24,1.91,9.26.31,2.55-2.21,4.25-4.55,3.81-2.94-.28-7.64,1.24-8.83-2.53C78.35,362,76.62,357.23,79.82,354.9Z"/><path class="cls-8" d="M100.15,354.83c3.41-.32,7.29-1,10.46.51,2,2.86,1,6.66,1,9.91-.94,3.91-5.79,2.39-8.69,2.68-2.38.43-5.06-1.2-4.67-3.88C98.5,361.05,97,356.61,100.15,354.83Z"/><path class="cls-8" d="M435.41,371.12h69.48v48.77H435.42q0-24.39,0-48.78m6.95,7q0,7,0,13.94,27.76,0,55.55,0c0-4.64,0-9.28,0-13.92-18.53,0-37.05,0-55.58,0m0,20.83c0,4.62,0,9.26,0,13.9,18.54.05,37.08,0,55.62,0q0-7,0-13.94Q470.14,399,442.34,399Z"/><path class="cls-8" d="M60.43,378.23a35.9,35.9,0,0,1,9,.15c2.39,1,1.86,3.93,2,6-.15,2.36.6,5.77-2.21,6.84a31.19,31.19,0,0,1-9.5-.12c-2.42-1.26-1.78-4.51-1.9-6.76S57.55,378.59,60.43,378.23Z"/><path class="cls-8" d="M79.8,378.43c3.37-.46,7.06-.79,10.36.21,2.45,2.73,1.1,6.89,1.25,10.24-1.4,4.09-6.68,2.2-9.91,2.52-2.68.27-3.91-2.74-3.53-5C78.22,383.77,77.05,380.09,79.8,378.43Z"/><path class="cls-8" d="M276.31,386.68c3.42-2.09,8.25,1.2,7.76,5.13,0,4.12-5.67,6.73-8.72,3.79A5.33,5.33,0,0,1,276.31,386.68Z"/><path class="cls-8" d="M262.73,416.34c-.29-1.92,1.45-2.94,2.62-4.09.57.54,1.72,1.63,2.28,2.18.9,4.81.21,9.77.38,14.64,4.52.06,9.06-.26,13.57.15,2,0,3.39,2.51,2,4-.79,1.55-2.93.93-4.32,1.18-8.26.1-16.53-.24-24.78.1-3.34,0-5.56,2.79-7.6,5,21.14.5,42.31.06,63.46.24-1.53-2-3.06-4.31-5.64-4.95-3.44-.86-7-.3-10.51-.44-1.55-.2-4.63.41-4.64-2-.4-5.37-.19-10.77-.13-16.15-.29-1.92,1.46-2.94,2.62-4.07.58.54,1.71,1.63,2.28,2.18.9,4.8.2,9.75.38,14.61,4.2.08,8.6-.46,12.62,1,5.07,2.14,9.06,7.44,8.7,13.06-.15,1.73-2.22,2.15-3.62,2.1-10.34.08-20.7,0-31,0-.09,17.14.12,34.28.14,51.42l6.4-4.26c-2.69,5.33-5.3,10.68-8,16l-1.45,2.82c-.39-.68-1.16-2.07-1.54-2.75-2.76-5.31-5.35-10.71-8-16l6.25,4.14c0-17.1-.22-34.21-.13-51.32-10.64-.17-21.31.34-31.94-.24-3.68-2.26-.79-7.55,1.09-10.28,4.12-6.12,12-6,18.59-5.68C262.73,424.82,262.54,420.57,262.73,416.34Z"/><path class="cls-8" d="M81.87,419c4.14-2.25,9.68,1.24,9.66,5.88.34,5.19-6.25,9-10.48,5.8C76.7,428.1,77.19,420.94,81.87,419Z"/><path class="cls-8" d="M495.38,427.34c5-2.46,11.14,3.31,9.17,8.47-1.17,4.58-7.38,6.51-10.95,3.42C489.43,436.23,490.51,429,495.38,427.34Z"/><path class="cls-8" d="M80.49,445.25H86.9v75.6q81.73,0,163.45,0c-1.38-2.07-2.76-4.13-4.13-6.21,5.35,2.68,10.72,5.3,16,8l2.76,1.52-2.72,1.5c-5.33,2.76-10.75,5.37-16.1,8.08,1.43-2.17,2.87-4.33,4.31-6.5-55.62,0-111.25.08-166.86-.06-2.75.28-3.32-2.85-3.17-4.92Z"/><path class="cls-8" d="M469.46,457h6.42c-.09,22.45.16,44.92-.12,67.36,0,2.7-3.1,3-5.11,2.9q-82.29,0-164.59,0,2.1,3.19,4.22,6.38c-5.29-2.68-10.63-5.25-15.89-8l-3.2-1.71,3.24-1.65c5.27-2.63,10.54-5.28,15.83-7.88l-4.3,6.45h163.5Z"/><path class="cls-8" d="M200.59,601.9c5.11-1.86,11.41.69,13.26,5.92,2.7,6-1.81,13.6-8.34,14.12-3.62.07-7.2,3.39-6.06,7.2,1.5,3.81,2.73,8.41.2,12.09-3.12,5.51-11.46,6.51-15.94,2.15-4.4-4-4.36-11.7.31-15.47,2.87-3.24,8.35-1.41,10.78-5.16,1.89-2.44.51-5.48-.4-8C192.53,609.68,195.58,603.69,200.59,601.9Z"/></g><g id="_90278eff" data-name="#90278eff"><path class="cls-9" d="M278.44,511.22l1.45-2.82c3.45.91,7.06,2,9.65,4.57,2.74,2.39,3.79,6,4.89,9.31l-3.24,1.65,3.2,1.71a17.08,17.08,0,0,1-13,13.7c-.05,11.83,0,23.65,0,35.48q47.55,0,95.1,0c10.41-.75,19.86,8.54,19.24,19,0,19.59,0,39.18,0,58.77,1.15,10.4-7.49,20.69-18.16,20.31q-48,0-96.08,0,0,25.65,0,51.29c3.11,0,6.21,0,9.32,0,8.61,8.56,17.09,17.23,25.7,25.78,1,1.14,2.44,2.28,2.27,4-.12,13.66-.05,27.32-.08,41,17.52,2.09,34.09,15,37.83,32.67,3.25,11,1.63,22.82-2.68,33.26-6.76,13.73-20.92,22.94-36,24.66H198V724.16h77.08v-51.3q-47.64,0-95.27,0c-9.68.25-18.1-8.49-18-18.08-.1-20.34,0-40.7,0-61.06a18.5,18.5,0,0,1,9.76-16.8c4.47-2.53,9.77-2.09,14.71-2.1q44.33,0,88.65,0c0-11.84,0-23.68,0-35.52-6.38-1.72-11.85-6.85-12.64-13.62l2.72-1.5-2.76-1.52c.74-7.56,7.17-13.47,14.63-14.19.38.68,1.15,2.07,1.54,2.75m-3.05,4.11c-5.67,1.44-8.84,8.88-5.06,13.64,4.08,6.36,15.26,4.82,17.19-2.6,2.28-6.92-5.62-13.41-12.13-11m-98.22,66.31c-5.39,1.25-9,6.62-9,12-.16,19.28,0,38.57-.08,57.85-.11,4,.53,8.45,3.57,11.4,2.86,3.17,7.34,3.83,11.41,3.81,64.47-.05,128.94,0,193.41-.05,6.63.35,13-5.22,12.87-12,.22-20,0-39.91.1-59.87.14-4.25-1.39-8.77-5-11.3-4.12-3.11-9.54-2.52-14.38-2.59q-90.27,0-180.54,0c-4.14,0-8.35-.3-12.4.68m31.35,152.64q0,70.56,0,141.11c25.63.09,51.28,0,76.92,0A46,46,0,0,1,269,835.05H218.63q0-5,0-10,26.28,0,52.57,0a102.14,102.14,0,0,1,5-10.2H218.64c0-3.33,0-6.66,0-10,22.2-.14,44.41.15,66.59-.14,7-4.9,14.9-8.85,23.54-9.69.08-10.19,0-20.39,0-30.58-10,0-20,0-30.06,0,.09-10,0-20.11.07-30.16-23.42,0-46.83,0-70.23,0m80.14,2q0,9.06,0,18.11,9.06,0,18.11,0c-6.1-6-12-12.14-18.11-18.12m17.83,69.88a34.7,34.7,0,0,0,12.45,68.23c13.08-1.8,24.36-11.95,27.94-24.6a34.86,34.86,0,0,0-10.79-36.1A34.43,34.43,0,0,0,306.49,806.2Z"/><path class="cls-9" d="M343.11,608.21h5.73q0,15.27,0,30.53c-2.1-.26-5,.72-6-1.82a7.22,7.22,0,0,1-10.38-.22c-2.9-3.25-3.23-8-2.57-12.06.62-3.54,3.1-7.31,7-7.54,2.34-.57,4.41.77,6.26,2-.09-3.63-.06-7.26-.05-10.9M336.46,623c-1.54,3.17-1.78,7.48.39,10.43,1.89,1.95,4.72.62,6.33-1-.11-3-.11-5.9,0-8.84C341.61,621.6,338.09,620.52,336.46,623Z"/><path class="cls-9" d="M241.85,609.82c1.84,0,3.68,0,5.53,0q5.44,14.4,10.79,28.85h-6.38c-.62-1.93-1.22-3.86-1.82-5.78-3.51-.11-7-.11-10.53-.09-.65,2-1.31,3.91-2,5.88h-6.34c3.54-9.63,7.14-19.24,10.71-28.85m2.8,7.33L241,628h7.23C247.05,624.37,245.85,620.75,244.65,617.15Z"/><path class="cls-9" d="M261.35,609.83c5.5.22,11.33-.8,16.57,1.29s5.55,10.22.52,12.75c2.75,1.29,4.81,4.13,4.2,7.3,0,4.05-3.82,6.85-7.56,7.24-4.56.53-9.16.17-13.73.25q0-14.42,0-28.83m5.88,4.73c0,2.43,0,4.86,0,7.31a57,57,0,0,0,6.53-.19c2.74-.69,3.3-4.94.94-6.36-2.39-.91-5-.63-7.47-.76m0,11.53c0,2.59,0,5.18,0,7.79,2.53-.14,5.2.38,7.64-.53,3.12-1.21,2.39-6.87-1-7.08A53.89,53.89,0,0,0,267.23,626.09Z"/><path class="cls-9" d="M291.43,617.76c3.42-1.17,7.74-1.22,10.5,1.46,1.79,1.51,2.14,3.93,2.71,6.08l-5.1,0c-.83-1.72-1.83-4.14-4.2-3.72-3.31-.09-4,3.87-3.86,6.42-.07,2.52.47,6.45,3.78,6.42,2.28.62,3.29-1.62,4.27-3.19,1.72,0,3.45,0,5.18,0-.48,8.28-12.24,10.45-16.75,4.23C284.36,630.07,285,620.75,291.43,617.76Z"/><path class="cls-9" d="M312.74,617.84c4.57-1.93,11-.65,13.26,4.12a13.56,13.56,0,0,1-1,13.55c-4.07,5.29-13.7,4.56-16.57-1.62-2.55-5.34-1.6-13.32,4.27-16m3,4c-3.39,1.48-3.08,6.13-2.57,9.19.49,4.18,7.14,4.54,8,.45C322.74,627.63,321.32,620.06,315.76,621.83Z"/><path class="cls-9" d="M352.3,623.64c1.15-8,14.28-9.22,17.4-2.12,1.18,5.64-.2,11.53,1.28,17.16-1.81,0-3.6,0-5.4,0l-1.23-1.54c-4.42,4.5-13.76.65-12.05-6,1.13-5.58,8.06-5.42,12.49-5.8-.53-1.39-.35-3.59-2.17-4l-3.42.07c-.24.58-.72,1.73-1,2.31-2,0-4,0-5.93-.09m6.66,6.14c-1.71.93-.76,3-.78,4.52,1.68,0,3.6.76,5.07-.43,1.8-1,1-3.29,1.36-4.9C362.72,629.12,360.69,628.84,359,629.78Z"/><path class="cls-9" d="M212.4,626.54c7.76-4.29,17.75,5.08,14.07,13.11-2.55,7.27-13.65,8.8-18,2.5C204.57,637.16,206.72,629.15,212.4,626.54Z"/><path class="cls-9" d="M218.67,794.82q0-5.1,0-10.2c26.7.09,53.42,0,80.12,0,0,3.38,0,6.77,0,10.16Z"/><path class="cls-9" d="M328.66,820.05c3.61,3.11,6.79,6.67,10.23,10-9.73,9.75-19.39,19.57-29.16,29.27-1.38,1.52-2.68-.94-3.7-1.67-5.7-5.94-11.73-11.55-17.26-17.64,3.38-3.24,6.65-6.59,9.91-9.92,3.39,3.32,6.72,6.73,10.08,10.08C315.36,833.4,322.09,826.81,328.66,820.05Z"/></g><g id="_ead1dcff" data-name="#ead1dcff"><path class="cls-10" d="M275.39,515.33c6.51-2.37,14.41,4.12,12.13,11-1.93,7.42-13.11,9-17.19,2.6C266.55,524.21,269.72,516.77,275.39,515.33Z"/></g></g></g></svg>