<?xml version="1.0" encoding="UTF-8" standalone="no"?>
<svg
   id="_Layer_"
   data-name="&lt;Layer&gt;"
   viewBox="0 0 816.00003 1056"
   version="1.1"
   sodipodi:docname="21424.svg"
   width="8.5in"
   height="11in"
   inkscape:version="1.1.2 (0a00cf5339, 2022-02-04)"
   xmlns:inkscape="http://www.inkscape.org/namespaces/inkscape"
   xmlns:sodipodi="http://sodipodi.sourceforge.net/DTD/sodipodi-0.dtd"
   xmlns="http://www.w3.org/2000/svg"
   xmlns:svg="http://www.w3.org/2000/svg">
  <sodipodi:namedview
     id="namedview271"
     pagecolor="#ffffff"
     bordercolor="#666666"
     borderopacity="1.0"
     inkscape:pageshadow="2"
     inkscape:pageopacity="0.0"
     inkscape:pagecheckerboard="0"
     showgrid="false"
     units="in"
     inkscape:zoom="0.37291238"
     inkscape:cx="-209.16442"
     inkscape:cy="722.68988"
     inkscape:window-width="1920"
     inkscape:window-height="1019"
     inkscape:window-x="0"
     inkscape:window-y="0"
     inkscape:window-maximized="1"
     inkscape:current-layer="_Layer_"
     inkscape:document-units="in" />
  <defs
     id="defs159">
    <style
       id="style157">.cls-1{fill:#706865;}.cls-2{fill:#bdafaa;}.cls-3{fill:#fff;}.cls-4{fill:#1e81ce;}.cls-5{fill:#9bc9ff;}.cls-6{fill:#1e82cf;}.cls-7{fill:#9ccaff;}.cls-8{fill:#eb008b;}.cls-9{fill:#90278e;}.cls-10{fill:#ead1dc;}</style>
  </defs>
  <g
     id="g411"
     transform="matrix(0.68221571,0,0,0.68221571,223.82727,160.15148)">
    <rect
       class="cls-1"
       x="412.59"
       y="411.57001"
       width="14.98"
       height="681.17999"
       id="rect161" />
    <rect
       class="cls-1"
       x="65.529999"
       y="411.57001"
       width="14.99"
       height="681.17999"
       id="rect163" />
    <rect
       class="cls-2"
       y="7.3800001"
       width="562.22998"
       height="972.95001"
       rx="51.290001"
       id="rect165"
       x="0" />
    <rect
       class="cls-3"
       x="15.43"
       y="23.040001"
       width="531.37"
       height="919.26001"
       rx="50.669998"
       id="rect167" />
    <rect
       class="cls-1"
       x="197.34"
       width="167.53999"
       height="37.830002"
       id="rect169"
       y="0" />
    <g
       id="_1e81ceff"
       data-name="#1e81ceff">
      <path
         class="cls-4"
         d="m 692.12,383.07 c 2.81,-3.43 6.39,-6.56 11,-7 5.37,-0.35 10.78,-0.22 16.15,-0.07 10.12,0.66 18.91,9.37 19.56,19.5 0.29,9.48 0,19 0.14,28.43 a 13,13 0 0 1 1,15.81 c -2.34,3.2 -6.51,3.58 -10.14,3.48 a 27.67,27.67 0 0 1 -7.35,18.46 c -3.05,2.3 -1.52,6.38 -1.84,9.63 8.16,2.11 16.39,4 24.56,6.21 a 34.44,34.44 0 0 1 18.33,13.08 c 7.34,-3.67 15.72,-5.73 23.93,-4.23 a 36.7,36.7 0 0 1 -6.23,72.93 q -71.07,0 -142.15,0 c -2.08,0.33 -4.33,-1.2 -3.95,-3.48 q -0.09,-23.58 0,-47.17 c 0.14,-14.19 10.53,-27.48 24.23,-31.12 q 12.23,-3.17 24.5,-6.12 c 0,-2.56 0,-5.13 0,-7.69 a 28.94,28.94 0 0 1 -9.2,-20.5 c -4,0.27 -8.53,-0.57 -10.7,-4.31 -2.51,-4.6 -2.15,-10.94 1.52,-14.83 0.16,-9.2 -0.09,-18.41 0.11,-27.6 a 15.49,15.49 0 0 1 11.84,-14.06 35.81,35.81 0 0 1 14.68,0.69 m 6.73,1.62 c -2.72,2.28 -2.14,6.26 -3.91,9.05 -3.63,2 -4.85,-2.12 -5.82,-4.73 -2.44,-1.56 -5.68,-0.72 -8.44,-0.82 -5,-0.16 -9.26,4.52 -9,9.43 -0.08,8 0,16.07 0,24.1 h 3.1 c 0,-3.39 -0.17,-6.79 0.07,-10.19 a 9.07,9.07 0 0 1 9.1,-8.11 q 18.21,-0.06 36.43,0 a 9.26,9.26 0 0 1 8.93,6.34 c 0.74,3.83 0.32,7.79 0.32,11.68 1,0.16 2.08,0.28 3.14,0.39 0,-8.08 0,-16.17 0,-24.25 a 15.18,15.18 0 0 0 -8.24,-13.88 c -4.24,-2.34 -9.24,-1.56 -13.88,-1.72 -4,0.06 -8.78,-0.61 -11.79,2.71 m -15.85,25 c -1.83,0.24 -2.19,2.34 -2.09,3.85 0,10.34 -0.09,20.68 0.06,31 0.37,10.49 9.71,19.6 20.17,19.88 a 21.43,21.43 0 0 0 20.73,-12.85 c 2.5,-5.55 1.72,-11.77 1.83,-17.68 -0.09,-7.25 0.15,-14.5 -0.09,-21.74 -0.28,-2.85 -3.4,-2.71 -5.53,-2.67 -11.7,0.17 -23.41,-0.21 -35.08,0.19 M 729.62,428 c 0.06,3 0.08,6 0.1,9.06 2,-0.36 4.84,0.45 5.89,-1.81 a 11.71,11.71 0 0 0 -0.11,-5.85 c -1.21,-2.14 -3.88,-1.37 -5.88,-1.4 m -60.8,1.7 a 13.48,13.48 0 0 0 -0.05,5.22 c 0.81,2.58 3.93,1.8 6,2.23 0,-3.16 0,-6.31 0,-9.46 -2,0.43 -4.89,-0.37 -5.94,2 M 690,467.76 c 0,1 0,3.05 0,4.06 4,2.56 8.22,4.92 12.26,7.49 q 6.1,-3.71 12.25,-7.35 c 0,-1.39 0,-2.78 0,-4.17 a 28.17,28.17 0 0 1 -24.51,0 m -10.3,10.84 c 2.66,4 5.22,8.09 8.13,11.92 3,-2.5 6,-4.93 9,-7.39 -3.61,-1.92 -6.86,-4.55 -10.68,-6 a 55.68,55.68 0 0 0 -6.5,1.51 m 27.88,4.54 c 3.06,2.5 6.14,5 9.27,7.38 2.61,-4 5.41,-7.84 7.8,-12 l -6.6,-1.65 c -3.49,2.08 -7,4.17 -10.47,6.23 m -33.76,-2.09 c 3.53,16 6.68,32.08 10.06,48.12 1.2,6.07 2.69,12.09 3.45,18.26 1.4,-6.58 1.34,-13.34 2.15,-20 0.81,-10.89 1.92,-21.75 2.71,-32.63 -2,1.39 -4.83,4.7 -7.28,2.33 -4,-5.16 -7.13,-10.91 -11.09,-16.09 m 45.66,16.26 c -2.65,2 -5.25,-1.15 -7.25,-2.57 1.58,17.49 2.89,35 4.65,52.5 4.55,-22.07 9.19,-44.13 13.66,-66.22 -3.78,5.38 -7.1,11.07 -11.06,16.29 m -67.83,-9.22 a 28,28 0 0 0 -10.57,22.72 c 0,14.09 -0.13,28.19 0.1,42.28 7.09,0 14.19,0 21.3,0 0,-10.53 0,-21.07 0,-31.61 0,-1.78 0.08,-4.64 2.4,-4.91 a 2.87,2.87 0 0 1 3.7,2.95 c 0.17,11.16 0,22.34 0,33.51 4.68,0.09 9.35,0.08 14,0 q -7.44,-35.58 -14.71,-71.21 c -5.79,0.81 -11.62,2.51 -16.24,6.24 m 85,-6.25 c -4.93,23.73 -9.73,47.5 -14.79,71.2 4.67,0 9.33,0 14,0 0,-11.24 -0.15,-22.49 0.07,-33.73 -0.23,-3.79 6.14,-3.76 6,0 0.22,11.26 0,22.52 0.07,33.76 6.44,0 12.89,0.07 19.33,-0.05 a 36.64,36.64 0 0 1 -16.22,-31.52 c 0,-10.66 5.53,-20.69 13.47,-27.6 A 31.43,31.43 0 0 0 736.6,481.83 m -37.88,7.66 c -0.09,1.48 -0.16,3 -0.25,4.44 a 13.82,13.82 0 0 0 7.44,0 c -0.1,-1.48 -0.19,-3 -0.28,-4.44 -1.17,-0.93 -2.32,-1.87 -3.47,-2.81 l -3.44,2.82 m 76.16,3.22 A 30.66,30.66 0 0 0 752.35,514 c -4.22,13.4 2.43,29.08 14.93,35.47 12.49,7 29.59,3.44 38.29,-7.91 a 30.54,30.54 0 0 0 -30.64,-48.84 m -77.09,7.56 q -2.16,26.4 -4.54,52.77 c 6,0 11.92,0 17.88,0 -1.63,-17.62 -3,-35.26 -4.62,-52.9 a 16,16 0 0 1 -8.72,0.16 z"
         transform="translate(-434.62,-299.72)"
         id="path171" />
      <path
         class="cls-4"
         d="m 691.61,446.77 c 1.67,-1.47 3.44,0.46 4.88,1.26 a 9.44,9.44 0 0 0 11.35,0.1 c 1.27,-0.63 2.26,-2.1 3.83,-1.9 2.16,-0.07 3.85,3.09 2.23,4.69 -5.7,6.86 -17.7,6.84 -23.32,-0.09 -1.15,-1.31 -0.24,-3.23 1.03,-4.06 z"
         transform="translate(-434.62,-299.72)"
         id="path173" />
      <path
         class="cls-4"
         d="m 775.91,499.14 c 1.46,-4.95 9.11,-5.48 11.22,-0.76 1.88,3 -0.07,6.25 -2.35,8.27 0,1.41 0,2.83 0,4.25 l 3.48,1 c 2.23,-1.79 2.62,-4.48 3.11,-7.11 1.88,-4.94 10.05,-4.38 11.32,0.77 1.7,4.6 -3.13,8.88 -7.6,8 l -3,2.84 c 0.52,1.07 1,2.14 1.54,3.22 l 3.68,-0.07 c 2.13,-2.27 5.44,-4.15 8.5,-2.4 4.11,1.87 4.53,8.14 0.63,10.47 -3,2.34 -6.82,0.46 -9.1,-2 l -3.74,-0.09 -1.53,3.38 c 1.48,1.3 2.9,3 5.08,2.84 4.21,-0.1 7.26,5.11 5,8.72 -1.56,3.6 -6.89,4.41 -9.6,1.66 -1.93,-1.55 -1.7,-4.24 -2.14,-6.43 l -2.29,-2.4 c -1.16,0.3 -2.31,0.63 -3.46,1 0,1.43 0,2.88 0.08,4.32 2.31,2 4.14,5.32 2.26,8.23 -2,4.3 -8.84,4.3 -10.83,0 -1.66,-2.54 -0.37,-5.51 1.49,-7.48 1.42,-1.35 0.68,-3.43 0.83,-5.16 -1.16,-0.27 -2.32,-0.56 -3.46,-0.86 -0.86,1 -1.7,1.93 -2.54,2.91 0.46,3.39 -1.56,7.21 -5.23,7.52 -4.75,1 -8.84,-5 -6.12,-9 1.31,-2.66 4.43,-3.19 7.1,-3.16 0.94,-0.9 1.9,-1.79 2.85,-2.67 -0.5,-1.12 -1,-2.23 -1.45,-3.34 -0.93,0 -2.81,0 -3.75,0.07 -1.78,1.47 -3.65,3.45 -6.21,3 -4.82,-0.14 -7.58,-6.69 -4.08,-10.12 2.84,-3.39 7.83,-2 10.32,1 l 3.71,0.06 c 0.51,-1.15 1,-2.3 1.53,-3.43 -1.79,-2.18 -4.31,-3 -7,-3.12 -5.45,-1.84 -4.7,-10.67 1,-11.53 4.43,-1.17 8.17,3.15 7.39,7.42 0.85,1 1.72,2 2.6,3 l 3.5,-1.11 c 1.52,-4.62 -4.87,-7.12 -2.79,-11.65 m 3.59,17.7 c -3.86,1.35 -5.39,6.8 -2.38,9.75 2.82,3.55 9,2.25 10.34,-2 2.05,-4.65 -3.41,-9.82 -7.91,-7.81 z"
         transform="translate(-434.62,-299.72)"
         id="path175" />
    </g>
    <g
       id="_9bc9ffff"
       data-name="#9bc9ffff">
      <path
         class="cls-5"
         d="m 698.85,384.69 c 3,-3.32 7.77,-2.65 11.79,-2.71 4.64,0.16 9.64,-0.62 13.88,1.72 a 15.18,15.18 0 0 1 8.24,13.88 c 0,8.08 0,16.17 0,24.25 -1.06,-0.11 -2.11,-0.23 -3.14,-0.39 0,-3.89 0.42,-7.85 -0.32,-11.68 a 9.26,9.26 0 0 0 -8.93,-6.34 q -18.21,-0.06 -36.43,0 a 9.07,9.07 0 0 0 -9.1,8.11 c -0.24,3.4 -0.06,6.8 -0.07,10.19 h -3.1 c 0.05,-8 -0.06,-16.07 0,-24.1 -0.28,-4.91 4,-9.59 9,-9.43 2.76,0.1 6,-0.74 8.44,0.82 1,2.61 2.19,6.7 5.82,4.73 1.78,-2.74 1.2,-6.74 3.92,-9.05 z"
         transform="translate(-434.62,-299.72)"
         id="path178" />
      <path
         class="cls-5"
         d="m 668.82,429.7 c 1,-2.38 3.89,-1.58 5.94,-2 0,3.15 0,6.3 0,9.46 -2,-0.43 -5.15,0.35 -6,-2.23 a 13.48,13.48 0 0 1 0.06,-5.23 z"
         transform="translate(-434.62,-299.72)"
         id="path180" />
      <path
         class="cls-5"
         d="m 679.7,478.63 a 55.68,55.68 0 0 1 6.5,-1.51 c 3.82,1.49 7.07,4.12 10.68,6 -3,2.46 -6,4.89 -9,7.39 -2.96,-3.79 -5.52,-7.87 -8.18,-11.88 z"
         transform="translate(-434.62,-299.72)"
         id="path182" />
      <path
         class="cls-5"
         d="m 707.58,483.17 c 3.5,-2.06 7,-4.15 10.47,-6.23 l 6.6,1.65 c -2.39,4.12 -5.19,8 -7.8,12 -3.13,-2.44 -6.21,-4.92 -9.27,-7.42 z"
         transform="translate(-434.62,-299.72)"
         id="path184" />
      <path
         class="cls-5"
         d="m 651.65,488.12 c 4.62,-3.73 10.45,-5.43 16.24,-6.24 q 7.2,35.63 14.71,71.21 c -4.67,0 -9.34,0 -14,0 0,-11.17 0.13,-22.35 0,-33.51 a 2.87,2.87 0 0 0 -3.7,-2.95 c -2.32,0.27 -2.35,3.13 -2.4,4.91 0,10.54 0,21.08 0,31.61 -7.11,0 -14.21,0 -21.3,0 -0.23,-14.09 -0.07,-28.19 -0.1,-42.28 a 28,28 0 0 1 10.55,-22.75 z"
         transform="translate(-434.62,-299.72)"
         id="path186" />
      <path
         class="cls-5"
         d="m 736.65,481.87 a 31.43,31.43 0 0 1 21.91,12.06 c -7.94,6.91 -13.43,16.94 -13.47,27.6 a 36.64,36.64 0 0 0 16.22,31.52 c -6.44,0.12 -12.89,0.05 -19.33,0.05 -0.05,-11.24 0.15,-22.5 -0.07,-33.76 0.16,-3.73 -6.21,-3.76 -6,0 -0.22,11.24 0,22.49 -0.07,33.73 -4.67,0 -9.33,0 -14,0 5.08,-23.7 9.88,-47.47 14.81,-71.2 z"
         transform="translate(-434.62,-299.72)"
         id="path188" />
      <path
         class="cls-5"
         d="m 698.77,489.53 3.44,-2.82 c 1.15,0.94 2.3,1.88 3.47,2.81 0.09,1.48 0.18,3 0.28,4.44 a 13.82,13.82 0 0 1 -7.44,0 c 0.09,-1.47 0.16,-2.96 0.25,-4.43 z"
         transform="translate(-434.62,-299.72)"
         id="path190" />
      <path
         class="cls-5"
         d="m 697.84,500.31 a 16,16 0 0 0 8.72,-0.11 c 1.6,17.64 3,35.28 4.62,52.9 -6,0 -11.91,0 -17.88,0 q 2.41,-26.39 4.54,-52.79 z"
         transform="translate(-434.62,-299.72)"
         id="path192" />
      <path
         class="cls-5"
         d="m 779.5,516.84 c 4.54,-2 10,3.17 8,7.75 -1.37,4.25 -7.52,5.55 -10.34,2 -3.05,-2.95 -1.52,-8.4 2.34,-9.75 z"
         transform="translate(-434.62,-299.72)"
         id="path194" />
    </g>
    <g
       id="_1e82cfff"
       data-name="#1e82cfff">
      <path
         class="cls-6"
         d="m 690.83,422.72 c 1.5,-2 4.82,-0.93 5.24,1.4 0.3,2.48 0.59,6 -2.44,6.87 -4.27,0.19 -4.57,-5.64 -2.8,-8.27 z"
         transform="translate(-434.62,-299.72)"
         id="path197" />
      <path
         class="cls-6"
         d="m 711.81,431.4 c -4.31,-0.93 -5,-7.76 -1.25,-9.68 5.26,-0.56 5.23,7.92 1.25,9.68 z"
         transform="translate(-434.62,-299.72)"
         id="path199" />
    </g>
    <g
       id="_9ccaffff"
       data-name="#9ccaffff">
      <path
         class="cls-7"
         d="m 729.62,428 c 2,0 4.67,-0.74 5.88,1.4 a 11.71,11.71 0 0 1 0.11,5.85 c -1.05,2.26 -3.92,1.45 -5.89,1.81 C 729.7,434 729.68,431 729.62,428 Z"
         transform="translate(-434.62,-299.72)"
         id="path202" />
    </g>
    <g
       id="_eb008bff"
       data-name="#eb008bff">
      <path
         class="cls-8"
         d="m 856.11,580.76 q 48.63,0 97.27,0 0.07,90.5 0,181 h -97.25 q 0,-90.51 0,-181 m 7,6.87 c 0,7 0,14 0,21 q 41.7,0 83.41,0 c -0.1,-7 0.07,-14 -0.1,-21 -27.77,0.07 -55.53,0 -83.28,0 m 0,27.81 c -0.05,7 0,14 0,21 q 41.7,0 83.4,0 c -0.06,-7 0,-13.95 0,-20.93 -27.77,-0.11 -55.55,0 -83.32,-0.06 m 0,28 c 0,6.93 0,13.87 0,20.79 h 83.4 c 0,-6.92 0,-13.86 0,-20.78 h -83.56 m 0,27.83 q 0,41.76 0,83.53 41.68,0 83.38,0 0,-41.76 0,-83.52 -41.7,0 -83.39,0.02 z"
         transform="translate(-434.62,-299.72)"
         id="path205" />
      <path
         class="cls-8"
         d="m 632.65,605.92 c -0.45,-7.95 6.91,-15.42 14.92,-14.94 q 64.62,0 129.28,0 c 4.11,-0.13 8.67,0.26 11.85,3.18 a 16.32,16.32 0 0 1 4.23,10.76 q 0,47.54 0,95.08 a 16.65,16.65 0 0 1 -4.25,11.67 14,14 0 0 1 -9.66,3 q -66.28,-0.06 -132.57,0 c -5.14,0.29 -9.18,-3.24 -12.29,-6.9 -2.2,-4.81 -1.4,-10.17 -1.54,-15.28 0.13,-3.32 -0.56,-6.85 1,-9.94 48.48,-0.25 97,0 145.42,-0.1 3.13,-0.9 5.38,3.57 2.29,5.14 a 54.28,54.28 0 0 1 -7.65,0.23 q -67.59,0 -135.17,0 c 0.07,4.76 -0.12,9.51 0.06,14.27 a 7.72,7.72 0 0 0 7.91,7.22 q 66.81,0.06 133.62,0 a 7.82,7.82 0 0 0 8,-8.21 q 0,-48.13 0,-96.26 c 0.3,-4.35 -3.49,-8.6 -8,-8.33 q -66.84,-0.09 -133.7,0 c -4.44,-0.21 -7.91,4.1 -7.93,8.3 -0.11,23.2 0.07,46.41 -0.08,69.61 0.3,3.55 -6,3.57 -5.76,0 -0.07,-22.83 0.06,-45.67 0.02,-68.5 z"
         transform="translate(-434.62,-299.72)"
         id="path207" />
      <path
         class="cls-8"
         d="m 487.57,594.51 c 20.92,-0.19 41.85,-0.08 62.76,-0.06 7.46,0 13.54,7.37 12.7,14.69 q -0.06,63.08 0,126.16 c 0.4,7 -5.66,13.52 -12.62,13.58 -20.33,0.1 -40.66,0 -61,0 -7.34,0.43 -14.12,-6.31 -13.65,-13.66 q 0,-63.62 0,-127.23 a 13.25,13.25 0 0 1 11.83,-13.53 M 482.43,608 c -0.1,4.45 0,8.88 0,13.33 h 74 c -0.07,-4.78 0.15,-9.55 -0.1,-14.32 a 6.63,6.63 0 0 0 -6.93,-5.87 q -30,0 -59.92,0 a 6.67,6.67 0 0 0 -7,6.86 m 0,107.44 h 74 q 0,-43.73 0,-87.44 h -74 q 0,43.71 0,87.44 m 0,20 a 6.69,6.69 0 0 0 7.05,6.86 q 29.91,0 59.85,0 a 6.69,6.69 0 0 0 7,-6.91 c 0.11,-4.43 0,-8.85 0,-13.28 q -37,0 -74,0 c 0.06,4.39 -0.05,8.83 0.05,13.28 z"
         transform="translate(-434.62,-299.72)"
         id="path209" />
      <path
         class="cls-8"
         d="m 507.72,608.21 c 6.59,-1 13.49,-0.16 20.22,-0.46 2.74,-0.61 5.84,1.74 4.74,4.7 -1.29,2.59 -4.55,2.09 -6.95,2.19 -5.68,-0.19 -11.4,0.31 -17.05,-0.26 -3.1,-0.23 -3.82,-4.96 -0.96,-6.17 z"
         transform="translate(-434.62,-299.72)"
         id="path211" />
      <path
         class="cls-8"
         d="m 494.13,638.54 a 28,28 0 0 1 9.91,-0.11 c 2.36,1 1.83,3.91 2,6 -0.14,2.35 0.58,5.69 -2.13,6.85 a 31.39,31.39 0 0 1 -9.53,-0.07 c -2.47,-1.27 -1.84,-4.5 -2,-6.79 0.1,-2 -0.3,-4.78 1.75,-5.88 z"
         transform="translate(-434.62,-299.72)"
         id="path213" />
      <path
         class="cls-8"
         d="m 514.37,638.48 a 32.68,32.68 0 0 1 9.16,-0.2 c 2.44,0.22 2.76,3.13 2.63,5.08 -0.19,2.6 0.87,6.33 -2,7.84 a 31,31 0 0 1 -9.62,0 c -2.53,-1.27 -1.87,-4.49 -2,-6.8 0.14,-2.05 -0.33,-4.78 1.83,-5.92 z"
         transform="translate(-434.62,-299.72)"
         id="path215" />
      <path
         class="cls-8"
         d="m 534.71,638.43 a 27.72,27.72 0 0 1 9.95,0.12 c 2.75,2.05 1.4,6.18 1.63,9.14 a 3.63,3.63 0 0 1 -4.39,3.8 c -3,-0.27 -8.07,1.29 -9,-2.74 0.23,-3.32 -1.47,-8.19 1.81,-10.32 z"
         transform="translate(-434.62,-299.72)"
         id="path217" />
      <path
         class="cls-8"
         d="m 494.12,662.07 a 26.52,26.52 0 0 1 9.89,-0.13 c 2.4,1 1.87,3.94 2,6 -0.13,2.35 0.58,5.77 -2.24,6.83 a 31.26,31.26 0 0 1 -9.51,-0.13 c -2.37,-1.32 -1.75,-4.48 -1.87,-6.73 0.08,-1.91 -0.32,-4.71 1.73,-5.84 z"
         transform="translate(-434.62,-299.72)"
         id="path219" />
      <path
         class="cls-8"
         d="m 514.44,662 a 28.62,28.62 0 0 1 9.77,0 c 3.15,1.84 1.61,6.24 1.91,9.26 0.31,2.55 -2.21,4.25 -4.55,3.81 -2.94,-0.28 -7.64,1.24 -8.83,-2.53 0.26,-3.45 -1.51,-8.22 1.7,-10.54 z"
         transform="translate(-434.62,-299.72)"
         id="path221" />
      <path
         class="cls-8"
         d="m 534.76,661.93 c 3.41,-0.32 7.29,-1 10.47,0.51 1.95,2.86 0.95,6.66 1,9.91 -0.94,3.91 -5.79,2.39 -8.69,2.68 -2.38,0.43 -5.07,-1.21 -4.67,-3.88 0.25,-3 -1.3,-7.45 1.89,-9.22 z"
         transform="translate(-434.62,-299.72)"
         id="path223" />
      <path
         class="cls-8"
         d="m 870,678.22 h 69.49 V 727 H 870 q 0,-24.4 0,-48.78 m 7,7 q 0,7 0,13.94 27.76,0 55.55,0 c 0,-4.65 0,-9.28 0,-13.92 -18.53,0 -37,0 -55.58,0 m 0,20.82 c 0,4.63 0,9.27 0,13.91 18.54,0 37.08,0 55.62,0 q 0,-7 0,-13.94 z"
         transform="translate(-434.62,-299.72)"
         id="path225" />
      <path
         class="cls-8"
         d="m 495,685.33 a 36,36 0 0 1 9,0.15 c 2.38,1 1.86,3.92 2,6 -0.15,2.36 0.6,5.77 -2.22,6.84 a 31.19,31.19 0 0 1 -9.5,-0.12 c -2.41,-1.26 -1.77,-4.51 -1.9,-6.77 -0.13,-2.26 -0.21,-5.74 2.62,-6.1 z"
         transform="translate(-434.62,-299.72)"
         id="path227" />
      <path
         class="cls-8"
         d="m 514.42,685.53 c 3.36,-0.46 7.06,-0.8 10.35,0.21 2.46,2.72 1.1,6.89 1.25,10.24 -1.4,4.09 -6.68,2.2 -9.9,2.52 -2.69,0.27 -3.91,-2.74 -3.53,-5 0.25,-2.63 -0.92,-6.31 1.83,-7.97 z"
         transform="translate(-434.62,-299.72)"
         id="path229" />
      <path
         class="cls-8"
         d="m 710.93,693.77 c 3.42,-2.08 8.25,1.21 7.75,5.13 0,4.13 -5.66,6.74 -8.72,3.8 -3.05,-2.19 -2.46,-7.42 0.97,-8.93 z"
         transform="translate(-434.62,-299.72)"
         id="path231" />
      <path
         class="cls-8"
         d="m 697.34,723.44 c -0.28,-1.92 1.46,-2.94 2.62,-4.09 0.58,0.54 1.72,1.63 2.29,2.18 0.9,4.81 0.2,9.76 0.37,14.64 4.52,0.06 9.07,-0.26 13.57,0.15 2,0 3.39,2.51 2,4 -0.8,1.55 -2.93,0.93 -4.32,1.18 -8.26,0.1 -16.53,-0.24 -24.78,0.1 -3.35,0 -5.56,2.79 -7.6,5 21.14,0.49 42.31,0.06 63.45,0.24 -1.52,-2 -3.05,-4.31 -5.64,-4.95 -3.43,-0.87 -7,-0.3 -10.5,-0.44 -1.55,-0.2 -4.63,0.41 -4.64,-2 -0.41,-5.37 -0.19,-10.78 -0.13,-16.15 -0.3,-1.92 1.45,-2.94 2.62,-4.07 0.58,0.54 1.71,1.63 2.27,2.18 0.9,4.8 0.21,9.74 0.39,14.61 4.2,0.08 8.59,-0.46 12.62,1 5.07,2.14 9,7.44 8.7,13.06 -0.15,1.73 -2.22,2.15 -3.62,2.09 -10.35,0.09 -20.7,0 -31,0 -0.08,17.14 0.13,34.28 0.14,51.42 l 6.4,-4.27 c -2.68,5.34 -5.3,10.69 -8,16 -0.48,0.93 -1,1.88 -1.46,2.82 -0.38,-0.68 -1.15,-2.07 -1.54,-2.75 -2.75,-5.32 -5.34,-10.71 -8,-16 l 6.25,4.14 c 0,-17.11 -0.23,-34.22 -0.13,-51.32 -10.64,-0.17 -21.32,0.34 -31.94,-0.24 -3.69,-2.26 -0.79,-7.55 1.09,-10.28 4.11,-6.12 12,-6 18.58,-5.68 -0.06,-4.1 -0.25,-8.34 -0.06,-12.57 z"
         transform="translate(-434.62,-299.72)"
         id="path233" />
      <path
         class="cls-8"
         d="m 516.49,726.1 c 4.14,-2.25 9.67,1.24 9.66,5.88 0.33,5.19 -6.25,9 -10.48,5.8 -4.35,-2.59 -3.86,-9.78 0.82,-11.68 z"
         transform="translate(-434.62,-299.72)"
         id="path235" />
      <path
         class="cls-8"
         d="m 930,734.44 c 5,-2.46 11.15,3.31 9.17,8.47 -1.16,4.57 -7.37,6.51 -10.94,3.42 -4.23,-3 -3.11,-10.24 1.77,-11.89 z"
         transform="translate(-434.62,-299.72)"
         id="path237" />
      <path
         class="cls-8"
         d="m 515.1,752.35 h 6.41 V 828 q 81.74,0 163.46,0 c -1.38,-2.07 -2.77,-4.13 -4.14,-6.21 5.36,2.67 10.72,5.3 16,8 l 2.76,1.51 -2.71,1.51 c -5.33,2.76 -10.75,5.37 -16.11,8.08 l 4.32,-6.5 c -55.62,-0.05 -111.25,0.08 -166.86,-0.06 -2.75,0.28 -3.33,-2.85 -3.18,-4.92 z"
         transform="translate(-434.62,-299.72)"
         id="path239" />
      <path
         class="cls-8"
         d="m 904.08,764.1 h 6.41 c -0.08,22.45 0.16,44.92 -0.12,67.36 0,2.7 -3.09,3 -5.1,2.9 q -82.31,0 -164.59,0 2.1,3.2 4.22,6.38 c -5.29,-2.68 -10.63,-5.26 -15.89,-8 -1.07,-0.58 -2.15,-1.14 -3.21,-1.71 l 3.25,-1.65 c 5.27,-2.64 10.54,-5.29 15.83,-7.88 q -2.16,3.21 -4.3,6.45 h 163.5 z"
         transform="translate(-434.62,-299.72)"
         id="path241" />
      <path
         class="cls-8"
         d="m 635.2,909 c 5.11,-1.86 11.42,0.69 13.27,5.92 2.7,6 -1.81,13.6 -8.34,14.12 -3.62,0.07 -7.2,3.39 -6.06,7.19 1.5,3.82 2.73,8.41 0.19,12.1 -3.12,5.51 -11.45,6.51 -15.93,2.15 -4.4,-4 -4.36,-11.7 0.31,-15.47 2.86,-3.24 8.35,-1.41 10.77,-5.17 1.89,-2.43 0.51,-5.47 -0.39,-8 A 10.33,10.33 0 0 1 635.2,909 Z"
         transform="translate(-434.62,-299.72)"
         id="path243" />
    </g>
    <g
       id="_90278eff"
       data-name="#90278eff">
      <path
         class="cls-9"
         d="m 713.05,818.32 c 0.48,-0.94 1,-1.89 1.46,-2.82 3.45,0.91 7.06,2 9.65,4.56 2.73,2.4 3.79,6 4.89,9.32 L 725.8,831 c 1.06,0.57 2.14,1.13 3.21,1.71 a 17.1,17.1 0 0 1 -13,13.7 c 0,11.83 0,23.65 0,35.48 q 47.57,0 95.11,0 c 10.41,-0.75 19.85,8.53 19.24,19 0,19.6 0,39.19 0,58.78 1.15,10.4 -7.49,20.69 -18.16,20.31 h -96.07 q 0,25.65 0,51.29 c 3.11,0 6.21,0 9.32,0 8.6,8.56 17.09,17.22 25.7,25.77 1,1.15 2.44,2.29 2.27,4 -0.12,13.66 -0.06,27.32 -0.08,41 17.51,2.09 34.09,15 37.83,32.67 3.25,11 1.62,22.81 -2.68,33.26 -6.77,13.73 -20.93,22.94 -36,24.66 H 632.65 v -161.37 h 77.08 V 980 q -47.64,0 -95.28,0 c -9.67,0.25 -18.09,-8.49 -18,-18.08 -0.11,-20.35 0,-40.7 0,-61.06 a 18.49,18.49 0 0 1 9.75,-16.8 c 4.48,-2.53 9.78,-2.09 14.72,-2.1 q 44.32,0 88.65,0 c 0,-11.84 0,-23.68 0,-35.52 -6.38,-1.72 -11.85,-6.85 -12.64,-13.62 l 2.71,-1.51 -2.76,-1.51 c 0.74,-7.56 7.18,-13.47 14.63,-14.19 0.39,0.68 1.16,2.07 1.54,2.75 m -3,4.11 c -5.68,1.44 -8.84,8.88 -5.07,13.64 4.08,6.36 15.26,4.82 17.2,-2.6 2.27,-6.92 -5.62,-13.42 -12.13,-11 m -98.22,66.3 c -5.4,1.25 -9,6.63 -9,12 -0.16,19.28 0,38.56 -0.07,57.85 -0.11,4 0.52,8.44 3.57,11.39 2.86,3.18 7.34,3.84 11.41,3.82 64.47,-0.05 128.94,0 193.41,-0.05 6.63,0.35 13,-5.22 12.87,-12 0.22,-19.95 0,-39.92 0.09,-59.87 0.14,-4.25 -1.39,-8.77 -5,-11.3 -4.11,-3.11 -9.53,-2.53 -14.37,-2.59 q -90.27,0 -180.54,0 c -4.14,0 -8.35,-0.3 -12.4,0.67 m 31.34,152.65 q 0,70.56 0,141.11 c 25.64,0.08 51.29,0 76.92,0 a 46,46 0 0 1 -16.48,-40.37 h -50.34 q 0,-5 0,-10 26.29,0 52.58,0 a 101.09,101.09 0 0 1 5,-10.2 h -57.57 c 0,-3.33 0,-6.67 0,-10 22.2,-0.14 44.4,0.15 66.59,-0.14 7,-4.9 14.89,-8.85 23.54,-9.69 0.07,-10.2 0,-20.39 0,-30.59 -10,0 -20,0 -30.06,0 0.08,-10 0,-20.11 0.06,-30.16 -23.41,0 -46.82,0 -70.23,0 m 80.15,2 q 0,9.06 0,18.11 c 6,0 12.06,0 18.1,0 -6.09,-6 -12,-12.14 -18.1,-18.12 m 17.82,69.88 a 34.7,34.7 0 0 0 12.45,68.23 c 13.08,-1.8 24.37,-12 28,-24.6 a 34.88,34.88 0 0 0 -10.79,-36.1 34.45,34.45 0 0 0 -29.68,-7.44 z"
         transform="translate(-434.62,-299.72)"
         id="path246" />
      <path
         class="cls-9"
         d="m 777.73,915.31 h 5.72 q 0,15.26 0,30.53 c -2.09,-0.27 -5,0.72 -6,-1.83 a 7.23,7.23 0 0 1 -10.39,-0.21 c -2.89,-3.25 -3.22,-8 -2.56,-12.06 0.62,-3.54 3.1,-7.31 7,-7.54 2.34,-0.57 4.41,0.77 6.26,2 -0.1,-3.63 -0.06,-7.27 0,-10.9 m -6.65,14.8 c -1.54,3.16 -1.79,7.48 0.38,10.43 1.9,2 4.73,0.62 6.34,-1 q -0.18,-4.42 0,-8.84 c -1.6,-1.99 -5.13,-3.07 -6.75,-0.58 z"
         transform="translate(-434.62,-299.72)"
         id="path248" />
      <path
         class="cls-9"
         d="M 676.46,916.91 H 682 q 5.43,14.42 10.78,28.86 h -6.38 q -0.93,-2.89 -1.81,-5.78 c -3.51,-0.11 -7,-0.11 -10.53,-0.09 -0.65,2 -1.32,3.91 -2,5.88 h -6.33 c 3.53,-9.63 7.13,-19.24 10.7,-28.86 m 2.8,7.33 q -1.78,5.43 -3.61,10.84 h 7.24 c -1.19,-3.62 -2.39,-7.24 -3.6,-10.85 z"
         transform="translate(-434.62,-299.72)"
         id="path250" />
      <path
         class="cls-9"
         d="m 696,916.92 c 5.5,0.23 11.32,-0.8 16.57,1.3 5.25,2.1 5.55,10.21 0.51,12.75 2.76,1.29 4.81,4.13 4.2,7.3 0,4.05 -3.81,6.85 -7.55,7.24 -4.57,0.52 -9.16,0.17 -13.73,0.25 q 0,-14.41 0,-28.84 m 5.87,4.74 c 0,2.42 0,4.86 0,7.31 a 59.34,59.34 0 0 0 6.53,-0.19 c 2.75,-0.69 3.3,-4.94 0.94,-6.36 -2.38,-0.91 -5,-0.63 -7.47,-0.76 m 0,11.53 c 0,2.59 0,5.18 0,7.79 2.54,-0.14 5.21,0.37 7.64,-0.53 3.12,-1.21 2.4,-6.88 -1,-7.08 a 54.05,54.05 0 0 0 -6.67,-0.18 z"
         transform="translate(-434.62,-299.72)"
         id="path252" />
      <path
         class="cls-9"
         d="m 726.05,924.85 c 3.42,-1.16 7.73,-1.21 10.49,1.47 1.8,1.5 2.15,3.93 2.72,6.08 h -5.1 c -0.84,-1.72 -1.83,-4.14 -4.2,-3.72 -3.31,-0.09 -4,3.87 -3.86,6.42 -0.07,2.52 0.47,6.44 3.77,6.42 2.29,0.62 3.29,-1.62 4.28,-3.19 1.72,0 3.45,0 5.18,0 -0.48,8.28 -12.25,10.45 -16.76,4.23 -3.57,-5.4 -2.99,-14.71 3.48,-17.71 z"
         transform="translate(-434.62,-299.72)"
         id="path254" />
      <path
         class="cls-9"
         d="m 747.36,924.94 c 4.57,-1.93 11,-0.65 13.26,4.11 a 13.55,13.55 0 0 1 -1,13.55 c -4.08,5.29 -13.7,4.57 -16.58,-1.61 -2.54,-5.34 -1.59,-13.33 4.28,-16 m 3,4 c -3.4,1.48 -3.09,6.13 -2.58,9.19 0.5,4.17 7.14,4.54 8,0.44 1.62,-3.89 0.2,-11.46 -5.36,-9.69 z"
         transform="translate(-434.62,-299.72)"
         id="path256" />
      <path
         class="cls-9"
         d="m 786.92,930.74 c 1.15,-8 14.27,-9.22 17.39,-2.12 1.19,5.64 -0.19,11.53 1.29,17.16 -1.81,0 -3.61,0 -5.4,0 l -1.2,-1.55 c -4.42,4.5 -13.76,0.65 -12.05,-6 1.13,-5.58 8.05,-5.42 12.49,-5.8 -0.54,-1.4 -0.35,-3.59 -2.17,-4 l -3.42,0.08 c -0.25,0.58 -0.73,1.73 -1,2.31 -2,0 -4,-0.05 -5.93,-0.09 m 6.65,6.14 c -1.71,0.93 -0.75,3 -0.78,4.52 1.68,0 3.61,0.76 5.08,-0.43 1.8,-1 1,-3.29 1.36,-4.91 -1.89,0.16 -3.92,-0.11 -5.66,0.83 z"
         transform="translate(-434.62,-299.72)"
         id="path258" />
      <path
         class="cls-9"
         d="m 647,933.64 c 7.77,-4.29 17.75,5.07 14.08,13.11 -2.56,7.27 -13.65,8.79 -18,2.5 -3.89,-4.99 -1.74,-13 3.92,-15.61 z"
         transform="translate(-434.62,-299.72)"
         id="path260" />
      <path
         class="cls-9"
         d="m 653.29,1101.91 q -0.06,-5.09 0,-10.19 c 26.7,0.08 53.42,0 80.12,0 0,3.38 0,6.77 0,10.15 z"
         transform="translate(-434.62,-299.72)"
         id="path262" />
      <path
         class="cls-9"
         d="m 763.28,1127.14 c 3.61,3.11 6.78,6.68 10.23,10 -9.73,9.76 -19.39,19.58 -29.17,29.27 -1.38,1.53 -2.67,-0.94 -3.7,-1.66 -5.69,-5.94 -11.73,-11.55 -17.25,-17.65 3.37,-3.23 6.64,-6.58 9.9,-9.91 3.4,3.32 6.72,6.73 10.09,10.07 6.62,-6.76 13.33,-13.35 19.9,-20.12 z"
         transform="translate(-434.62,-299.72)"
         id="path264" />
    </g>
    <g
       id="_ead1dcff"
       data-name="#ead1dcff">
      <path
         class="cls-10"
         d="m 710,822.43 c 6.51,-2.38 14.4,4.12 12.13,11 -1.94,7.42 -13.12,9 -17.2,2.6 -3.76,-4.72 -0.6,-12.16 5.07,-13.6 z"
         transform="translate(-434.62,-299.72)"
         id="path267" />
    </g>
  </g>
</svg>
