<?xml version="1.0" encoding="utf-8"?>
<!-- Generator: Adobe Illustrator 24.1.2, SVG Export Plug-In . SVG Version: 6.00 Build 0)  -->
<svg version="1.1"
	 id="_Layer_" xmlns:inkscape="http://www.inkscape.org/namespaces/inkscape" xmlns:sodipodi="http://sodipodi.sourceforge.net/DTD/sodipodi-0.dtd" xmlns:svg="http://www.w3.org/2000/svg"
	 xmlns="http://www.w3.org/2000/svg" xmlns:xlink="http://www.w3.org/1999/xlink" x="0px" y="0px" viewBox="0 0 612 792"
	 style="enable-background:new 0 0 612 792;" xml:space="preserve">
<style type="text/css">
	.st0{fill:#706865;}
	.st1{fill:#BDAFAA;}
	.st2{fill:#FFFFFF;}
	.st3{fill:#1E81CE;}
	.st4{fill:#9BC9FF;}
	.st5{fill:#1E82CF;}
	.st6{fill:#9CCAFF;}
	.st7{fill:#EB008B;}
	.st8{fill:#90278E;}
	.st9{fill:#EAD1DC;}
	.st10{fill:none;}
</style>
<sodipodi:namedview  bordercolor="#666666" borderopacity="1.0" id="namedview271" inkscape:current-layer="_Layer_" inkscape:cx="-209.16442" inkscape:cy="722.68988" inkscape:document-units="in" inkscape:pagecheckerboard="0" inkscape:pageopacity="0.0" inkscape:pageshadow="2" inkscape:window-height="1019" inkscape:window-maximized="1" inkscape:window-width="1920" inkscape:window-x="0" inkscape:window-y="0" inkscape:zoom="0.37291238" pagecolor="#ffffff" showgrid="false" units="in">
	</sodipodi:namedview>
<rect id="rect161" x="379" y="330.7" class="st0" width="7.7" height="348.5"/>
<rect id="rect163" x="201.4" y="330.7" class="st0" width="7.7" height="348.5"/>
<path id="rect165" class="st1" d="M194.1,123.9h235.2c14.5,0,26.2,11.7,26.2,26.2v445.3c0,14.5-11.7,26.2-26.2,26.2H194.1
	c-14.5,0-26.2-11.7-26.2-26.2V150.1C167.9,135.6,179.6,123.9,194.1,123.9z"/>
<path id="rect167" class="st2" d="M201.7,131.9h220c14.3,0,25.9,11.6,25.9,25.9v418.5c0,14.3-11.6,25.9-25.9,25.9h-220
	c-14.3,0-25.9-11.6-25.9-25.9V157.8C175.8,143.5,187.4,131.9,201.7,131.9z"/>
<rect id="rect169" x="268.8" y="120.1" class="st0" width="85.7" height="19.4"/>
<g id="_1e81ceff">
	<path id="path171" class="st3" d="M299.6,162.8c1.4-1.8,3.3-3.4,5.6-3.6c2.7-0.2,5.5-0.1,8.3,0c5.2,0.3,9.7,4.8,10,10
		c0.1,4.9,0,9.7,0.1,14.5c2,2.3,2.2,5.6,0.5,8.1c-1.2,1.6-3.3,1.8-5.2,1.8c0,3.5-1.4,6.9-3.8,9.4c-1.6,1.2-0.8,3.3-0.9,4.9
		c4.2,1.1,8.4,2,12.6,3.2c3.8,1.1,7.1,3.5,9.4,6.7c3.8-1.9,8-2.9,12.2-2.2c10.2,1.7,17.2,11.3,15.5,21.5
		c-1.5,9.2-9.4,15.9-18.7,15.8c-24.2,0-48.5,0-72.7,0c-1.1,0.2-2.2-0.6-2-1.8c0-8,0-16.1,0-24.1c0.1-7.3,5.4-14.1,12.4-15.9
		c4.2-1.1,8.4-2.1,12.5-3.1c0-1.3,0-2.6,0-3.9c-2.9-2.7-4.6-6.5-4.7-10.5c-2,0.1-4.4-0.3-5.5-2.2c-1.3-2.4-1.1-5.6,0.8-7.6
		c0.1-4.7,0-9.4,0.1-14.1c0.2-3.5,2.7-6.4,6.1-7.2C294.6,162,297.2,162.1,299.6,162.8 M303.1,163.6c-1.4,1.2-1.1,3.2-2,4.6
		c-1.9,1-2.5-1.1-3-2.4c-1.2-0.8-2.9-0.4-4.3-0.4c-2.6-0.1-4.7,2.3-4.6,4.8c0,4.1,0,8.2,0,12.3h1.6c0-1.7-0.1-3.5,0-5.2
		c0.3-2.4,2.3-4.2,4.7-4.1c6.2,0,12.4,0,18.6,0c2.1,0,3.9,1.3,4.6,3.2c0.4,2,0.2,4,0.2,6c0.5,0.1,1.1,0.1,1.6,0.2
		c0-4.1,0-8.3,0-12.4c0.1-3-1.6-5.7-4.2-7.1c-2.2-1.2-4.7-0.8-7.1-0.9C307.1,162.3,304.6,161.9,303.1,163.6 M295,176.4
		c-0.9,0.1-1.1,1.2-1.1,2c0,5.3,0,10.6,0,15.9c0.2,5.4,5,10,10.3,10.2c4.6,0.2,8.8-2.4,10.6-6.6c1.3-2.8,0.9-6,0.9-9
		c0-3.7,0.1-7.4,0-11.1c-0.1-1.5-1.7-1.4-2.8-1.4C306.9,176.4,300.9,176.2,295,176.4 M318.8,185.7c0,1.5,0,3.1,0.1,4.6
		c1-0.2,2.5,0.2,3-0.9c0.2-1,0.2-2-0.1-3C321.2,185.4,319.8,185.8,318.8,185.7 M287.7,186.6c-0.2,0.9-0.2,1.8,0,2.7
		c0.4,1.3,2,0.9,3.1,1.1c0-1.6,0-3.2,0-4.8C289.7,185.8,288.2,185.4,287.7,186.6 M298.5,206.1c0,0.5,0,1.6,0,2.1
		c2,1.3,4.2,2.5,6.3,3.8c2.1-1.3,4.2-2.5,6.3-3.8c0-0.7,0-1.4,0-2.1C307.1,208,302.5,208,298.5,206.1 M293.3,211.7
		c1.4,2,2.7,4.1,4.2,6.1c1.5-1.3,3.1-2.5,4.6-3.8c-1.8-1-3.5-2.3-5.5-3.1C295.4,211.1,294.3,211.4,293.3,211.7 M307.5,214
		c1.6,1.3,3.1,2.6,4.7,3.8c1.3-2,2.8-4,4-6.1l-3.4-0.8C311.1,211.9,309.3,212.9,307.5,214 M290.2,212.9c1.8,8.2,3.4,16.4,5.1,24.6
		c0.6,3.1,1.4,6.2,1.8,9.3c0.7-3.4,0.7-6.8,1.1-10.2c0.4-5.6,1-11.1,1.4-16.7c-1,0.7-2.5,2.4-3.7,1.2
		C293.9,218.5,292.3,215.6,290.2,212.9 M313.6,221.2c-1.4,1-2.7-0.6-3.7-1.3c0.8,8.9,1.5,17.9,2.4,26.9c2.3-11.3,4.7-22.6,7-33.9
		C317.3,215.6,315.6,218.6,313.6,221.2 M278.9,216.5c-3.5,2.8-5.5,7.1-5.4,11.6c0,7.2-0.1,14.4,0.1,21.6c3.6,0,7.3,0,10.9,0
		c0-5.4,0-10.8,0-16.2c0-0.9,0-2.4,1.2-2.5c0.8-0.2,1.6,0.2,1.8,1c0.1,0.2,0.1,0.4,0.1,0.5c0.1,5.7,0,11.4,0,17.1c2.4,0,4.8,0,7.2,0
		c-2.5-12.1-5-24.3-7.5-36.4C284.2,213.7,281.2,214.6,278.9,216.5 M322.4,213.3c-2.5,12.1-5,24.3-7.6,36.4c2.4,0,4.8,0,7.2,0
		c0-5.8-0.1-11.5,0-17.3c-0.1-1.9,3.1-1.9,3.1,0c0.1,5.8,0,11.5,0,17.3c3.3,0,6.6,0,9.9,0c-5.4-3.6-8.5-9.7-8.3-16.1
		c0-5.5,2.8-10.6,6.9-14.1C330.9,215.9,326.8,213.7,322.4,213.3 M303,217.2c0,0.8-0.1,1.5-0.1,2.3c1.2,0.3,2.6,0.3,3.8,0
		c-0.1-0.8-0.1-1.5-0.1-2.3c-0.6-0.5-1.2-1-1.8-1.4L303,217.2 M342,218.9c-5.5,1.3-9.9,5.4-11.5,10.9c-2.2,6.9,1.2,14.9,7.6,18.1
		c6.4,3.6,15.1,1.8,19.6-4c5.4-6.7,4.3-16.6-2.5-22C351.5,218.9,346.6,217.8,342,218.9 M302.6,222.7c-0.7,9-1.5,18-2.3,27
		c3.1,0,6.1,0,9.1,0c-0.8-9-1.5-18-2.4-27.1C305.6,223.1,304,223.1,302.6,222.7L302.6,222.7z"/>
	<path id="path173" class="st3" d="M299.4,195.4c0.9-0.8,1.8,0.2,2.5,0.6c1.7,1.3,4.1,1.3,5.8,0.1c0.6-0.3,1.2-1.1,2-1
		c1.1,0,2,1.6,1.1,2.4c-2.9,3.5-9.1,3.5-11.9,0C298.2,196.8,298.7,195.8,299.4,195.4L299.4,195.4z"/>
	<path id="path175" class="st3" d="M342.5,222.1c0.7-2.5,4.7-2.8,5.7-0.4c1,1.5,0,3.2-1.2,4.2c0,0.7,0,1.4,0,2.2l1.8,0.5
		c1.1-0.9,1.3-2.3,1.6-3.6c1-2.5,5.1-2.2,5.8,0.4c0.9,2.4-1.6,4.5-3.9,4.1l-1.5,1.5c0.3,0.5,0.5,1.1,0.8,1.6h1.9
		c1.1-1.2,2.8-2.1,4.3-1.2c2.1,1,2.3,4.2,0.3,5.4c-1.5,1.2-3.5,0.2-4.7-1h-1.9l-0.8,1.7c0.8,0.7,1.5,1.5,2.6,1.5
		c2.2-0.1,3.7,2.6,2.6,4.5c-0.8,1.8-3.5,2.3-4.9,0.8c-1-0.8-0.9-2.2-1.1-3.3l-1.2-1.2c-0.6,0.2-1.2,0.3-1.8,0.5c0,0.7,0,1.5,0,2.2
		c1.2,1,2.1,2.7,1.2,4.2c-1,2.2-4.5,2.2-5.5,0c-0.8-1.3-0.2-2.8,0.8-3.8c0.7-0.7,0.3-1.8,0.4-2.6c-0.6-0.1-1.2-0.3-1.8-0.4
		c-0.4,0.5-0.9,1-1.3,1.5c0.2,1.7-0.8,3.7-2.7,3.8c-2.4,0.5-4.5-2.6-3.1-4.6c0.7-1.4,2.3-1.6,3.6-1.6c0.5-0.5,1-0.9,1.5-1.4
		c-0.3-0.6-0.5-1.1-0.7-1.7c-0.5,0-1.4,0-1.9,0c-0.9,0.8-1.9,1.8-3.2,1.5c-2.5-0.1-3.9-3.4-2.1-5.2c1.5-1.7,4-1,5.3,0.5h1.9
		c0.3-0.6,0.5-1.2,0.8-1.8c-0.9-1.1-2.2-1.5-3.6-1.6c-2.8-0.9-2.4-5.5,0.5-5.9c2.3-0.6,4.2,1.6,3.8,3.8c0.4,0.5,0.9,1,1.3,1.5
		l1.8-0.6C344.7,225.8,341.4,224.5,342.5,222.1 M344.3,231.2c-2,0.7-2.8,3.5-1.2,5c1.4,1.8,4.6,1.2,5.3-1
		C349.4,232.8,346.6,230.2,344.3,231.2L344.3,231.2z"/>
</g>
<g id="_9bc9ffff">
	<path id="path178" class="st4" d="M303.1,163.6c1.5-1.7,4-1.4,6-1.4c2.4,0.1,4.9-0.3,7.1,0.9c2.7,1.4,4.3,4.1,4.2,7.1
		c0,4.1,0,8.3,0,12.4c-0.5-0.1-1.1-0.1-1.6-0.2c0-2,0.2-4-0.2-6c-0.7-2-2.5-3.3-4.6-3.2c-6.2,0-12.4,0-18.6,0
		c-2.4,0-4.4,1.8-4.7,4.1c-0.1,1.7,0,3.5,0,5.2h-1.6c0-4.1,0-8.2,0-12.3c-0.1-2.5,2-4.9,4.6-4.8c1.4,0.1,3.1-0.4,4.3,0.4
		c0.5,1.3,1.1,3.4,3,2.4C302,166.8,301.7,164.8,303.1,163.6L303.1,163.6z"/>
	<path id="path180" class="st4" d="M287.7,186.6c0.5-1.2,2-0.8,3-1c0,1.6,0,3.2,0,4.8c-1-0.2-2.6,0.2-3.1-1.1
		C287.5,188.4,287.5,187.5,287.7,186.6L287.7,186.6z"/>
	<path id="path182" class="st4" d="M293.3,211.7c1.1-0.3,2.2-0.6,3.3-0.8c2,0.8,3.6,2.1,5.5,3.1c-1.5,1.3-3.1,2.5-4.6,3.8
		C295.9,215.8,294.6,213.7,293.3,211.7z"/>
	<path id="path184" class="st4" d="M307.5,214c1.8-1.1,3.6-2.1,5.4-3.2l3.4,0.8c-1.2,2.1-2.7,4.1-4,6.1
		C310.7,216.5,309.1,215.3,307.5,214L307.5,214z"/>
	<path id="path186" class="st4" d="M278.9,216.5c2.4-1.9,5.3-2.8,8.3-3.2c2.5,12.2,5,24.3,7.5,36.4c-2.4,0-4.8,0-7.2,0
		c0-5.7,0.1-11.4,0-17.1c0.1-0.8-0.6-1.5-1.4-1.6c-0.2,0-0.4,0-0.5,0.1c-1.2,0.1-1.2,1.6-1.2,2.5c0,5.4,0,10.8,0,16.2
		c-3.6,0-7.3,0-10.9,0c-0.1-7.2,0-14.4-0.1-21.6C273.4,223.6,275.4,219.3,278.9,216.5L278.9,216.5z"/>
	<path id="path188" class="st4" d="M322.4,213.3c4.4,0.4,8.5,2.7,11.2,6.2c-4.1,3.5-6.9,8.7-6.9,14.1c-0.2,6.4,2.9,12.5,8.3,16.1
		c-3.3,0.1-6.6,0-9.9,0c0-5.8,0.1-11.5,0-17.3c0.1-1.9-3.2-1.9-3.1,0c-0.1,5.8,0,11.5,0,17.3c-2.4,0-4.8,0-7.2,0
		C317.4,237.6,319.9,225.5,322.4,213.3L322.4,213.3z"/>
	<path id="path190" class="st4" d="M303,217.2l1.8-1.4c0.6,0.5,1.2,1,1.8,1.4c0,0.8,0.1,1.5,0.1,2.3c-1.2,0.3-2.6,0.3-3.8,0
		C302.9,218.7,303,218,303,217.2z"/>
	<path id="path192" class="st4" d="M302.6,222.7c1.5,0.4,3,0.4,4.5-0.1c0.8,9,1.5,18.1,2.4,27.1c-3.1,0-6.1,0-9.1,0
		C301,240.8,301.8,231.8,302.6,222.7L302.6,222.7z"/>
	<path id="path194" class="st4" d="M344.3,231.2c2.3-1,5.1,1.6,4.1,4c-0.7,2.2-3.8,2.8-5.3,1C341.6,234.7,342.4,231.9,344.3,231.2z"
		/>
</g>
<g id="_1e82cfff">
	<path id="path197" class="st5" d="M299,183c0.8-1,2.5-0.5,2.7,0.7c0.2,1.3,0.3,3.1-1.2,3.5C298.2,187.4,298.1,184.4,299,183z"/>
	<path id="path199" class="st5" d="M309.7,187.5c-2.2-0.5-2.6-4-0.6-5C311.7,182.2,311.7,186.6,309.7,187.5z"/>
</g>
<g id="_9ccaffff">
	<path id="path202" class="st6" d="M318.8,185.7c1,0,2.4-0.4,3,0.7c0.3,1,0.3,2,0.1,3c-0.5,1.2-2,0.7-3,0.9
		C318.9,188.8,318.8,187.3,318.8,185.7z"/>
</g>
<g id="_eb008bff">
	<path id="path205" class="st7" d="M383.5,263.9c16.6,0,33.2,0,49.8,0c0,30.9,0,61.7,0,92.6h-49.8
		C383.5,325.6,383.5,294.8,383.5,263.9 M387.1,267.4c0,3.6,0,7.2,0,10.7c14.2,0,28.5,0,42.7,0c-0.1-3.6,0-7.2-0.1-10.7
		C415.5,267.5,401.3,267.4,387.1,267.4 M387.1,281.7c0,3.6,0,7.2,0,10.7c14.2,0,28.4,0,42.7,0c0-3.6,0-7.1,0-10.7
		C415.6,281.6,401.4,281.7,387.1,281.7 M387.2,296c0,3.5,0,7.1,0,10.6h42.7c0-3.5,0-7.1,0-10.6H387.2 M387.1,310.2
		c0,14.2,0,28.5,0,42.7c14.2,0,28.4,0,42.7,0c0-14.2,0-28.5,0-42.7C415.5,310.2,401.3,310.2,387.1,310.2L387.1,310.2z"/>
	<path id="path207" class="st7" d="M269.2,276.8c-0.2-4.1,3.5-7.9,7.6-7.6c22,0,44.1,0,66.1,0c2.1-0.1,4.4,0.1,6.1,1.6
		c1.4,1.5,2.1,3.5,2.2,5.5c0,16.2,0,32.4,0,48.6c0.1,2.2-0.7,4.3-2.2,6c-1.4,1.1-3.2,1.7-4.9,1.5c-22.6,0-45.2,0-67.8,0
		c-2.6,0.1-4.7-1.7-6.3-3.5c-1.1-2.5-0.7-5.2-0.8-7.8c0.1-1.7-0.3-3.5,0.5-5.1c24.8-0.1,49.6,0,74.4-0.1c1.6-0.5,2.8,1.8,1.2,2.6
		c-1.3,0.1-2.6,0.2-3.9,0.1c-23.1,0-46.1,0-69.2,0c0,2.4-0.1,4.9,0,7.3c0.1,2.1,1.9,3.8,4,3.7c22.8,0,45.6,0,68.4,0
		c2.2,0.1,4-1.7,4.1-3.9c0-0.1,0-0.2,0-0.3c0-16.4,0-32.8,0-49.3c0.2-2.2-1.8-4.4-4.1-4.3c-22.8,0-45.6,0-68.4,0
		c-2.3-0.1-4,2.1-4.1,4.2c-0.1,11.9,0,23.7,0,35.6c0.2,1.8-3.1,1.8-2.9,0C269.1,300.2,269.2,288.5,269.2,276.8L269.2,276.8z"/>
	<path id="path209" class="st7" d="M195,270.9c10.7-0.1,21.4,0,32.1,0c3.8,0,6.9,3.8,6.5,7.5c0,21.5,0,43,0,64.6
		c0.2,3.6-2.9,6.9-6.5,6.9c-10.4,0.1-20.8,0-31.2,0c-3.8,0.2-7.2-3.2-7-7c0-21.7,0-43.4,0-65.1C188.8,274.3,191.5,271.3,195,270.9
		 M192.3,277.8c-0.1,2.3,0,4.5,0,6.8h37.9c0-2.4,0.1-4.9-0.1-7.3c-0.2-1.8-1.8-3.1-3.5-3c-10.2,0-20.5,0-30.7,0
		c-1.9-0.1-3.5,1.4-3.6,3.2C192.4,277.7,192.4,277.8,192.3,277.8 M192.4,332.8h37.9c0-14.9,0-29.8,0-44.7h-37.9
		C192.4,303,192.4,317.9,192.4,332.8 M192.4,343.1c-0.1,1.9,1.4,3.5,3.3,3.5c0.1,0,0.2,0,0.3,0c10.2,0,20.4,0,30.6,0
		c1.9,0.1,3.5-1.4,3.6-3.3c0-0.1,0-0.2,0-0.3c0.1-2.3,0-4.5,0-6.8c-12.6,0-25.2,0-37.9,0C192.3,338.5,192.3,340.8,192.4,343.1
		L192.4,343.1z"/>
	<path id="path211" class="st7" d="M205.3,278c3.4-0.5,6.9-0.1,10.3-0.2c1.4-0.3,3,0.9,2.4,2.4c-0.7,1.3-2.3,1.1-3.6,1.1
		c-2.9-0.1-5.8,0.2-8.7-0.1C204.2,281,203.8,278.6,205.3,278z"/>
	<path id="path213" class="st7" d="M198.3,293.5c1.7-0.3,3.4-0.3,5.1-0.1c1.2,0.5,0.9,2,1,3.1c-0.1,1.2,0.3,2.9-1.1,3.5
		c-1.6,0.2-3.3,0.2-4.9,0c-1.3-0.6-0.9-2.3-1-3.5C197.5,295.5,197.3,294,198.3,293.5z"/>
	<path id="path215" class="st7" d="M208.7,293.4c1.5-0.3,3.1-0.3,4.7-0.1c1.2,0.1,1.4,1.6,1.3,2.6c-0.1,1.3,0.4,3.2-1,4
		c-1.6,0.3-3.3,0.3-4.9,0c-1.3-0.6-1-2.3-1-3.5C207.8,295.4,207.6,294,208.7,293.4L208.7,293.4z"/>
	<path id="path217" class="st7" d="M219.1,293.4c1.7-0.3,3.4-0.3,5.1,0.1c1.4,1,0.7,3.2,0.8,4.7c0.1,1-0.7,1.9-1.7,2
		c-0.2,0-0.4,0-0.5,0c-1.5-0.1-4.1,0.7-4.6-1.4C218.3,297,217.4,294.5,219.1,293.4z"/>
	<path id="path219" class="st7" d="M198.3,305.5c1.7-0.3,3.4-0.4,5.1-0.1c1.2,0.5,1,2,1,3.1c-0.1,1.2,0.3,3-1.1,3.5
		c-1.6,0.2-3.3,0.2-4.9-0.1c-1.2-0.7-0.9-2.3-1-3.4C197.5,307.5,197.3,306.1,198.3,305.5L198.3,305.5z"/>
	<path id="path221" class="st7" d="M208.7,305.5c1.7-0.3,3.3-0.3,5,0c1.6,0.9,0.8,3.2,1,4.7c0.2,1.3-1.1,2.2-2.3,1.9
		c-1.5-0.1-3.9,0.6-4.5-1.3C208,309.1,207.1,306.7,208.7,305.5z"/>
	<path id="path223" class="st7" d="M219.1,305.4c1.7-0.2,3.7-0.5,5.4,0.3c1,1.5,0.5,3.4,0.5,5.1c-0.5,2-3,1.2-4.4,1.4
		c-1.2,0.2-2.6-0.6-2.4-2C218.3,308.6,217.5,306.3,219.1,305.4z"/>
	<path id="path225" class="st7" d="M390.6,313.8h35.6v25h-35.6C390.6,330.4,390.6,322.1,390.6,313.8 M394.2,317.4c0,2.4,0,4.8,0,7.1
		c9.5,0,18.9,0,28.4,0c0-2.4,0-4.7,0-7.1C413.2,317.4,403.7,317.4,394.2,317.4 M394.2,328c0,2.4,0,4.7,0,7.1c9.5,0,19,0,28.5,0
		c0-2.4,0-4.8,0-7.1H394.2z"/>
	<path id="path227" class="st7" d="M198.8,317.4c1.5-0.2,3.1-0.1,4.6,0.1c1.2,0.5,1,2,1,3.1c-0.1,1.2,0.3,3-1.1,3.5
		c-1.6,0.2-3.3,0.2-4.9-0.1c-1.2-0.6-0.9-2.3-1-3.5C197.4,319.4,197.3,317.6,198.8,317.4L198.8,317.4z"/>
	<path id="path229" class="st7" d="M208.7,317.5c1.7-0.2,3.6-0.4,5.3,0.1c1.3,1.4,0.6,3.5,0.6,5.2c-0.7,2.1-3.4,1.1-5.1,1.3
		c-1.4,0.1-2-1.4-1.8-2.6S207.3,318.4,208.7,317.5L208.7,317.5z"/>
	<path id="path231" class="st7" d="M309.2,321.7c1.7-1.1,4.2,0.6,4,2.6c0,2.1-2.9,3.4-4.5,1.9C307.2,325.2,307.5,322.5,309.2,321.7z
		"/>
	<path id="path233" class="st7" d="M302.3,336.9c-0.1-1,0.7-1.5,1.3-2.1c0.3,0.3,0.9,0.8,1.2,1.1c0.5,2.5,0.1,5,0.2,7.5
		c2.3,0,4.6-0.1,6.9,0.1c1,0,1.7,1.3,1,2c-0.4,0.8-1.5,0.5-2.2,0.6c-4.2,0.1-8.5-0.1-12.7,0.1c-1.7,0-2.8,1.4-3.9,2.6
		c10.8,0.3,21.6,0,32.5,0.1c-0.8-1-1.6-2.2-2.9-2.5c-1.8-0.4-3.6-0.2-5.4-0.2c-0.8-0.1-2.4,0.2-2.4-1c-0.2-2.7-0.1-5.5-0.1-8.3
		c-0.2-1,0.7-1.5,1.3-2.1c0.3,0.3,0.9,0.8,1.2,1.1c0.5,2.5,0.1,5,0.2,7.5c2.1,0,4.4-0.2,6.5,0.5c2.6,1.1,4.6,3.8,4.5,6.7
		c-0.1,0.9-1.1,1.1-1.9,1.1c-5.3,0-10.6,0-15.9,0c0,8.8,0.1,17.5,0.1,26.3l3.3-2.2c-1.4,2.7-2.7,5.5-4.1,8.2c-0.2,0.5-0.5,1-0.7,1.4
		c-0.2-0.3-0.6-1.1-0.8-1.4c-1.4-2.7-2.7-5.5-4.1-8.2l3.2,2.1c0-8.8-0.1-17.5-0.1-26.3c-5.4-0.1-10.9,0.2-16.3-0.1
		c-1.9-1.2-0.4-3.9,0.6-5.3c2.1-3.1,6.1-3.1,9.5-2.9C302.3,341.2,302.2,339.1,302.3,336.9L302.3,336.9z"/>
	<path id="path235" class="st7" d="M209.8,338.3c2.1-1.2,4.9,0.6,4.9,3c0.2,2.7-3.2,4.6-5.4,3C207.1,342.9,207.4,339.2,209.8,338.3z
		"/>
	<path id="path237" class="st7" d="M421.3,342.5c2.6-1.3,5.7,1.7,4.7,4.3c-0.6,2.3-3.8,3.3-5.6,1.7
		C418.3,347.1,418.8,343.4,421.3,342.5L421.3,342.5z"/>
	<path id="path239" class="st7" d="M209,351.7h3.3v38.7c27.9,0,55.8,0,83.6,0c-0.7-1.1-1.4-2.1-2.1-3.2c2.7,1.4,5.5,2.7,8.2,4.1
		l1.4,0.8l-1.4,0.8c-2.7,1.4-5.5,2.7-8.2,4.1l2.2-3.3c-28.5,0-56.9,0-85.4,0c-1.4,0.1-1.7-1.5-1.6-2.5V351.7z"/>
	<path id="path241" class="st7" d="M408.1,357.7h3.3c0,11.5,0.1,23-0.1,34.5c0,1.4-1.6,1.5-2.6,1.5c-28.1,0-56.1,0-84.2,0
		c0.7,1.1,1.4,2.2,2.2,3.3c-2.7-1.4-5.4-2.7-8.1-4.1c-0.5-0.3-1.1-0.6-1.6-0.9l1.7-0.8c2.7-1.4,5.4-2.7,8.1-4
		c-0.7,1.1-1.5,2.2-2.2,3.3h83.7v-32.8H408.1z"/>
	<path id="path243" class="st7" d="M270.5,431.9c2.6-1,5.8,0.4,6.8,3c1.4,3.1-0.9,7-4.3,7.2c-1.9,0-3.7,1.7-3.1,3.7
		c0.8,2,1.4,4.3,0.1,6.2c-1.6,2.8-5.9,3.3-8.2,1.1c-2.3-2-2.2-6,0.2-7.9c1.5-1.7,4.3-0.7,5.5-2.6c1-1.2,0.3-2.8-0.2-4.1
		C266.5,435.7,267.9,432.9,270.5,431.9z"/>
</g>
<path id="path246" class="st8" d="M310.3,385.5c0.2-0.5,0.5-1,0.7-1.4c1.8,0.5,3.6,1,4.9,2.3c1.4,1.2,1.9,3.1,2.5,4.8l-1.7,0.8
	c0.5,0.3,1.1,0.6,1.6,0.9c-0.6,3.5-3.2,6.2-6.7,7c0,6.1,0,12.1,0,18.2c16.2,0,32.4,0,48.7,0c5.3-0.4,10.2,4.4,9.8,9.7
	c0,10,0,20.1,0,30.1c0.6,5.3-3.8,10.6-9.3,10.4h-49.2c0,8.7,0,17.5,0,26.2c1.6,0,3.2,0,4.8,0c4.4,4.4,8.7,8.8,13.1,13.2
	c0.5,0.6,1.2,1.2,1.2,2c-0.1,7,0,14,0,21c9,1.1,17.4,7.7,19.4,16.7c1.7,5.6,0.8,11.7-1.4,17c-3.5,7-10.7,11.7-18.4,12.6H269v-82.6
	h39.4v-26.2c-16.3,0-32.5,0-48.8,0c-4.9,0.1-9.3-4.3-9.2-9.3c-0.1-10.4,0-20.8,0-31.2c-0.1-3.6,1.8-6.9,5-8.6c2.3-1.3,5-1.1,7.5-1.1
	c15.1,0,30.2,0,45.4,0c0-6.1,0-12.1,0-18.2c-3.3-0.9-6.1-3.5-6.5-7l1.4-0.8l-1.4-0.8c0.4-3.9,3.7-6.9,7.5-7.3
	C309.7,384.4,310.1,385.1,310.3,385.5 M308.8,387.6c-2.9,0.7-4.5,4.5-2.6,7c2.1,3.3,7.8,2.5,8.8-1.3
	C316.2,389.7,312.1,386.4,308.8,387.6 M258.5,421.5c-2.8,0.6-4.6,3.4-4.6,6.1c-0.1,9.9,0,19.7,0,29.6c-0.1,2,0.3,4.3,1.8,5.8
	c1.5,1.6,3.8,2,5.8,2c33,0,66,0,99,0c3.4,0.2,6.7-2.7,6.6-6.1c0.1-10.2,0-20.4,0-30.6c0.1-2.2-0.7-4.5-2.6-5.8
	c-2.1-1.6-4.9-1.3-7.4-1.3c-30.8,0-61.6,0-92.4,0C262.8,421.1,260.6,421,258.5,421.5 M274.6,499.6c0,24.1,0,48.1,0,72.2
	c13.1,0,26.2,0,39.4,0c-6.1-5-9.3-12.8-8.4-20.7h-25.8c0-1.7,0-3.4,0-5.1c9,0,17.9,0,26.9,0c0.8-1.8,1.6-3.5,2.6-5.2h-29.5
	c0-1.7,0-3.4,0-5.1c11.4-0.1,22.7,0.1,34.1-0.1c3.6-2.5,7.6-4.5,12-5c0-5.2,0-10.4,0-15.7c-5.1,0-10.2,0-15.4,0c0-5.1,0-10.3,0-15.4
	C298.5,499.6,286.5,499.6,274.6,499.6 M315.6,500.6c0,3.1,0,6.2,0,9.3c3.1,0,6.2,0,9.3,0C321.7,506.8,318.7,503.7,315.6,500.6
	 M324.7,536.3c-9.6,2.1-15.6,11.6-13.5,21.1c2,9.1,10.7,15.1,19.9,13.8c6.7-0.9,12.5-6.1,14.3-12.6c1.9-6.7-0.2-13.9-5.5-18.5
	C335.7,536.6,330.1,535.2,324.7,536.3L324.7,536.3z"/>
<path id="path260" class="st8" d="M276.5,444.5c4-2.2,9.1,2.6,7.2,6.7c-1.3,3.7-7,4.5-9.2,1.3C272.5,449.9,273.6,445.8,276.5,444.5z
	"/>
<path id="path262" class="st8" d="M279.8,530.6c0-1.7,0-3.5,0-5.2c13.7,0,27.3,0,41,0c0,1.7,0,3.5,0,5.2H279.8z"/>
<path id="path264" class="st8" d="M336,543.5c1.8,1.6,3.5,3.4,5.2,5.1c-5,5-9.9,10-14.9,15c-0.7,0.8-1.4-0.5-1.9-0.8
	c-2.9-3-6-5.9-8.8-9c1.7-1.7,3.4-3.4,5.1-5.1c1.7,1.7,3.4,3.4,5.2,5.2C329.2,550.3,332.7,546.9,336,543.5L336,543.5z"/>
<g id="_ead1dcff">
	<path id="path267" class="st9" d="M308.8,387.6c3.3-1.2,7.4,2.1,6.2,5.6c-1,3.8-6.7,4.6-8.8,1.3
		C304.3,392.1,305.9,388.3,308.8,387.6z"/>
</g>
<rect x="285.2" y="429.6" class="st10" width="77" height="28.6"/>
<path class="st8" d="M295.7,446h-4.1l-0.8,2.3h-2.5l4.2-11.4h2.2l4.3,11.4h-2.5L295.7,446z M292.2,444.1h2.8l-1.4-4.3L292.2,444.1z"
	/>
<path class="st8" d="M304.1,440.4c1.1,0,1.9,0.4,2.6,1.1c0.6,0.7,1,1.7,1,2.9v0.1c0,1.2-0.4,2.2-1.1,2.9c-0.7,0.7-1.7,1.1-2.9,1.1
	c-1.2,0-2.2-0.4-2.9-1.2c-0.7-0.8-1.1-1.9-1.1-3.2v-0.4c0-1.9,0.3-3.4,1-4.5s1.6-1.8,2.9-2c0.7-0.1,1.1-0.3,1.3-0.4
	c0.2-0.1,0.3-0.3,0.3-0.6h1.8c0,0.8-0.2,1.4-0.7,1.8c-0.4,0.4-1.2,0.7-2.3,1c-0.7,0.1-1.2,0.4-1.6,0.8c-0.4,0.4-0.6,0.9-0.8,1.6
	C302.3,440.7,303.1,440.4,304.1,440.4z M303.7,442.2c-0.5,0-1,0.2-1.3,0.5s-0.5,0.9-0.5,1.8c0,0.7,0.1,1.3,0.4,1.6s0.7,0.6,1.3,0.6
	c0.5,0,1-0.2,1.3-0.6s0.4-0.9,0.5-1.6v-0.2c0-0.7-0.2-1.2-0.5-1.6S304.2,442.2,303.7,442.2z"/>
<path class="st8" d="M314,439.9h2.3v8.5H314v-5.2l-2.8,5.2h-2.3v-8.5h2.3v5.2L314,439.9z"/>
<path class="st8" d="M317.6,444.1c0-0.8,0.2-1.6,0.5-2.2c0.3-0.7,0.8-1.2,1.4-1.5c0.6-0.4,1.3-0.5,2.1-0.5c1.1,0,2.1,0.3,2.8,1
	c0.7,0.7,1.1,1.6,1.2,2.8l0,0.6c0,1.3-0.4,2.3-1.1,3.1c-0.7,0.8-1.7,1.2-2.9,1.2s-2.2-0.4-2.9-1.2s-1.1-1.8-1.1-3.2V444.1z
	 M319.9,444.2c0,0.8,0.2,1.4,0.5,1.8c0.3,0.4,0.7,0.6,1.3,0.6c0.5,0,1-0.2,1.3-0.6c0.3-0.4,0.5-1.1,0.5-2c0-0.8-0.2-1.4-0.5-1.8
	c-0.3-0.4-0.7-0.6-1.3-0.6c-0.6,0-1,0.2-1.3,0.6C320,442.6,319.9,443.3,319.9,444.2z"/>
<path class="st8" d="M332.8,441.7h-3.5v6.6H327v-8.5h5.8V441.7z"/>
<path class="st8" d="M341.3,444.2c0,1.3-0.3,2.3-0.9,3.1c-0.6,0.8-1.4,1.2-2.4,1.2c-0.9,0-1.5-0.3-2.1-0.9v4h-2.3v-11.7h2.1l0.1,0.8
	c0.5-0.7,1.3-1,2.1-1c1,0,1.9,0.4,2.4,1.2s0.9,1.8,0.9,3.2V444.2z M339.1,444c0-0.8-0.1-1.4-0.4-1.8c-0.3-0.4-0.7-0.6-1.2-0.6
	c-0.7,0-1.2,0.3-1.5,0.8v3.5c0.3,0.6,0.8,0.8,1.5,0.8C338.5,446.7,339.1,445.8,339.1,444z"/>
<path class="st8" d="M347.6,448.4c-0.1-0.2-0.2-0.5-0.2-0.8c-0.5,0.6-1.3,0.9-2.1,0.9c-0.8,0-1.5-0.2-2.1-0.7
	c-0.5-0.5-0.8-1.1-0.8-1.8c0-0.9,0.3-1.6,1-2.1s1.6-0.7,2.9-0.7h1v-0.5c0-0.4-0.1-0.7-0.3-0.9c-0.2-0.2-0.5-0.4-0.9-0.4
	c-0.4,0-0.7,0.1-0.9,0.3c-0.2,0.2-0.3,0.4-0.3,0.8h-2.3c0-0.5,0.2-0.9,0.5-1.4c0.3-0.4,0.7-0.7,1.3-1c0.6-0.2,1.2-0.4,1.9-0.4
	c1,0,1.9,0.3,2.5,0.8c0.6,0.5,0.9,1.3,0.9,2.2v3.7c0,0.8,0.1,1.4,0.3,1.8v0.1H347.6z M345.7,446.8c0.3,0,0.6-0.1,0.9-0.2
	s0.5-0.3,0.6-0.6v-1.5h-0.8c-1.1,0-1.7,0.4-1.8,1.2l0,0.1c0,0.3,0.1,0.5,0.3,0.7C345.1,446.7,345.4,446.8,345.7,446.8z"/>
<path class="st8" d="M356.4,445.7l2.2-5.8h2.8v8.5h-2.3v-5.2l-2,5.2h-1.5l-2-5.1v5.1h-2.3v-8.5h2.8L356.4,445.7z"/>
</svg>
