<?xml version="1.0" encoding="utf-8"?>
<!-- Generator: Adobe Illustrator 26.0.2, SVG Export Plug-In . SVG Version: 6.00 Build 0)  -->
<svg version="1.1"
	 id="svg1152" inkscape:version="1.1.2 (0a00cf5339, 2022-02-04)" sodipodi:docname="1.svg" xmlns:inkscape="http://www.inkscape.org/namespaces/inkscape" xmlns:sodipodi="http://sodipodi.sourceforge.net/DTD/sodipodi-0.dtd" xmlns:svg="http://www.w3.org/2000/svg"
	 xmlns="http://www.w3.org/2000/svg" xmlns:xlink="http://www.w3.org/1999/xlink" x="0px" y="0px" viewBox="0 0 960 540"
	 style="enable-background:new 0 0 960 540;" xml:space="preserve">
<style type="text/css">
	.st0{fill-rule:evenodd;clip-rule:evenodd;fill-opacity:0;}
	.st1{fill:none;stroke:#EB008B;stroke-width:6.0383;stroke-linejoin:round;stroke-miterlimit:15.0958;}
	.st2{fill-rule:evenodd;clip-rule:evenodd;fill:#EB008B;stroke:#EB008B;stroke-width:6.0383;stroke-miterlimit:15.0958;}
	.st3{fill:none;stroke:#90278E;stroke-width:6.0383;stroke-linejoin:round;stroke-miterlimit:15.0958;}
	.st4{fill-rule:evenodd;clip-rule:evenodd;fill:#90278E;stroke:#90278E;stroke-width:6.0383;stroke-miterlimit:15.0958;}
	.st5{fill:#90278E;}
	.st6{fill:#EB008B;}
	.st7{font-family:'Roboto-Bold';}
	.st8{font-size:28px;}
</style>
<sodipodi:namedview  bordercolor="#666666" borderopacity="1.0" id="namedview1154" inkscape:current-layer="svg1152" inkscape:cx="384.69818" inkscape:cy="319.06909" inkscape:pagecheckerboard="0" inkscape:pageopacity="0.0" inkscape:pageshadow="2" inkscape:window-height="1019" inkscape:window-maximized="1" inkscape:window-width="1920" inkscape:window-x="0" inkscape:window-y="0" inkscape:zoom="0.71614583" pagecolor="#ffffff" showgrid="false">
	</sodipodi:namedview>
<path id="path1028" class="st0" d="M11.5,121h518.9v419H11.5V121z"/>
<path id="path1090" class="st0" d="M200.9,69.7h146.3V216H200.9V69.7z"/>
<g id="g1097" transform="matrix(0.18932756,0,0,0.18932756,535.71653,192.32283)">
	<g>
		<defs>
			<rect id="SVGID_1_" x="-1455.2" y="-334.5" width="146.3" height="146.3"/>
		</defs>
		<clipPath id="SVGID_00000134959434911726678870000001014017548393877922_">
			<use xlink:href="#SVGID_1_"  style="overflow:visible;"/>
		</clipPath>
		
			<g transform="matrix(1 0 0 1 -1.220703e-04 0)" style="clip-path:url(#SVGID_00000134959434911726678870000001014017548393877922_);enable-background:new    ;">
			
				<image style="overflow:visible;" width="512" height="512" id="image1095" xlink:href="D27BAE36F2776917.png"  transform="matrix(1.5096 0 0 1.5096 -1768.5021 -647.7728)">
			</image>
		</g>
	</g>
</g>
<path id="path1099" class="st0" d="M347.2,142.8H702v241"/>
<path id="path1101" class="st1" d="M347.2,142.8H702v220.3"/>
<path id="path1103" class="st2" d="M702,363.2l-6.8-6.8L702,375l6.8-18.7L702,363.2z"/>
<path id="path1105" class="st0" d="M598.9,425.3H274.1V216"/>
<path id="path1107" class="st3" d="M598.9,425.3H274.1V236.7"/>
<path id="path1109" class="st4" d="M274.1,236.7l6.8,6.8l-6.8-18.7l-6.8,18.7L274.1,236.7z"/>
<path id="path1111" class="st0" d="M355.2,46.5H718v97.6H355.2V46.5z"/>
<path id="path1123" class="st0" d="M380.7,138.8h301.1v63.4H380.7V138.8z"/>
<path id="path1125" d="M474,174.1c0,0.8-0.1,1.6-0.4,2.3c-0.3,0.7-0.7,1.3-1.2,1.8c-0.5,0.5-1.1,0.9-1.9,1.2
	c-0.8,0.3-1.6,0.4-2.6,0.4c-0.8,0-1.5-0.1-2.2-0.3c-0.7-0.2-1.3-0.4-1.8-0.7v-3.3c0.2,0.2,0.5,0.4,0.8,0.5c0.3,0.2,0.6,0.3,1,0.4
	c0.3,0.1,0.7,0.2,1.1,0.3c0.4,0.1,0.7,0.1,1.1,0.1c0.3,0,0.6-0.1,0.9-0.2c0.3-0.1,0.6-0.3,0.9-0.5c0.3-0.3,0.5-0.6,0.6-1
	c0.2-0.4,0.3-0.9,0.3-1.6v-9.4H464v-2.8h10V174.1z M491.1,174.1c0,1-0.2,1.8-0.5,2.5c-0.4,0.7-0.9,1.3-1.5,1.8
	c-0.6,0.5-1.4,0.8-2.3,1.1c-0.9,0.2-1.9,0.3-2.9,0.3c-0.9,0-1.9-0.1-2.7-0.2c-0.9-0.1-1.8-0.3-2.6-0.5v-3.3c0.4,0.2,0.9,0.3,1.3,0.4
	c0.5,0.1,0.9,0.2,1.4,0.3c0.5,0.1,0.9,0.2,1.4,0.2c0.5,0,0.9,0.1,1.3,0.1c0.6,0,1.2-0.1,1.6-0.2c0.5-0.1,0.8-0.3,1.1-0.4
	c0.3-0.2,0.5-0.4,0.6-0.7c0.1-0.3,0.2-0.6,0.2-0.9c0-0.4-0.1-0.8-0.4-1.1c-0.3-0.3-0.6-0.6-1-0.8c-0.4-0.2-0.9-0.4-1.4-0.6
	c-0.5-0.2-1.1-0.4-1.6-0.6c-0.6-0.2-1.1-0.5-1.6-0.7c-0.5-0.3-1-0.6-1.4-1c-0.4-0.4-0.7-0.9-1-1.4c-0.3-0.6-0.4-1.2-0.4-2
	c0-0.7,0.1-1.4,0.4-2c0.3-0.6,0.7-1.2,1.2-1.7c0.6-0.5,1.3-0.8,2.1-1.1c0.9-0.3,1.9-0.4,3.1-0.4c0.4,0,0.7,0,1.1,0
	c0.4,0,0.8,0.1,1.2,0.1c0.4,0,0.7,0.1,1.1,0.2c0.4,0.1,0.7,0.1,1,0.2v3.1c-0.3-0.1-0.6-0.2-1-0.3c-0.3-0.1-0.7-0.2-1.1-0.2
	c-0.4-0.1-0.7-0.1-1.1-0.2c-0.4,0-0.7-0.1-1.1-0.1c-0.6,0-1.1,0-1.5,0.1c-0.4,0.1-0.7,0.2-1,0.4c-0.3,0.2-0.5,0.4-0.6,0.6
	c-0.1,0.2-0.2,0.5-0.2,0.8c0,0.4,0.1,0.7,0.4,1c0.3,0.3,0.6,0.5,1,0.7c0.4,0.2,0.9,0.4,1.4,0.6c0.5,0.2,1.1,0.4,1.6,0.6
	c0.6,0.2,1.1,0.5,1.6,0.8c0.5,0.3,1,0.6,1.4,1c0.4,0.4,0.8,0.9,1,1.4C490.9,172.7,491.1,173.3,491.1,174.1L491.1,174.1z
	 M507.5,170.4c0,1.6-0.2,3-0.6,4.2c-0.4,1.2-0.9,2.2-1.6,2.9c-0.7,0.8-1.4,1.3-2.3,1.7c-0.9,0.4-1.8,0.5-2.9,0.5
	c-2.4,0-4.2-0.8-5.4-2.4c-1.2-1.6-1.8-3.9-1.8-6.8c0-1.6,0.2-3,0.6-4.2c0.4-1.2,0.9-2.1,1.6-2.9c0.7-0.8,1.4-1.3,2.3-1.7
	c0.9-0.4,1.9-0.6,2.9-0.6c2.4,0,4.1,0.8,5.3,2.4C506.9,165.1,507.5,167.4,507.5,170.4z M503.9,170.6c0-2.1-0.3-3.7-0.8-4.7
	c-0.6-1.1-1.5-1.6-2.8-1.6c-0.6,0-1.2,0.1-1.7,0.4c-0.5,0.3-0.8,0.7-1.1,1.2c-0.3,0.5-0.5,1.2-0.7,1.9c-0.1,0.8-0.2,1.7-0.2,2.6
	c0,2.1,0.3,3.7,0.8,4.8c0.6,1,1.5,1.6,2.8,1.6c0.7,0,1.2-0.1,1.7-0.4c0.5-0.3,0.8-0.7,1.1-1.2c0.3-0.5,0.5-1.2,0.6-1.9
	C503.8,172.5,503.9,171.6,503.9,170.6z M518.2,179.5l-4.8-10.7l-1-2.3v7.5v5.6h-3.1v-18h4.2l4.9,10.8l0.9,2.1v-7.9v-5h3.1v18H518.2z
	 M526.4,182.2c0.6,0,1.1,0,1.5-0.1c0.5-0.1,0.9-0.2,1.3-0.4c0.4-0.2,0.6-0.4,0.8-0.7c0.2-0.3,0.3-0.6,0.3-0.9c0-0.3,0-0.5-0.1-0.7
	c-0.1-0.2-0.2-0.4-0.3-0.5c-0.1-0.2-0.2-0.3-0.4-0.4c-0.1-0.2-0.3-0.3-0.4-0.5c-0.1-0.2-0.2-0.3-0.3-0.5c-0.1-0.2-0.1-0.5-0.1-0.8
	c0-0.3,0-0.6,0.1-0.8c0.1-0.3,0.3-0.5,0.4-0.7c0.2-0.2,0.4-0.4,0.7-0.5c0.3-0.1,0.6-0.2,1-0.2c0.4,0,0.8,0.1,1.2,0.3
	s0.7,0.5,0.9,0.8c0.3,0.3,0.4,0.7,0.6,1.2c0.1,0.4,0.2,0.9,0.2,1.4c0,0.8-0.2,1.7-0.5,2.4s-0.8,1.4-1.4,2c-0.6,0.6-1.4,1-2.3,1.3
	c-0.9,0.3-2,0.5-3.3,0.5L526.4,182.2z M565.5,179.5l-3.5-6.6l-3.4,6.6h-4.1l5.2-9.2l-4.8-8.8h4l3.3,6.3l3.1-6.3h4l-4.8,8.8l5.4,9.2
	H565.5z M581.8,179.5l-0.3-10.2l-0.1-4.1l-0.8,2.8l-2,6.1h-2.1l-1.8-6.1l-0.8-2.8l-0.1,4l-0.3,10.2h-2.9l0.9-18h3.8l1.6,5.1l0.8,2.9
	l0.8-2.7l1.7-5.3h3.9l0.9,18H581.8z M588.1,179.5v-18h3.4v15.1h7.6v2.9H588.1z"/>
<path id="path1127" class="st0" d="M273.6,429.9h354.1v63.4H273.6V429.9z"/>
<path id="path1129" d="M346.9,465.1c0,0.8-0.1,1.6-0.4,2.3c-0.3,0.7-0.7,1.3-1.2,1.8c-0.5,0.5-1.1,0.9-1.9,1.2
	c-0.8,0.3-1.6,0.4-2.6,0.4c-0.8,0-1.5-0.1-2.2-0.3c-0.7-0.2-1.3-0.4-1.8-0.7v-3.3c0.2,0.2,0.5,0.4,0.8,0.5c0.3,0.2,0.6,0.3,1,0.4
	c0.3,0.1,0.7,0.2,1.1,0.3c0.4,0.1,0.7,0.1,1.1,0.1c0.3,0,0.6-0.1,0.9-0.2c0.3-0.1,0.6-0.3,0.9-0.5c0.3-0.3,0.5-0.6,0.6-1
	c0.2-0.4,0.3-0.9,0.3-1.6v-9.4H337v-2.8h10V465.1z M364,465.1c0,1-0.2,1.8-0.5,2.5c-0.4,0.7-0.9,1.3-1.5,1.8
	c-0.6,0.5-1.4,0.8-2.3,1.1c-0.9,0.2-1.9,0.3-2.9,0.3c-0.9,0-1.9-0.1-2.7-0.2c-0.9-0.1-1.8-0.3-2.6-0.5v-3.3c0.4,0.2,0.9,0.3,1.3,0.4
	c0.5,0.1,0.9,0.2,1.4,0.3c0.5,0.1,0.9,0.2,1.4,0.2c0.5,0,0.9,0.1,1.3,0.1c0.6,0,1.2-0.1,1.6-0.2c0.5-0.1,0.8-0.3,1.1-0.4
	c0.3-0.2,0.5-0.4,0.6-0.7c0.1-0.3,0.2-0.6,0.2-0.9c0-0.4-0.1-0.8-0.4-1.1c-0.3-0.3-0.6-0.6-1-0.8c-0.4-0.2-0.9-0.4-1.4-0.6
	c-0.5-0.2-1.1-0.4-1.6-0.6c-0.6-0.2-1.1-0.5-1.6-0.7c-0.5-0.3-1-0.6-1.4-1c-0.4-0.4-0.7-0.9-1-1.4c-0.3-0.6-0.4-1.2-0.4-2
	c0-0.7,0.1-1.4,0.4-2c0.3-0.6,0.7-1.2,1.2-1.7c0.6-0.5,1.3-0.8,2.1-1.1s1.9-0.4,3.1-0.4c0.4,0,0.7,0,1.1,0c0.4,0,0.8,0.1,1.2,0.1
	c0.4,0,0.7,0.1,1.1,0.2c0.4,0.1,0.7,0.1,1,0.2v3.1c-0.3-0.1-0.6-0.2-1-0.3c-0.3-0.1-0.7-0.2-1.1-0.2c-0.4-0.1-0.7-0.1-1.1-0.2
	c-0.4,0-0.7-0.1-1.1-0.1c-0.6,0-1.1,0-1.5,0.1s-0.7,0.2-1,0.4c-0.3,0.2-0.5,0.4-0.6,0.6c-0.1,0.2-0.2,0.5-0.2,0.8
	c0,0.4,0.1,0.7,0.4,1c0.3,0.3,0.6,0.5,1,0.7c0.4,0.2,0.9,0.4,1.4,0.6c0.5,0.2,1.1,0.4,1.6,0.6c0.6,0.2,1.1,0.5,1.6,0.8
	c0.5,0.3,1,0.6,1.4,1c0.4,0.4,0.8,0.9,1,1.4C363.9,463.7,364,464.3,364,465.1L364,465.1z M380.4,461.4c0,1.6-0.2,3-0.6,4.2
	c-0.4,1.2-0.9,2.2-1.6,2.9c-0.7,0.8-1.4,1.3-2.3,1.7c-0.9,0.4-1.8,0.5-2.9,0.5c-2.4,0-4.2-0.8-5.4-2.4c-1.2-1.6-1.8-3.9-1.8-6.8
	c0-1.6,0.2-3,0.6-4.2c0.4-1.2,0.9-2.1,1.6-2.9c0.7-0.8,1.4-1.3,2.3-1.7c0.9-0.4,1.9-0.6,2.9-0.6c2.4,0,4.1,0.8,5.3,2.4
	C379.8,456.2,380.4,458.4,380.4,461.4z M376.8,461.6c0-2.1-0.3-3.7-0.8-4.7c-0.6-1.1-1.5-1.6-2.8-1.6c-0.6,0-1.2,0.1-1.7,0.4
	c-0.5,0.3-0.8,0.7-1.1,1.2c-0.3,0.5-0.5,1.2-0.7,1.9c-0.1,0.8-0.2,1.7-0.2,2.6c0,2.1,0.3,3.7,0.8,4.8c0.6,1,1.5,1.6,2.8,1.6
	c0.7,0,1.2-0.1,1.7-0.4c0.5-0.3,0.8-0.7,1.1-1.2c0.3-0.5,0.5-1.2,0.6-1.9C376.8,463.5,376.8,462.6,376.8,461.6z M391.1,470.5
	l-4.8-10.7l-1-2.3v7.5v5.6h-3.1v-18h4.2l4.9,10.8l0.9,2.1v-7.9v-5h3.1v18H391.1z M399.3,473.2c0.6,0,1.1,0,1.5-0.1
	c0.5-0.1,0.9-0.2,1.3-0.4c0.4-0.2,0.6-0.4,0.8-0.7c0.2-0.3,0.3-0.6,0.3-0.9c0-0.3,0-0.5-0.1-0.7c-0.1-0.2-0.2-0.4-0.3-0.5
	c-0.1-0.2-0.2-0.3-0.4-0.4c-0.1-0.2-0.3-0.3-0.4-0.5c-0.1-0.2-0.2-0.3-0.3-0.5c-0.1-0.2-0.1-0.5-0.1-0.8c0-0.3,0-0.6,0.1-0.8
	c0.1-0.3,0.3-0.5,0.4-0.7c0.2-0.2,0.4-0.4,0.7-0.5c0.3-0.1,0.6-0.2,1-0.2c0.4,0,0.8,0.1,1.2,0.3c0.4,0.2,0.7,0.5,0.9,0.8
	c0.3,0.3,0.4,0.7,0.6,1.2c0.1,0.4,0.2,0.9,0.2,1.4c0,0.8-0.2,1.7-0.5,2.4c-0.3,0.8-0.8,1.4-1.4,2c-0.6,0.6-1.4,1-2.3,1.3
	c-0.9,0.3-2,0.5-3.3,0.5L399.3,473.2z M438.4,470.5l-3.5-6.6l-3.4,6.6h-4.1l5.2-9.2l-4.8-8.8h4l3.3,6.3l3.1-6.3h4l-4.8,8.8l5.4,9.2
	H438.4z M454.7,470.5l-0.3-10.2l-0.1-4.1l-0.8,2.8l-2,6.1h-2.1l-1.8-6.1l-0.8-2.8l-0.1,4l-0.3,10.2h-2.9l0.9-18h3.8l1.6,5.1l0.8,2.9
	l0.8-2.7l1.7-5.3h3.9l0.9,18H454.7z M461,470.5v-18h3.4v15.1h7.6v2.9H461z M476.7,473.2c0.6,0,1.1,0,1.5-0.1
	c0.5-0.1,0.9-0.2,1.3-0.4c0.4-0.2,0.6-0.4,0.8-0.7c0.2-0.3,0.3-0.6,0.3-0.9c0-0.3,0-0.5-0.1-0.7c-0.1-0.2-0.2-0.4-0.3-0.5
	c-0.1-0.2-0.2-0.3-0.4-0.4c-0.1-0.2-0.3-0.3-0.4-0.5c-0.1-0.2-0.2-0.3-0.3-0.5c-0.1-0.2-0.1-0.5-0.1-0.8c0-0.3,0-0.6,0.1-0.8
	c0.1-0.3,0.3-0.5,0.4-0.7c0.2-0.2,0.4-0.4,0.7-0.5c0.3-0.1,0.6-0.2,1-0.2c0.4,0,0.8,0.1,1.2,0.3c0.4,0.2,0.7,0.5,0.9,0.8
	c0.3,0.3,0.4,0.7,0.6,1.2c0.1,0.4,0.2,0.9,0.2,1.4c0,0.8-0.2,1.7-0.5,2.4c-0.3,0.8-0.8,1.4-1.4,2c-0.6,0.6-1.4,1-2.3,1.3
	c-0.9,0.3-2,0.5-3.3,0.5L476.7,473.2z M515.6,470.5v-7.8h-6.1v7.8h-3.4v-18h3.4v7.2h6.1v-7.2h3.4v18H515.6z M529.8,455.4v15.1h-3.5
	v-15.1h-4.9v-2.8h13.3v2.8H529.8z M547.6,470.5l-0.3-10.2l-0.1-4.1l-0.8,2.8l-2,6.1h-2.1l-1.8-6.1l-0.8-2.8l-0.1,4l-0.3,10.2h-2.9
	l0.9-18h3.8l1.6,5.1l0.8,2.9l0.8-2.7l1.7-5.3h3.9l0.9,18H547.6z M554,470.5v-18h3.4v15.1h7.6v2.9H554z"/>
<path id="path1131" class="st0" d="M598.9,397.7L598.9,397.7c0-7.6,6.2-13.8,13.8-13.8h178.6c3.7,0,7.2,1.5,9.8,4
	c2.6,2.6,4,6.1,4,9.8v55.3c0,7.6-6.2,13.8-13.8,13.8H612.7l0,0c-7.6,0-13.8-6.2-13.8-13.8V397.7z"/>
<path id="path1133" class="st3" d="M598.9,397.7L598.9,397.7c0-7.6,6.2-13.8,13.8-13.8h178.6c3.7,0,7.2,1.5,9.8,4
	c2.6,2.6,4,6.1,4,9.8v55.3c0,7.6-6.2,13.8-13.8,13.8H612.7l0,0c-7.6,0-13.8-6.2-13.8-13.8V397.7z"/>
<path id="path1135" class="st5" d="M669.8,431.6h-7.2l-1.4,4.1h-4.4l7.5-20h3.8l7.5,20h-4.4L669.8,431.6z M663.7,428.3h5l-2.5-7.5
	L663.7,428.3z M684.6,421.7c1.9,0,3.4,0.6,4.6,1.9c1.1,1.3,1.7,3,1.7,5.1v0.2c0,2.2-0.6,3.9-1.9,5.2c-1.3,1.3-3,1.9-5.1,1.9
	c-2.2,0-3.9-0.7-5.1-2.1c-1.3-1.4-1.9-3.3-1.9-5.7v-0.7c0-3.3,0.6-6,1.7-7.9c1.1-1.9,2.8-3.1,5-3.6c1.2-0.3,1.9-0.5,2.3-0.8
	c0.3-0.3,0.5-0.6,0.5-1h3.2c0,1.4-0.4,2.5-1.2,3.2c-0.8,0.7-2.1,1.3-4.1,1.7c-1.2,0.3-2.1,0.7-2.8,1.4c-0.7,0.7-1.1,1.6-1.4,2.9
	C681.4,422.3,682.9,421.7,684.6,421.7z M683.8,424.9c-0.9,0-1.7,0.3-2.2,0.9c-0.5,0.6-0.8,1.7-0.8,3.1c0,1.3,0.3,2.2,0.8,2.9
	c0.5,0.7,1.3,1,2.3,1c1,0,1.7-0.3,2.2-1c0.5-0.6,0.8-1.6,0.8-2.9v-0.3c0-1.2-0.3-2.1-0.8-2.8C685.5,425.2,684.8,424.9,683.8,424.9z
	 M702,420.9h4v14.9h-4v-9.2l-5,9.2h-4v-14.9h4v9.2L702,420.9z M708.3,428.2c0-1.5,0.3-2.8,0.8-3.9c0.6-1.2,1.4-2.1,2.5-2.7
	c1.1-0.6,2.3-0.9,3.7-0.9c2,0,3.7,0.6,4.9,1.8s2,2.9,2.1,5l0,1c0,2.3-0.6,4.1-1.9,5.5c-1.3,1.4-3,2.1-5.1,2.1
	c-2.1,0-3.9-0.7-5.1-2.1c-1.3-1.4-1.9-3.3-1.9-5.6V428.2z M712.3,428.5c0,1.4,0.3,2.5,0.8,3.3c0.5,0.7,1.3,1.1,2.3,1.1
	c1,0,1.7-0.4,2.2-1.1c0.6-0.7,0.8-1.9,0.8-3.5c0-1.4-0.3-2.5-0.8-3.2c-0.5-0.8-1.3-1.2-2.3-1.2c-1,0-1.7,0.4-2.2,1.1
	C712.6,425.7,712.3,426.9,712.3,428.5z M735,424.1h-6.2v11.7h-4v-14.9H735V424.1z M750.1,428.4c0,2.3-0.5,4.1-1.6,5.5
	c-1,1.4-2.4,2.1-4.2,2.1c-1.5,0-2.7-0.5-3.7-1.6v7h-4v-20.6h3.7l0.1,1.5c1-1.1,2.2-1.7,3.8-1.7c1.8,0,3.2,0.7,4.3,2
	c1,1.4,1.5,3.2,1.5,5.6L750.1,428.4z M746.1,428.2c0-1.4-0.2-2.4-0.7-3.2c-0.5-0.8-1.2-1.1-2.1-1.1c-1.2,0-2.1,0.5-2.6,1.4v6.1
	c0.5,1,1.4,1.5,2.6,1.5C745.2,432.8,746.1,431.3,746.1,428.2z M761.2,435.7c-0.2-0.4-0.3-0.8-0.4-1.3c-1,1.1-2.2,1.6-3.8,1.6
	c-1.5,0-2.7-0.4-3.6-1.3c-0.9-0.8-1.4-1.9-1.4-3.2c0-1.6,0.6-2.8,1.7-3.6c1.2-0.8,2.9-1.3,5.1-1.3h1.8v-0.9c0-0.7-0.2-1.2-0.5-1.6
	c-0.3-0.4-0.9-0.6-1.7-0.6c-0.7,0-1.2,0.2-1.6,0.5c-0.4,0.3-0.6,0.8-0.6,1.3h-4c0-0.9,0.3-1.7,0.8-2.4c0.5-0.7,1.3-1.3,2.3-1.7
	c1-0.4,2.1-0.6,3.3-0.6c1.8,0,3.3,0.5,4.3,1.4c1.1,0.9,1.6,2.2,1.6,3.9v6.4c0,1.4,0.2,2.5,0.6,3.2v0.2H761.2z M757.9,433
	c0.6,0,1.1-0.1,1.6-0.4c0.5-0.3,0.9-0.6,1.1-1.1V429h-1.5c-2,0-3,0.7-3.2,2.1l0,0.2c0,0.5,0.2,0.9,0.5,1.2
	C756.8,432.8,757.3,433,757.9,433z M776.7,431.1l3.9-10.2h5v14.9h-4v-9.1l-3.6,9.1h-2.7l-3.5-9v9h-4v-14.9h4.9L776.7,431.1z"/>
<path id="path1137" class="st0" d="M210.6,73.7H338v73.2H210.6V73.7z"/>
<path id="path1139" class="st6" d="M260.2,96.3v25.8h-5.3v-21.5H248l-0.4,9.1c-0.2,3.1-0.6,5.5-1.2,7.2c-0.6,1.8-1.5,3.1-2.6,3.9
	c-1.1,0.8-2.7,1.2-4.7,1.3h-1.4v-4.3l0.9-0.1c1.3-0.2,2.3-0.9,2.8-2.3c0.6-1.4,1-3.8,1.1-7.3l0.4-11.8H260.2z M280.3,96.3h5.3v25.8
	h-5.3V105L270,122.1h-5.3V96.3h5.3v17.1L280.3,96.3z M310.5,113.5c-0.2,2.8-1.2,5-3.1,6.6c-1.8,1.6-4.3,2.4-7.3,2.4
	c-3.3,0-5.9-1.1-7.8-3.3c-1.9-2.2-2.8-5.3-2.8-9.2v-1.6c0-2.5,0.4-4.7,1.3-6.6c0.9-1.9,2.1-3.3,3.8-4.3c1.6-1,3.5-1.5,5.6-1.5
	c3,0,5.4,0.8,7.2,2.4c1.8,1.6,2.9,3.8,3.2,6.7h-5.3c-0.1-1.7-0.6-2.9-1.4-3.6c-0.8-0.8-2-1.1-3.6-1.1c-1.8,0-3.1,0.6-4,1.9
	c-0.9,1.3-1.3,3.2-1.3,5.9v2c0,2.8,0.4,4.8,1.3,6.1c0.8,1.3,2.2,1.9,4,1.9c1.7,0,2.9-0.4,3.7-1.1c0.8-0.8,1.3-1.9,1.4-3.5H310.5z"/>
<path id="path1141" class="st0" d="M609.3,400.5h47.6v47.6h-47.6V400.5z"/>
<g id="g1148" transform="matrix(0.07461028,0,0,0.07461213,796.07987,402.53654)">
	<g>
		<defs>
			<rect id="SVGID_00000025434775129584806040000006217679624458254783_" x="-2208.6" y="268" width="47.6" height="47.6"/>
		</defs>
		<clipPath id="SVGID_00000080189003574637086260000016150635653968289683_">
			<use xlink:href="#SVGID_00000025434775129584806040000006217679624458254783_"  style="overflow:visible;"/>
		</clipPath>
		<g style="clip-path:url(#SVGID_00000080189003574637086260000016150635653968289683_);enable-background:new    ;">
			
				<image style="overflow:visible;" width="1982" height="693" id="image1146" xlink:href="D27BAE36F2776915.png"  transform="matrix(1.5096 0 0 1.5096 -2709.4395 -208.0237)">
			</image>
		</g>
	</g>
</g>
<text transform="matrix(1 0 0 1 440.8211 88.8594)"><tspan x="0" y="0" class="st7 st8">Организмы и </tspan><tspan x="-30.4" y="33.6" class="st7 st8">чувствительность</tspan></text>
<text transform="matrix(1 0 0 1 369.4279 337.1846)"><tspan x="0" y="0" class="st7 st8">Категоризация и </tspan><tspan x="-83.7" y="33.6" class="st7 st8">справочно-информационные </tspan><tspan x="39.8" y="67.2" class="st7 st8">сообщения</tspan></text>
</svg>
